<?xml version="1.0" encoding="UTF-8" standalone="no"?>
<!-- Generator: Adobe Illustrator 15.0.0, SVG Export Plug-In . SVG Version: 6.00 Build 0)  -->

<svg
   version="1.1"
   x="0px"
   y="0px"
   width="375"
   height="375"
   viewBox="0 0 375 375"
   enable-background="new 0 0 198 180"
   xml:space="preserve"
   id="svg2576"
   sodipodi:docname="Brunswick.svg"
   inkscape:version="1.2.2 (b0a8486, 2022-12-01)"
   xmlns:inkscape="http://www.inkscape.org/namespaces/inkscape"
   xmlns:sodipodi="http://sodipodi.sourceforge.net/DTD/sodipodi-0.dtd"
   xmlns="http://www.w3.org/2000/svg"
   xmlns:svg="http://www.w3.org/2000/svg"><defs
   id="defs2580">
	
	
	
</defs><sodipodi:namedview
   id="namedview2578"
   pagecolor="#ffffff"
   bordercolor="#999999"
   borderopacity="1"
   inkscape:showpageshadow="0"
   inkscape:pageopacity="0"
   inkscape:pagecheckerboard="0"
   inkscape:deskcolor="#d1d1d1"
   showgrid="false"
   inkscape:zoom="0.50430465"
   inkscape:cx="234.97701"
   inkscape:cy="405.50885"
   inkscape:window-width="1390"
   inkscape:window-height="1027"
   inkscape:window-x="57"
   inkscape:window-y="25"
   inkscape:window-maximized="0"
   inkscape:current-layer="svg2576" />



<g
   id="Your_Artwork_Here"
   transform="matrix(4.1666667,0,0,4.1666667,-187.5,-149.99999)"
   style="fill:#4b4b4b;fill-opacity:1">
</g><g
   id="g3904"
   transform="matrix(0.51880939,0,0,0.51880939,-26.508875,-7.0535191)"><polygon
     fill="#929497"
     points="0,251.75 288,251.75 288,-0.25 0,-0.25 "
     id="polygon235"
     transform="matrix(2.8645833,0,0,2.9761905,0,0.74404763)"
     style="fill:#e8bb09;fill-opacity:1" /><path
     id="path316-4-9"
     style="fill:#cf1111;fill-opacity:1;stroke-width:0;stroke-linecap:round;stroke-linejoin:round;paint-order:markers stroke fill"
     d="m 403.0642,251.17684 -1.22441,0.73465 c -0.67322,0.40375 -1.27102,0.78994 -1.329,0.85841 -0.058,0.0684 -0.43287,0.17041 -0.83254,0.22726 -0.55588,0.0791 -0.88303,0.003 -1.39315,-0.32627 -0.36678,-0.23669 -0.72427,-0.56932 -0.79489,-0.73915 -0.1068,-0.25702 -0.26803,-0.20579 -0.95805,0.30826 -1.16179,0.86551 -2.03217,1.16819 -2.81418,0.97654 -0.88958,-0.21802 -2.0386,-0.0436 -2.7849,0.42302 -1.70483,1.06587 -2.13503,1.23133 -2.74446,1.05529 -0.32355,-0.0935 -1.12259,-0.64991 -1.77526,-1.23642 -1.35068,-1.21381 -2.19629,-1.6552 -3.58258,-1.86983 -3.45594,-0.53507 -6.43888,1.6411 -6.77886,4.94569 -0.077,0.74814 0.006,1.44253 0.18407,1.54357 0.17792,0.10104 0.42526,0.49652 0.54945,0.87865 0.1242,0.38214 0.36095,0.83371 0.52574,1.00355 0.16481,0.16984 0.62779,0.65657 1.02918,1.08116 0.40139,0.42459 1.06947,0.98054 1.48519,1.2353 1.50655,0.92319 1.73687,1.31274 1.45451,2.46947 -0.14512,0.59442 -0.35639,2.67263 -0.46857,4.61718 -0.18178,3.15067 -0.14464,3.55048 0.33887,3.67439 0.71887,0.18423 0.73855,2.69456 0.0279,3.59789 -0.26723,0.33967 -0.48803,0.9427 -0.49088,1.34106 -0.003,0.39834 -0.15763,0.76768 -0.34305,0.82015 -0.55483,0.15703 -0.3964,0.5414 0.18128,0.43989 1.56343,-0.27473 2.51108,1.33568 1.82964,3.11075 -0.19561,0.50951 -0.47047,1.29212 -0.6108,1.73819 -0.14034,0.44608 -0.43766,0.89402 -0.65962,0.99566 -0.22196,0.10165 -0.40303,0.31444 -0.40303,0.47365 0,0.44083 -2.90633,2.40259 -4.93668,3.33238 -0.99367,0.45505 -1.80592,0.90963 -1.80592,1.00917 -2e-5,0.18615 1.54222,0.54257 3.03312,0.7009 0.73572,0.0781 0.85619,0.18481 0.94689,0.83591 0.0677,0.4854 -0.0793,0.87371 -0.42115,1.11266 -0.28897,0.20197 -0.52574,0.50377 -0.52574,0.67053 0,0.16676 -0.22667,0.40701 -0.50483,0.5344 -0.27815,0.12738 -0.50621,0.33734 -0.50621,0.46576 0,0.12844 -0.13881,0.27272 -0.30819,0.32064 -0.16939,0.048 -0.62,0.3821 -1.00268,0.74253 -0.38267,0.36043 -1.06492,0.83606 -1.51587,1.05754 l -0.81999,0.40276 1.16026,0.25314 c 1.45365,0.31745 2.67593,0.3198 5.29508,0.009 l 2.06392,-0.24526 0.78094,0.43876 c 0.66654,0.37367 0.75781,0.56235 0.61778,1.28706 -0.23873,1.23555 -0.73202,2.66082 -1.02778,2.97124 -0.2239,0.23501 -0.11663,0.25606 0.83673,0.16876 0.60148,-0.0551 1.76264,-0.26306 2.5813,-0.4624 0.81867,-0.19933 1.74939,-0.36226 2.06671,-0.36226 0.94056,0 1.74162,1.08631 1.79338,2.43234 0.0252,0.65754 0.10969,1.04443 0.18826,0.85954 0.0786,-0.18491 0.36194,-0.41942 0.62895,-0.5209 0.26703,-0.10148 0.48935,-0.26201 0.49506,-0.35777 0.006,-0.0958 0.39901,-0.30422 0.87298,-0.46239 1.11821,-0.37316 1.50321,-0.19578 1.86869,0.86066 0.63198,1.82685 0.87228,2.30667 1.24253,2.47622 0.21346,0.0978 0.40363,0.32094 0.42255,0.49502 h 8e-4 c 0.0204,0.18703 0.14239,0.1047 0.29984,-0.20025 0.14654,-0.28386 0.43475,-0.59337 0.64008,-0.68741 0.20535,-0.094 0.3778,-0.3471 0.38351,-0.56365 0.006,-0.21654 0.38545,-0.58911 0.8423,-0.82691 0.81731,-0.42539 0.84287,-0.42761 1.65114,-0.15412 0.45181,0.15288 1.17382,0.53663 1.60372,0.85278 0.4299,0.31616 0.89568,0.5771 1.03475,0.5794 0.13908,0.002 0.25721,0.1259 0.26077,0.27451 0.0114,0.41276 1.32355,-0.41223 1.3332,-0.83816 0.004,-0.185 0.23503,-0.44077 0.51318,-0.56815 0.27816,-0.12737 0.50623,-0.29949 0.50623,-0.38139 0,-0.14195 0.76887,-0.33526 1.3304,-0.33526 0.14513,0 0.77649,0.20676 1.40429,0.46014 0.6278,0.25341 1.25547,0.46237 1.39454,0.46353 0.13908,8e-4 0.25381,0.0715 0.25381,0.15637 0,0.0849 0.30269,0.29368 0.67356,0.46352 0.61068,0.27966 0.67554,0.28295 0.68055,0.0383 0.0106,-0.51982 1.22486,-2.56803 1.55212,-2.61797 0.18166,-0.0277 0.80269,0.14192 1.3792,0.37689 2.5223,1.02799 2.92214,1.15123 4.00792,1.23192 0.63079,0.0469 1.1463,0.14557 1.1463,0.21939 0,0.0738 0.3414,0.12818 0.75864,0.12151 0.41727,-0.006 0.56927,-0.0472 0.33748,-0.09 -0.2318,-0.0428 -0.42323,-0.33215 -0.42394,-0.64353 -8e-4,-0.31136 -0.22921,-0.76593 -0.50622,-1.00916 -0.61488,-0.53987 -0.66736,-1.88528 -0.0809,-2.05433 0.2318,-0.0668 1.65734,-0.15703 3.1684,-0.20138 l 2.74725,-0.081 -0.62336,-0.54003 c -0.34267,-0.29721 -0.7329,-0.6444 -0.8674,-0.77178 -0.13451,-0.12738 -0.44591,-0.2876 -0.69169,-0.35551 -0.24578,-0.0679 -0.44626,-0.22448 -0.44626,-0.34764 0,-0.12316 -0.11473,-0.22457 -0.25381,-0.22502 -0.3051,-8e-4 -1.43219,-0.88125 -1.43219,-1.11828 0,-0.40016 1.1459,-0.73354 2.52413,-0.73354 0.7748,0 1.51026,-0.0451 1.633,-0.10124 0.12273,-0.0562 -0.15648,-0.32973 -0.61917,-0.60753 -0.46271,-0.27781 -0.84092,-0.57121 -0.84092,-0.6514 0,-0.0802 -0.22806,-0.2318 -0.50621,-0.33751 -0.27815,-0.10571 -0.50483,-0.31679 -0.50483,-0.46915 0,-0.15236 -0.11828,-0.30017 -0.26217,-0.32851 -0.14389,-0.0283 -0.5049,-0.34074 -0.80326,-0.69415 -0.53964,-0.63923 -0.53806,-0.64537 0.42255,-1.17904 0.5311,-0.29506 1.34822,-0.58079 1.81569,-0.63453 0.61579,-0.0708 0.84928,-0.20047 0.84928,-0.47139 0,-0.20567 -0.13659,-0.41274 -0.30401,-0.46014 -0.67979,-0.1924 -2.73051,-2.30224 -2.73051,-2.80925 0,-0.45687 0.15047,-0.55991 1.01243,-0.69752 1.10688,-0.17669 1.33592,-0.58642 0.50483,-0.90228 -0.27815,-0.10572 -0.50483,-0.28804 -0.50483,-0.40502 0,-0.11698 -0.11473,-0.21361 -0.25381,-0.21376 -0.13906,-1.6e-4 -0.76603,-0.34498 -1.39454,-0.76727 -0.99883,-0.67112 -1.11807,-0.85207 -0.9441,-1.43331 0.11992,-0.40067 0.0376,-0.79611 -0.20639,-0.99454 -0.61204,-0.49781 -1.79479,-1.59805 -2.39722,-2.23096 -0.40896,-0.42966 -0.53625,-1.09144 -0.53411,-2.77999 0.002,-1.95675 0.081,-2.26962 0.67634,-2.67872 0.55848,-0.3838 0.64063,-0.62186 0.47694,-1.38944 -0.10865,-0.50951 -0.41304,-1.1874 -0.67635,-1.50756 -0.60928,-0.74078 -0.61878,-2.46733 -0.0167,-3.10061 0.67868,-0.71392 1.24963,-2.27512 1.5047,-4.11541 0.22386,-1.61494 0.86899,-2.46916 1.86451,-2.46947 0.54116,-1.7e-4 2.72712,-0.92884 3.2702,-1.38944 1.64302,-1.39347 2.0547,-2.93509 1.13655,-4.25717 -1.68003,-2.4191 -4.1989,-2.96582 -7.29067,-1.5818 -0.53384,0.23898 -1.01868,0.43427 -1.07659,0.43427 -0.46611,0 -1.9511,-0.863 -2.53388,-1.47269 -0.48215,-0.5044 -1.33939,-0.76975 -1.80174,-0.55803 -0.21466,0.0983 -0.50958,0.17777 -0.65544,0.17777 -0.3435,0 -1.28577,-1.03113 -1.28577,-1.40744 0,-0.39237 -0.2234,-0.36771 -1.56886,0.17326 -0.63359,0.25476 -1.351,0.46239 -1.59396,0.46239 -0.6271,0 -1.55252,-0.50911 -1.84916,-1.01703 z m 55.8305,0.52314 c -1.09852,0 -1.1484,0.0303 -0.70145,0.42639 1.26483,1.12077 1.822,2.366 1.24811,2.79124 -0.28388,0.21036 -1.31783,0.23326 -2.14481,0.0472 -0.322,-0.0725 -1.11647,-0.23454 -1.76548,-0.36001 -0.64904,-0.12548 -1.71193,-0.33468 -2.36097,-0.46577 -2.82487,-0.57057 -6.98725,-1.14263 -7.29345,-1.00242 -0.0679,0.0311 1.01468,0.59782 2.40558,1.26005 2.24219,1.06755 2.52831,1.27086 2.52831,1.79107 0,0.72393 -0.74598,0.88088 -2.54505,0.53665 -0.68528,-0.13112 -1.58843,-0.23851 -2.00674,-0.23851 -0.41829,0 -1.30477,-0.10438 -1.97048,-0.23176 -1.65488,-0.31663 -5.60485,-0.30206 -7.1066,0.0258 -0.64736,0.14138 -1.09837,0.31498 -1.00267,0.3859 0.0957,0.0709 1.79998,0.12938 3.78757,0.12938 4.1758,0 5.1124,0.1746 5.1124,0.95179 0,0.3931 -1.3439,1.42714 -2.37352,1.82706 -0.42076,0.16344 -5.31981,3.19986 -6.22801,3.86003 -1.30155,0.94611 -2.86161,2.40422 -2.86161,2.67423 0,0.12174 -0.22806,0.3083 -0.50622,0.41401 -0.27815,0.10572 -0.50622,0.38412 -0.50622,0.61878 0,0.23464 -0.2264,0.62531 -0.50342,0.86854 -0.27701,0.24323 -0.50412,0.60237 -0.50483,0.79765 -0.002,0.42779 0.30943,0.36212 2.43068,-0.50964 0.82654,-0.33968 2.15303,-0.85976 2.94807,-1.15542 2.47035,-0.91867 8.41753,-2.47285 9.46197,-2.47285 0.32358,0 1.02376,-0.10378 1.55492,-0.23063 1.46281,-0.34937 5.9267,-0.30598 8.33099,0.081 4.10727,0.66107 6.73957,1.61016 12.1897,4.39442 2.99732,1.53122 2.95023,1.50981 4.64383,2.1297 2.04024,0.74678 4.67311,1.44588 5.91285,1.57057 0.58709,0.0591 1.15348,0.17138 1.25928,0.24976 0.10578,0.0784 2.51848,0.14288 5.36062,0.14288 3.92811,0 5.39909,-0.0553 6.13319,-0.23063 0.53113,-0.12686 1.29495,-0.23132 1.69716,-0.23176 0.40219,-5.3e-4 1.16103,-0.10058 1.686,-0.22164 0.52498,-0.12107 1.94075,-0.4358 3.14609,-0.69978 2.2917,-0.5019 2.62639,-0.58819 4.98967,-1.2803 0.79741,-0.23352 1.58109,-0.42413 1.74178,-0.42413 0.16068,0 0.3426,-0.0522 0.40442,-0.11588 0.36505,-0.37612 12.80346,-3.43589 13.96774,-3.43589 0.26045,0 0.47414,-0.0693 0.47414,-0.15413 0,-0.0849 0.16108,-0.15413 0.35839,-0.15413 0.19733,0 1.14551,-0.16453 2.10716,-0.36564 0.96166,-0.20112 2.5836,-0.52003 3.6035,-0.70878 1.0199,-0.18875 2.25643,-0.44062 2.74864,-0.56027 0.4922,-0.11964 1.18246,-0.21825 1.534,-0.21825 0.35154,0 0.78328,-0.0589 0.95945,-0.13164 0.17615,-0.0728 1.45826,-0.28998 2.84904,-0.48264 1.39078,-0.19266 2.83239,-0.40578 3.20327,-0.47252 3.14471,-0.56586 10.17926,-0.76474 12.96366,-0.36677 1.71194,0.24469 3.30211,0.60704 3.72482,0.84829 0.0927,0.0529 0.33933,0.12358 0.54666,0.15751 1.15289,0.18886 9.90545,3.98043 9.90545,4.29091 0,0.0942 0.14174,0.17101 0.31376,0.17101 0.63291,0 5.4178,4.00139 5.4178,4.53055 0,0.12117 0.22781,0.41942 0.50482,0.66265 0.27701,0.24323 0.50411,0.65453 0.50483,0.91354 8e-4,0.25899 0.15972,0.54272 0.35281,0.63115 0.19309,0.0884 0.5019,1.01376 0.68613,2.05545 0.36451,2.06128 -0.0533,5.79473 -0.68055,6.08199 -0.19613,0.0898 -0.35768,0.34036 -0.35839,0.5569 -8e-4,0.21654 -0.22782,0.59267 -0.50483,0.8359 -0.27701,0.24324 -0.50482,0.53275 -0.50482,0.64353 0,0.11079 -0.25304,0.43266 -0.5634,0.71552 -0.31035,0.28287 -0.78771,0.72291 -1.06124,0.97767 -1.8397,1.71342 -7.33922,4.65362 -9.5847,5.12457 -2.41248,0.50597 -3.3945,0.66603 -4.10134,0.66603 -0.43465,0 -1.33404,0.10437 -1.99977,0.23176 -1.6878,0.32278 -12.92406,0.31841 -14.88814,-0.006 -0.74175,-0.12237 -1.80325,-0.22491 -2.35957,-0.22951 -0.5563,-0.004 -1.39116,-0.10702 -1.85474,-0.22838 -0.46359,-0.12136 -1.25113,-0.22326 -1.75015,-0.22614 -0.49899,-0.003 -0.9931,-0.0701 -1.0989,-0.1485 -0.10579,-0.0784 -0.67875,-0.1911 -1.27321,-0.25089 -0.59446,-0.0598 -1.31391,-0.163 -1.59815,-0.22951 -0.28424,-0.0665 -2.56437,-0.58325 -5.06777,-1.14754 -2.50339,-0.56428 -4.77985,-1.0895 -5.05801,-1.1678 -0.27815,-0.0783 -1.71976,-0.47052 -3.20325,-0.87078 -1.4835,-0.40025 -2.77307,-0.77415 -2.86579,-0.83141 -0.0927,-0.0572 -0.51014,-0.153 -0.92737,-0.21264 -0.41722,-0.0596 -0.75862,-0.1728 -0.75862,-0.252 0,-0.0792 -0.14925,-0.14401 -0.33191,-0.14401 -0.18265,0 -1.07195,-0.20875 -1.97607,-0.46351 -1.52478,-0.42964 -4.13008,-0.65196 -4.07624,-0.34764 0.0112,0.0637 0.65535,0.35694 1.43219,0.6514 1.55823,0.59065 5.22559,2.44574 7.19165,3.63839 0.695,0.4216 1.34955,0.80133 1.45591,0.84378 0.55659,0.2222 4.59725,3.10596 5.74412,4.09966 1.03717,0.89866 2.57472,1.45919 4.00511,1.45919 0.59113,0 1.61994,0.10437 2.28567,0.23175 0.66572,0.12738 1.80817,0.23176 2.53947,0.23176 0.73128,0 1.63553,0.0741 2.00813,0.16538 0.3726,0.0913 1.91743,0.23652 3.43337,0.32177 1.51593,0.0853 3.59045,0.21234 4.61035,0.28239 3.04854,0.20935 20.11727,0.1152 20.61691,-0.11364 0.23175,-0.10615 0.78574,-0.19351 1.22999,-0.19351 0.71062,0 1.71627,-0.18619 3.44034,-0.63901 0.27815,-0.0731 0.84621,-0.20091 1.26345,-0.28352 0.41723,-0.0826 0.75863,-0.22125 0.75863,-0.30827 0,-0.087 0.22806,-0.15863 0.50622,-0.15863 0.27815,0 0.50622,-0.0524 0.50622,-0.117 0,-0.0645 0.34483,-0.29033 0.767,-0.50177 1.25174,-0.62688 3.95353,-2.28047 3.95353,-2.41997 0,-0.071 0.41602,-0.33422 0.92597,-0.58502 0.50995,-0.2508 1.107,-0.59772 1.32621,-0.77065 0.51607,-0.4071 2.78049,-2.53794 3.12238,-2.93863 0.14491,-0.16983 0.51196,-0.57196 0.81581,-0.89328 0.30387,-0.32132 0.55223,-0.69289 0.55223,-0.82578 0,-0.13288 0.20532,-0.46031 0.45603,-0.7279 0.62285,-0.6648 1.22304,-1.70934 1.56746,-2.72598 0.15822,-0.46705 0.46441,-1.09221 0.68053,-1.38943 0.26086,-0.35873 0.39394,-1.96729 0.39466,-4.78594 8e-4,-3.50535 -0.0923,-4.36429 -0.53689,-4.92206 -0.29619,-0.37158 -0.5383,-0.90175 -0.5383,-1.17792 0,-0.27617 -0.22806,-0.75156 -0.50622,-1.05643 -0.27816,-0.30485 -0.50622,-0.76006 -0.50622,-1.01253 0,-0.25247 -0.13982,-0.49946 -0.31099,-0.5479 -0.17118,-0.0484 -0.41243,-0.29965 -0.53689,-0.55914 -0.12447,-0.2595 -0.43913,-0.65874 -0.69867,-0.88654 -0.25953,-0.2278 -0.47343,-0.53542 -0.47415,-0.68403 -8e-4,-0.1486 -0.15343,-0.27 -0.33887,-0.27 -0.18543,0 -0.33747,-0.0901 -0.33747,-0.20026 0,-0.11013 -0.6828,-0.67713 -1.51726,-1.25893 -0.83447,-0.58181 -1.51727,-1.08651 -1.51727,-1.12279 0,-0.0363 -0.71671,-0.49612 -1.59256,-1.02042 -1.42092,-0.85055 -2.35646,-1.34915 -4.64522,-2.47734 -1.61824,-0.79768 -8.72487,-3.02975 -9.64606,-3.02975 -0.19992,0 -0.76707,-0.0948 -1.25927,-0.21038 -1.34148,-0.31507 -3.07592,-0.57872 -4.77212,-0.72453 -0.83448,-0.0717 -2.04645,-0.20316 -2.69426,-0.29251 -1.84802,-0.25489 -13.29024,-0.2044 -15.51149,0.0686 -1.0199,0.12536 -2.41934,0.22948 -3.10843,0.23063 -0.6891,8e-4 -1.82664,0.11571 -2.52831,0.25539 -0.70168,0.13967 -1.73074,0.34232 -2.28705,0.45002 -2.16318,0.4188 -8.17467,1.78752 -9.77713,2.22647 -0.92718,0.25397 -1.89775,0.5097 -2.15597,0.56701 -0.25823,0.0573 -2.355,0.68029 -4.65917,1.38493 -4.45033,1.36098 -7.17389,2.02074 -9.36852,2.26921 -2.7265,0.3087 -7.60159,0.14397 -9.44106,-0.31951 -0.37088,-0.0935 -0.90163,-0.21141 -1.17978,-0.26101 -0.27815,-0.0496 -0.96096,-0.22692 -1.51727,-0.39489 -0.55631,-0.16796 -1.22817,-0.35363 -1.49216,-0.41176 -1.10966,-0.24438 -2.72068,-1.2531 -2.72353,-1.70557 -8.1e-4,-0.15159 -0.1611,-0.53659 -0.35422,-0.85503 -0.31381,-0.51745 -0.46735,-0.5794 -1.44754,-0.5794 -1.69884,0 -1.90634,-0.20348 -1.90634,-1.87432 0,-0.82719 -0.1295,-1.54015 -0.28866,-1.58519 -0.15915,-0.0451 -0.57658,0.61339 -0.92737,1.46368 -0.61445,1.48939 -0.66798,1.54419 -1.47404,1.50081 -0.59655,-0.0321 -0.92526,-0.17826 -1.14352,-0.50852 -0.16836,-0.25476 -0.49833,-0.67115 -0.73353,-0.92591 -0.23519,-0.25475 -0.70202,-0.77553 -1.03755,-1.15768 -0.96954,-1.10421 -2.62602,-2.28578 -2.75979,-1.96769 -0.0627,0.14895 0.0584,0.51091 0.26914,0.80328 0.43491,0.60346 0.01,1.16441 -0.88135,1.16441 -0.53677,0 -1.78015,-0.57976 -1.80036,-0.83927 -0.0147,-0.18962 -2.6096,-1.60261 -3.84753,-2.09483 -1.55459,-0.61815 -4.85767,-1.38943 -5.94912,-1.38943 z m -76.28286,1.14529 c 0.29341,-0.003 0.50782,0.0641 0.89251,0.19689 0.43952,0.15182 1.04627,0.47324 1.34853,0.7144 0.59901,0.47797 0.73882,1.80022 0.23567,2.22984 -0.95372,0.81437 -2.38327,2.33064 -2.38327,2.52797 0,0.12567 -0.19246,0.3483 -0.42674,0.49502 -0.33831,0.21188 -0.51114,0.22815 -0.84229,0.0765 -0.60537,-0.27723 -0.54022,-2.41055 0.0906,-2.96448 0.27702,-0.24325 0.50344,-0.65253 0.50344,-0.90904 v -0.46576 l -0.62476,0.36788 c -0.34333,0.20252 -0.71448,0.54148 -0.82557,0.75378 -0.60327,1.15277 -1.18256,1.92038 -1.48519,1.96658 -0.18784,0.0287 -0.60777,-0.13388 -0.93295,-0.36114 -0.44142,-0.30852 -0.53954,-0.58409 -0.3849,-1.0868 0.11392,-0.3703 0.30409,-1.00294 0.42255,-1.40631 0.27999,-0.95338 1.22744,-1.55072 3.0415,-1.91819 0.70474,-0.14276 1.07742,-0.21447 1.37083,-0.21714 z m 36.31388,2.15784 c 0.3669,0.0118 0.70757,0.0585 0.98873,0.14288 0.99877,0.29968 1.90076,1.08112 1.90076,1.64706 0,0.60594 -0.31261,0.65662 -1.42103,0.22951 -1.92223,-0.74068 -2.69966,-0.40703 -2.40559,1.03504 0.11303,0.55435 0.0644,1.12392 -0.10877,1.26568 -0.2841,0.23248 -0.38371,0.2233 -1.00826,-0.0934 -1.88551,-0.95607 -2.42693,-2.67922 -1.10865,-3.52701 0.72009,-0.46311 2.06212,-0.73514 3.16281,-0.69978 z m -94.11347,1.94632 c -0.81165,0 -1.65868,0.0705 -1.88263,0.15638 -0.22398,0.0858 -0.81774,0.29599 -1.31924,0.46803 -1.04188,0.3574 -0.96845,0.56343 0.45461,1.27692 0.52968,0.26555 0.96225,0.57221 0.96225,0.68065 0,0.10846 0.14223,0.19689 0.31515,0.19689 0.17294,0 0.41416,0.15657 0.53691,0.34763 0.12276,0.19107 0.4665,0.60747 0.76282,0.92592 0.58376,0.62736 1.64895,0.77974 2.43208,0.34763 0.23085,-0.12737 0.60443,-0.23176 0.83114,-0.23176 0.22671,0 0.67828,-0.1344 1.00408,-0.29926 0.48409,-0.24495 0.54951,-0.44957 0.35281,-1.11942 -0.13239,-0.4508 -0.35727,-0.88937 -0.49925,-0.97429 -0.14197,-0.0849 -0.3692,-0.31983 -0.50482,-0.52201 -0.13562,-0.20219 -0.63462,-0.56641 -1.10866,-0.81004 -0.70067,-0.36011 -1.13759,-0.44327 -2.33725,-0.44327 z m 22.45213,3.08825 c -0.16431,0 -0.29843,0.58124 -0.29843,1.29268 0,1.26244 -0.3555,1.93086 -1.55213,2.91836 -0.49079,0.40503 -0.46701,0.46765 0.4323,1.15992 0.52311,0.40266 1.24934,0.99934 1.6135,1.3253 0.64459,0.57699 0.67039,0.58231 0.96222,0.22839 0.16487,-0.19994 0.4473,-0.49265 0.62756,-0.65028 0.46084,-0.403 0.43537,-4.41114 -0.0293,-4.62393 -0.20249,-0.0927 -0.36815,-0.26598 -0.36815,-0.38477 0,-0.31736 -1.03994,-1.26567 -1.38757,-1.26567 z m 49.00003,0.87191 c 0.19278,-0.0195 0.46876,0.0472 0.85904,0.18226 0.58565,0.20275 0.77084,0.44801 0.86182,1.14529 0.0637,0.48824 0.20656,0.93001 0.31796,0.98104 0.45706,0.2093 0.92179,-0.14891 0.92179,-0.70991 0,-0.32913 0.16329,-0.79372 0.36259,-1.03278 0.34947,-0.41922 0.3802,-0.42407 0.84369,-0.13501 0.26431,0.16484 0.47973,0.48049 0.47973,0.70203 0,0.44537 0.5489,0.77403 1.29413,0.77403 0.26669,0 1.14348,-0.27798 1.94817,-0.61765 1.78501,-0.75347 2.89753,-0.79501 5.45964,-0.20138 2.57525,0.59667 3.77363,1.27262 3.77363,2.12745 0,0.73838 -0.42436,0.9855 -1.19093,0.69416 -0.38296,-0.1455 -0.51614,-0.13956 -0.62058,0.0259 -1.32021,2.09129 -1.77415,2.3541 -3.90751,2.26022 -1.94154,-0.0854 -3.13708,-0.53471 -3.73458,-1.40293 -0.55734,-0.80991 -0.82271,-0.96976 -2.07369,-1.25555 -0.97836,-0.22351 -1.03165,-0.21531 -2.10157,0.31951 -0.66816,0.33398 -1.35129,0.5306 -1.74318,0.50289 -0.35421,-0.0251 -0.99854,0.0436 -1.43218,0.15301 -1.23815,0.31215 -3.4264,1.26845 -3.4264,1.49743 0,0.11406 -0.41513,0.38392 -0.92319,0.59965 -1.11631,0.474 -2.91252,0.51837 -4.09717,0.10125 -0.89953,-0.31673 -2.0593,-1.56463 -2.05973,-2.21745 -1.6e-4,-0.23353 -0.15205,-0.42528 -0.33748,-0.42528 -0.18544,0 -0.33609,0.0611 -0.33609,0.13614 0,0.075 -0.34141,0.16705 -0.75863,0.20363 -0.70446,0.0617 -0.75026,0.0197 -0.64149,-0.5929 0.0644,-0.36281 0.3298,-0.74156 0.58989,-0.8404 0.26011,-0.0989 0.47275,-0.27098 0.47275,-0.38365 0,-0.11265 0.55741,-0.40005 1.23835,-0.63789 1.09979,-0.38413 1.51826,-0.43202 3.74714,-0.43202 2.48045,0 2.52169,0.006 3.6021,0.57827 0.60113,0.31844 1.24741,0.57939 1.43638,0.57939 0.44408,0 0.7656,-0.74881 0.7656,-1.78544 0,-0.58937 0.0887,-0.86074 0.41,-0.89329 z m -64.68027,0.97992 c -0.26317,0 -1.04451,0.16161 -1.7362,0.35888 -0.69171,0.19727 -1.48456,0.40549 -1.7627,0.4624 -0.27816,0.057 -0.7716,0.1733 -1.09611,0.25876 -0.32451,0.0855 -0.85527,0.21531 -1.17979,0.28801 -0.48912,0.10958 -0.60667,0.38271 -0.68611,1.59756 l -0.0962,1.46592 1.08774,0.48603 c 0.59789,0.26769 1.34377,0.48715 1.65812,0.48715 1.17847,0 1.70994,0.71429 1.90912,2.56622 0.16469,1.53136 0.10559,1.84315 -0.45044,2.36934 -0.69825,0.66077 -2.01913,1.05692 -2.61477,0.78416 -0.19431,-0.089 -0.67297,-0.16201 -1.06403,-0.16201 -0.39105,0 -1.0053,-0.10145 -1.36525,-0.22613 -0.40252,-0.13942 -1.43736,-0.22888 -2.68729,-0.23176 -2.18885,-0.005 -2.44652,0.0709 -3.61465,1.06317 -0.78785,0.66924 -0.74312,1.04473 0.14921,1.26342 1.90091,0.46588 3.68334,1.64878 4.1641,2.76311 0.55396,1.284 0.11629,3.409 -0.84649,4.10753 -0.48064,0.34875 -0.24238,1.14192 0.34307,1.14192 0.18776,0 1.4698,-0.38866 2.84904,-0.86404 3.09906,-1.06816 4.26048,-1.14548 5.90449,-0.39263 0.97948,0.44854 1.13364,0.64128 1.44615,1.82144 0.37388,1.41194 -0.10987,3.94 -0.77258,4.04116 -0.18762,0.0287 -0.34027,0.14752 -0.34027,0.26439 0,0.34344 -1.64413,0.94239 -3.15305,1.14867 -0.76918,0.10513 -1.51073,0.27112 -1.64697,0.36788 -0.13622,0.0968 -0.24955,0.64131 -0.2524,1.21055 -0.005,0.9535 0.0669,1.05624 0.90366,1.3118 1.47985,0.45197 3.67903,1.51438 4.2938,2.07346 0.61441,0.55877 1.16211,1.53212 1.42243,2.52797 0.39194,1.49944 1.10839,1.2082 1.14073,-0.46352 0.0345,-1.78382 0.67275,-3.00127 1.77107,-3.37625 1.12865,-0.38533 1.65827,-0.2777 3.01081,0.61202 0.77597,0.51044 0.91997,0.76751 0.93854,1.68307 0.0209,1.03108 0.47275,1.62119 1.24254,1.62119 0.17902,0 0.69397,0.17994 1.14352,0.39938 0.67607,0.33002 0.80948,0.54547 0.77258,1.24655 -0.0254,0.48092 -0.30341,1.06813 -0.64289,1.35681 -0.66324,0.56397 -0.48559,1.01141 0.40163,1.01141 1.02859,0 3.46595,0.63284 4.16132,1.08004 0.86312,0.55492 0.8651,1.38854 0.006,2.16008 -0.80455,0.72218 -0.61965,1.0307 0.69865,1.1633 0.54083,0.0544 0.98317,0.16259 0.98317,0.24076 0,0.0781 0.2124,0.14289 0.47134,0.14289 0.25895,0 0.94174,0.24547 1.51727,0.54564 0.94158,0.49108 1.04591,0.64673 1.04591,1.55256 0,0.98756 -0.92241,2.30732 -1.7906,2.5606 -0.39321,0.1147 0.28325,0.59065 0.83952,0.59065 0.58486,0 3.47289,0.64905 4.57549,1.02829 1.03087,0.35454 1.09611,0.43316 1.09611,1.33767 0,0.75853 -0.1683,1.07476 -0.79907,1.49631 l -0.80047,0.5344 0.97618,0.27226 c 0.53695,0.14953 1.16012,0.27113 1.38478,0.27113 0.87351,0 4.05599,0.85978 4.99385,1.34893 0.85058,0.44364 0.98734,0.63919 0.98734,1.41643 0,0.61352 -0.16087,0.96395 -0.50482,1.09467 -0.27816,0.10571 -0.50622,0.28438 -0.50622,0.39714 0,0.11276 -0.24661,0.26813 -0.54806,0.34539 -0.45951,0.11775 -0.40469,0.1577 0.33749,0.24301 0.48688,0.056 0.88553,0.16984 0.88553,0.25314 0,0.0833 0.28495,0.15074 0.63312,0.15074 0.34816,0 0.82064,0.10439 1.05149,0.23177 0.23084,0.12737 0.68698,0.23176 1.01244,0.23176 0.32546,0 0.78018,0.10438 1.01103,0.23176 0.23086,0.12738 0.68559,0.23176 1.01105,0.23176 0.32546,0 0.78468,0.10561 1.0194,0.23513 0.38189,0.21074 0.4881,0.21004 1.01664,-0.009 0.32487,-0.13464 0.66494,-0.432 0.75583,-0.6604 0.0909,-0.22841 0.33445,-0.64091 0.54109,-0.9169 0.20663,-0.27599 0.54355,-0.72756 0.74887,-1.00354 0.20532,-0.27599 0.48875,-0.77975 0.62893,-1.11943 0.14016,-0.33967 0.42648,-0.81286 0.63731,-1.05191 0.21083,-0.23906 0.3835,-0.67085 0.3835,-0.95854 0,-0.28768 0.153,-0.68247 0.34026,-0.87753 0.65764,-0.68499 1.94068,-5.88475 2.35399,-9.5415 0.17757,-1.57099 0.47928,-3.37727 0.67078,-4.01416 0.1915,-0.63689 0.34657,-1.523 0.34585,-1.96882 -0.002,-0.79624 -0.0199,-0.81003 -1.00686,-0.81003 -1.43161,0 -5.91769,-0.79995 -6.4916,-1.15767 -0.67752,-0.42231 -0.22214,-1.0512 1.25927,-1.73932 0.83447,-0.38761 1.51726,-0.78373 1.51726,-0.87978 0,-0.096 -1.55729,-0.90108 -3.46124,-1.78882 -3.00088,-1.3992 -4.89581,-2.33425 -8.12043,-4.00741 -0.40915,-0.21229 -1.27096,-0.69716 -1.91471,-1.07779 -0.64375,-0.38065 -1.39808,-0.7998 -1.67624,-0.93154 -0.27816,-0.13175 -0.88492,-0.46883 -1.34852,-0.74928 -0.46358,-0.28044 -1.01223,-0.59396 -1.21882,-0.6964 -0.7886,-0.39101 -9.23327,-5.65516 -9.23327,-5.75572 0,-0.0581 -0.19628,-0.21583 -0.43649,-0.34989 -1.11462,-0.62209 -1.66528,-1.85188 -1.52842,-3.41226 0.0807,-0.92001 0.29838,-1.61002 0.54387,-1.72244 0.22537,-0.10319 0.41,-0.33936 0.41,-0.52427 0,-0.18492 0.22807,-0.42306 0.50621,-0.52877 0.27816,-0.10573 0.50483,-0.27655 0.50483,-0.38027 0,-0.10373 0.77159,-0.55686 1.71389,-1.00692 l 1.71389,-0.81903 -0.22731,-0.94279 c -0.23269,-0.96528 -1.69699,-2.58233 -3.34133,-3.69014 -0.47825,-0.32222 -0.87018,-0.65126 -0.87018,-0.7324 -10e-6,-0.0812 -0.21423,-0.14851 -0.47693,-0.14851 -0.2627,0 -0.55499,-0.0862 -0.64847,-0.19238 -0.0935,-0.10615 -0.18787,0.60638 -0.21058,1.58294 -0.0226,0.97656 -0.196,2.08734 -0.3835,2.46947 -0.1875,0.38214 -0.46075,0.99401 -0.60802,1.35905 -0.14728,0.36505 -0.44197,0.74378 -0.65543,0.84153 -0.21346,0.0978 -0.38976,0.28465 -0.39047,0.41627 -8e-4,0.13163 -0.35515,0.44197 -0.78792,0.68965 -0.94648,0.54168 -2.60748,0.61542 -3.51842,0.15526 -0.84955,-0.42913 -1.75992,-1.10686 -1.75992,-1.30955 0,-0.0963 -0.22909,-0.39589 -0.50901,-0.66603 -0.37279,-0.35974 -0.59719,-1.46127 -0.83813,-4.11541 -0.39447,-4.34576 -0.57385,-5.09082 -1.22301,-5.09082 z m 63.74175,8.94859 c 0.54525,0.0649 1.29963,0.62951 2.56596,1.82145 1.27844,1.20333 2.00605,1.51985 2.48088,1.08004 0.11461,-0.10615 0.51029,-0.40115 0.87857,-0.6559 0.36828,-0.25476 0.83619,-0.65414 1.04032,-0.88766 0.20413,-0.23353 0.50767,-0.42414 0.67496,-0.42414 0.16729,0 0.30401,-0.0977 0.30401,-0.21601 0,-0.32584 0.9253,-0.41961 1.50751,-0.153 0.81998,0.3755 0.49033,1.82272 -0.50622,2.22083 -0.10628,0.0424 -0.55727,0.3556 -1.00129,0.69528 -0.44402,0.33967 -0.8904,0.65282 -0.99291,0.69527 -0.17902,0.0741 -0.90858,0.89107 -1.25231,1.40294 -0.11814,0.17592 0.53685,0.43611 2.30519,0.91465 1.35835,0.3676 2.51946,0.72607 2.58129,0.79653 0.20442,0.23304 1.96558,0.13216 2.50041,-0.14287 0.33727,-0.17343 0.61015,-0.74361 0.76143,-1.59195 0.16859,-0.94538 0.41956,-1.42821 0.88135,-1.69768 l 0.64567,-0.37689 0.8423,0.46352 c 0.7957,0.43771 0.83592,0.55143 0.75166,2.08245 l -0.0892,1.62119 -1.24114,0.36676 c -0.96541,0.2858 -1.29146,0.5007 -1.46287,0.96529 -0.12126,0.32868 -0.35784,0.63723 -0.52714,0.68515 -0.16931,0.048 -0.3082,0.45649 -0.3082,0.90791 0,1.38865 -0.30429,1.79498 -1.51865,2.02733 -0.94043,0.17994 -1.11158,0.30184 -1.29971,0.93041 -0.1191,0.3979 -0.2151,1.21764 -0.21476,1.82145 5.8e-4,1.06906 -0.7473,2.98755 -1.37502,3.52701 -0.17157,0.14745 -0.31238,0.36037 -0.31238,0.47252 0,0.11216 -0.40063,0.42528 -0.89111,0.69641 -0.77065,0.42598 -1.10298,0.49287 -2.44464,0.48827 -0.98114,-0.003 -1.80096,-0.10429 -2.22708,-0.27452 -0.94299,-0.37672 -1.85474,-1.16502 -1.85474,-1.60431 0,-0.20344 -0.1822,-0.45289 -0.40441,-0.55465 -0.22221,-0.10175 -0.52213,-0.86284 -0.6666,-1.69094 -0.36623,-2.09936 -0.7501,-3.12811 -1.36944,-3.66764 -0.91177,-0.79427 -1.20869,-1.21074 -1.4043,-1.96996 -0.20281,-0.78715 -1.02076,-1.50418 -1.71669,-1.50418 -0.48055,0 -2.19361,-0.96444 -2.19361,-1.2353 0,-0.0966 -0.22667,-0.27988 -0.50482,-0.40726 -0.36101,-0.16532 -0.50622,-0.56796 -0.50622,-1.40743 0,-0.96542 0.13586,-1.26753 0.75863,-1.68644 0.41723,-0.28066 0.93005,-0.51145 1.13934,-0.5119 0.60742,-0.002 1.24057,0.88341 1.03893,1.45243 -0.20318,0.57337 0.51824,1.71114 1.3555,2.13646 0.32967,0.16747 1.02054,0.27001 1.81709,0.27001 1.45464,0 2.99639,-0.58636 4.15713,-1.58181 0.62009,-0.53183 0.62571,-0.58033 0.0851,-0.8539 -0.31532,-0.15956 -0.57861,-0.45817 -0.58432,-0.66379 -0.006,-0.20561 -0.23396,-0.50905 -0.50622,-0.67389 -0.27226,-0.16484 -0.49506,-0.42579 -0.49506,-0.5794 0,-0.15361 -0.14083,-0.27901 -0.31378,-0.27901 -0.17293,0 -0.42115,-0.15266 -0.55083,-0.33976 -0.12969,-0.18711 -0.42048,-0.42502 -0.64707,-0.52877 -0.57519,-0.26342 -0.9003,-1.51945 -0.51319,-1.98571 0.24311,-0.29282 0.49562,-0.43386 0.82278,-0.39489 z m -79.25324,5.10207 c -0.77257,0 -1.81151,0.44649 -1.81151,0.77853 0,0.14698 -0.21314,0.45589 -0.47414,0.68628 -0.58901,0.51989 -1.03476,3.56466 -0.70983,4.8467 0.13171,0.51969 0.37522,0.90575 0.54248,0.8584 0.16727,-0.0473 0.30541,-0.19108 0.30541,-0.31951 0,-0.12844 0.18934,-0.32449 0.42115,-0.4354 0.23178,-0.11091 0.64921,-0.35333 0.92737,-0.53889 0.64813,-0.43236 2.41321,-0.93491 3.28136,-0.93491 1.43252,0 2.23842,-1.92554 1.31505,-3.14 -0.63132,-0.83034 -2.67812,-1.8012 -3.79734,-1.8012 z m -35.93875,1.24543 c -0.74753,-0.009 -1.40093,0.199 -2.49205,0.61877 -4.07326,1.56704 -7.11088,5.83757 -8.54854,12.01998 -0.27514,1.18318 -0.64357,2.03577 -0.8186,1.89457 -0.17503,-0.14122 -0.79803,-1.75903 -1.38477,-3.59565 -2.82148,-8.83181 -9.08621,-12.4001 -16.45002,-9.36936 -3.65792,1.5055 -6.87726,4.60108 -9.66837,9.29961 -2.8589,4.81267 -4.08385,10.32884 -3.74993,16.88691 0.23522,4.6193 0.49517,5.35448 3.6551,10.36616 4.66921,7.40542 9.48525,13.2201 18.57949,22.43224 4.25571,4.3109 8.09267,7.84469 8.52763,7.8528 0.43493,0.008 1.59281,-0.94842 2.57153,-2.12632 0.97872,-1.17791 4.55517,-4.71173 7.94889,-7.85281 6.79894,-6.29279 10.5748,-10.51205 13.2858,-14.84833 2.92225,-4.67418 5.55404,-12.24223 5.95888,-17.13329 0.91966,-11.11057 -5.77029,-23.11039 -14.35959,-25.75675 -1.4667,-0.45189 -2.30792,-0.67915 -3.05545,-0.68853 z m 121.51205,1.84619 c -0.42698,0.026 -0.44277,0.53361 -0.31377,1.81583 0.18952,1.88362 -0.0451,2.34909 -1.18118,2.34909 -0.77203,0 -0.92598,-0.33567 -0.92598,-2.01946 0,-0.87657 -0.13805,-1.53118 -0.32353,-1.53118 -0.17822,0 -0.64287,0.15544 -1.03196,0.34652 -0.67582,0.33186 -0.70055,0.46876 -0.55502,3.04999 0.19095,3.38697 0.99151,5.70415 2.19918,6.36887 1.10901,0.61042 2.18922,0.11108 3.09311,-1.42881 0.47873,-0.81559 1.081,-5.42038 0.93295,-7.13277 -0.0856,-0.99 -0.22772,-1.24133 -0.8465,-1.50531 -0.4877,-0.20807 -0.82363,-0.32635 -1.0473,-0.31277 z m 92.73149,6.9629 c -1.3389,0.0837 -5.6194,0.31066 -9.51357,0.50515 -21.03077,1.05036 -29.67926,2.04972 -42.06358,4.85793 -5.85398,1.32743 -6.4985,1.40247 -13.39876,1.56269 -3.98689,0.0926 -7.24883,0.24266 -7.24883,0.33414 0,0.0915 1.23967,1.03833 2.75561,2.10383 2.89828,2.0371 2.94875,2.5831 0.23846,2.5831 -2.03106,0 -2.02999,0.0227 0.0404,1.91033 2.47187,2.25368 2.33294,2.41322 -2.096,2.41322 -3.06998,0 -3.70831,0.086 -3.3957,0.45901 0.21173,0.25269 0.58734,1.15584 0.83393,2.00708 l 0.44765,1.54806 h -1.95097 c -1.07316,0 -3.08417,-0.27797 -4.46811,-0.61765 -1.38395,-0.33967 -2.66923,-0.61764 -2.85602,-0.61764 -0.18678,0 -0.33888,0.61719 -0.33888,1.37142 0,1.54311 -1.01768,2.06843 -2.34143,1.20943 -0.48641,-0.31563 -1.64981,-0.94958 -2.58549,-1.40968 l -1.70135,-0.83704 -1.20208,1.53119 c -0.66137,0.84222 -1.5216,1.52847 -1.91192,1.52443 -0.39034,-0.004 -1.18328,-0.44602 -1.76131,-0.98329 -1.53079,-1.42288 -2.28927,-1.36397 -3.39431,0.26551 -0.54108,0.79789 -1.28121,1.49603 -1.64417,1.55144 -0.64756,0.0988 -3.68717,-2.59178 -3.68717,-3.26375 0,-0.65094 -1.1816,-0.33745 -2.77932,0.7369 -2.76035,1.85615 -3.51913,1.46351 -2.97316,-1.53793 l 0.47692,-2.62023 -2.3986,0.45901 c -1.31901,0.25238 -3.10607,0.45903 -3.97166,0.45903 -1.53844,0 -1.59122,0.0986 -2.35957,4.40004 -2.048,11.46531 -5.55321,16.13148 -15.87965,21.13845 -12.73086,6.1728 -14.43268,6.88465 -16.44026,6.8774 -4.60422,-0.0167 -6.62398,-1.99169 -5.48055,-5.35972 0.41657,-1.22706 0.53382,-2.77836 0.25939,-3.44826 l -0.49925,-1.21842 -1.25788,0.77066 c -0.6919,0.42394 -1.87255,1.13764 -2.62314,1.58518 -0.80652,0.48089 -2.335,0.89657 -3.73736,1.01704 -3.07853,0.26448 -3.14718,1.108 -0.26358,3.23225 2.29434,1.69017 3.20924,3.3204 3.25487,5.79285 0.0288,1.56346 -0.031,1.61155 -3.36364,2.70799 -1.86668,0.61413 -3.68085,1.46137 -4.03023,1.88219 -0.53085,0.63939 -1.08036,0.76504 -3.34829,0.76504 h -2.71378 v 1.51093 c 0,1.25944 0.34371,1.68088 2.06253,2.52348 1.1344,0.55611 2.23461,1.40357 2.44463,1.88444 0.21001,0.48087 0.60284,0.87528 0.87438,0.87528 0.27154,0 2.36227,-1.04269 4.64521,-2.31646 3.45872,-1.92979 4.48288,-2.31647 6.14158,-2.31647 2.55864,0 3.38594,0.70976 3.38594,2.90262 0,1.36724 -0.40268,1.99989 -2.02209,3.16924 -2.17332,1.56935 -2.77568,3.30544 -1.04033,3.0005 1.68919,-0.29684 5.74333,0.51528 7.25999,1.45467 0.79805,0.49432 1.69725,0.89891 1.99838,0.89891 0.30113,0 0.54806,-1.16931 0.54806,-2.59884 0,-2.81579 1.32587,-4.78524 3.94516,-5.85811 2.05946,-0.84354 3.19499,-0.25313 3.69135,1.92158 0.5027,2.2025 0.99319,2.82948 2.21314,2.82948 0.66883,0 0.93852,-0.41522 0.93852,-1.4423 0,-1.61294 1.37192,-2.57185 3.67881,-2.57185 0.79553,0 1.81131,0.16746 2.25637,0.37126 0.92153,0.42202 0.84233,0.64701 1.0236,-2.94649 0.10769,-2.13522 0.30965,-2.49008 1.71389,-3.01062 0.87554,-0.32456 2.27231,-0.58952 3.10424,-0.58952 1.84157,0 5.06892,1.30508 5.11519,2.06896 0.019,0.31428 0.6191,0.003 1.38338,-0.71778 1.63671,-1.54408 4.25804,-2.73443 5.34528,-2.42672 0.54772,0.15502 0.67115,0.85964 0.39744,2.27147 -0.38259,1.9735 -0.3633,2.00696 0.52435,0.9484 4.13985,-4.93681 9.11893,-6.11643 9.21653,-2.18371 0.0488,1.96483 -0.22541,2.10995 3.60908,-1.91369 1.41763,-1.48757 1.96609,-1.78008 3.17677,-1.6977 1.62656,0.11069 2.22166,0.51668 3.08194,2.10046 l 0.58431,1.07442 1.87147,-2.34909 c 1.77633,-2.23032 4.39337,-3.91107 5.38433,-3.45727 0.25065,0.11479 0.45602,-1.56684 0.45602,-3.73739 v -3.94665 l 2.10297,0.14175 2.10436,0.14063 -0.38629,-1.57281 c -0.2124,-0.8652 -0.59413,-2.78909 -0.84788,-4.27517 l -0.46159,-2.70122 h 1.86869 1.87008 l -0.44486,-2.08471 c -0.2441,-1.1464 -0.61977,-2.6747 -0.83533,-3.39651 -0.43038,-1.4411 0.51338,-1.77332 1.83243,-0.64465 0.97535,0.83456 1.7396,8.59534 0.84649,8.59534 -0.35001,0 -1.03085,-0.1736 -1.51308,-0.38589 -0.71858,-0.31633 -0.79358,0.28314 -0.41558,3.32 0.50874,4.08717 -0.17046,5.79507 -2.02348,5.09083 -0.85779,-0.32602 -0.99988,-0.19163 -0.99988,0.94616 v 1.32755 l 1.56048,-0.67165 c 2.0943,-0.90099 2.94595,-0.84717 4.44302,0.28014 l 1.26346,0.95066 2.31633,-3.34364 c 1.54602,-2.23168 2.67415,-3.37598 3.39013,-3.43925 0.59323,-0.0524 1.20372,0.15388 1.36387,0.46239 0.23545,0.4536 0.36039,0.47214 0.67216,0.0956 0.21094,-0.25476 1.19515,-1.47104 2.18664,-2.70236 1.39168,-1.72826 2.10208,-2.23884 3.11402,-2.23884 0.72096,0 1.40891,-0.17359 1.52981,-0.38588 1.98344,-3.48282 4.1912,-5.79061 5.53912,-5.79061 0.43409,0 2.09094,-1.00639 3.683,-2.23771 3.20032,-2.47517 9.2742,-5.41856 14.45442,-7.00452 3.86378,-1.18293 14.28112,-3.552 20.22923,-4.60031 2.22524,-0.39218 5.04219,-0.9125 6.26011,-1.15542 3.20637,-0.63952 3.77905,-0.57169 6.40513,0.75941 2.64665,1.34153 2.84795,1.5703 4.52529,5.09982 0.65357,1.37527 2.01673,3.39229 3.02894,4.48218 1.01223,1.08989 2.21109,3.03459 2.66358,4.32242 0.87662,2.49493 1.32083,2.95762 5.26021,5.47784 6.56399,4.19932 13.88707,6.35635 26.47678,7.79767 14.71718,1.68489 18.25679,2.40503 19.677,4.00403 0.54685,0.61571 2.16629,2.24079 3.59931,3.6114 2.39501,2.2907 2.62299,2.73756 2.81418,5.53296 l 0.2078,3.04099 -2.36097,0.26777 c -3.85921,0.43764 -5.32995,0.90359 -7.77597,2.46272 -1.92372,1.22619 -2.78645,1.51447 -5.02733,1.67856 -1.48775,0.10895 -2.70541,0.29549 -2.70541,0.41402 0,0.11853 0.7344,0.53091 1.63162,0.91691 0.8972,0.38598 2.27062,1.38273 3.05265,2.21521 0.78203,0.83248 1.53542,1.51431 1.67345,1.51431 0.13805,0 1.26775,-0.45942 2.51018,-1.02041 2.66587,-1.20372 5.3164,-2.07148 6.2852,-2.05771 1.18536,0.0168 2.83611,0.73284 3.33017,1.44568 0.36946,0.53307 -0.12433,0.97886 -2.26195,2.04083 -3.21548,1.59746 -3.69467,2.95732 -1.21744,3.45501 0.92065,0.18496 2.44473,1.18289 3.87683,2.53809 1.29806,1.22838 2.55075,2.23596 2.78351,2.23885 0.97667,0.0123 1.97528,-0.93092 2.61058,-2.46497 0.79511,-1.91996 1.62393,-2.4706 3.72064,-2.4706 1.11684,0 1.89537,0.33663 2.86997,1.23867 l 1.33876,1.23755 1.177,-0.82353 c 2.42953,-1.698 5.12132,-2.64416 7.13447,-2.50885 1.5175,0.10199 1.94958,-0.002 2.12808,-0.5119 0.36288,-1.03606 -0.88195,-2.75758 -2.33029,-3.22213 -0.73904,-0.23704 -2.22277,-1.06509 -3.2967,-1.84057 -2.45322,-1.77146 -2.63072,-3.71918 -0.4825,-5.30345 1.26572,-0.93345 1.47782,-1.56477 1.55073,-4.63181 0.0464,-1.95312 0.32768,-3.79456 0.62615,-4.09178 0.42195,-0.4202 0.23359,-0.54002 -0.84649,-0.54002 -0.76398,0 -2.15974,0.16098 -3.10285,0.35776 -2.03285,0.42415 -3.76584,-0.12578 -5.12356,-1.62682 -0.69973,-0.77357 -0.64413,-1.07251 0.35701,-1.92382 1.17849,-1.00211 1.17373,-1.01752 -0.97061,-2.75748 -2.3052,-1.87082 -2.30398,-2.75588 0.007,-3.32225 1.23407,-0.30245 1.19793,-0.37742 -0.78094,-1.62119 -1.74743,-1.09829 -2.02395,-1.51022 -1.75852,-2.61573 0.23138,-0.96368 0.0746,-1.31292 -0.58989,-1.31292 -1.45651,0 -2.301,-1.06868 -2.301,-2.91274 v -1.71907 l -2.52831,-0.005 c -1.39076,-0.003 -2.86351,-0.10698 -3.27159,-0.23176 -1.36395,-0.41706 -2.29263,-1.56312 -2.29263,-2.83061 10e-6,-1.40441 -0.1889,-1.44677 -3.60489,-0.79315 -3.3219,0.63561 -6.06041,0.5812 -9.34761,-0.18676 -5.74443,-1.34202 -12.0495,-5.18829 -17.40947,-10.62042 -4.22115,-4.27795 -5.00749,-4.98489 -8.93205,-8.02831 -8.7381,-6.77622 -17.48262,-10.61547 -23.34324,-10.24915 z m -168.40772,7.16878 -0.54387,0.35552 c -1.74379,1.14014 -2.17962,1.28367 -3.91309,1.28367 -0.91849,0 -1.72362,-0.0756 -1.79059,-0.16763 -0.0669,-0.092 -0.28293,-0.16763 -0.47973,-0.16763 -0.45282,0 -0.0871,1.99448 0.40722,2.22084 0.1893,0.0867 0.34305,0.27334 0.34305,0.41514 0,0.36043 2.25245,1.49926 3.14191,1.58856 1.38803,0.13935 3.98027,-0.0437 5.47636,-0.3859 l 1.49634,-0.342 v -1.13293 c 0,-0.62299 -0.14429,-1.25322 -0.32074,-1.40068 -0.17646,-0.14745 -0.57648,-0.53179 -0.88972,-0.85503 -0.31323,-0.32323 -1.10049,-0.77373 -1.74876,-1.00016 z m 164.6299,11.80283 c -0.53667,0 -1.06284,0.0645 -1.16863,0.14289 -0.10579,0.0784 -0.60779,0.18569 -1.11563,0.23851 -0.61508,0.064 -1.31687,0.36365 -2.10297,0.89778 -1.53866,1.04546 -1.98472,1.28902 -5.41222,2.95549 -1.58544,0.77086 -3.71984,1.81821 -4.74423,2.32772 -1.91245,0.95121 -5.01617,2.76106 -5.01617,2.92511 0,0.0506 -0.35253,0.3504 -0.78373,0.66715 -0.43121,0.31675 -1.14439,0.99355 -1.5856,1.50306 -0.44119,0.50951 -0.90663,0.99513 -1.03335,1.08005 -0.12674,0.0849 -0.33772,0.51955 -0.46857,0.96528 -0.13086,0.44573 -0.37441,0.84908 -0.54247,0.89666 -0.52869,0.14964 -0.36544,5.46189 0.18965,6.16749 0.26722,0.33967 0.49293,0.90866 0.50064,1.26455 0.008,0.35589 0.15858,0.68748 0.3333,0.73691 0.17471,0.0494 0.42122,0.41764 0.54805,0.81903 0.12683,0.40137 0.34962,0.79936 0.49506,0.88428 0.14545,0.0849 0.37032,0.4164 0.50065,0.73578 0.13033,0.31938 0.37109,0.61836 0.5355,0.6649 0.16441,0.0465 0.3005,0.2018 0.30122,0.34539 8e-4,0.1436 0.22921,0.46104 0.50622,0.70428 0.27702,0.24323 0.50887,0.55525 0.51459,0.69415 0.006,0.1389 0.23396,0.38755 0.50621,0.55239 0.27226,0.16484 0.49367,0.42031 0.49367,0.56703 0,0.14673 0.21099,0.46274 0.46857,0.70315 1.16952,1.09157 1.36588,1.5975 1.47542,3.80265 0.091,1.83212 0.0107,2.37933 -0.40859,2.76423 -0.28755,0.26394 -0.52296,0.60275 -0.52296,0.75265 0,0.14991 -0.25444,0.50354 -0.56479,0.78641 -0.31036,0.28287 -0.78805,0.72291 -1.06264,0.97766 -0.83437,0.77412 -4.05928,2.97616 -4.96736,3.39201 -0.46952,0.21501 -1.13819,0.39039 -1.48519,0.39039 -0.34698,0 -0.68514,0.0766 -0.75305,0.16988 -0.0679,0.0933 -0.83986,0.20685 -1.71529,0.25201 -1.3241,0.0684 -1.80996,0.0154 -2.88949,-0.31164 -1.48889,-0.45121 -1.47166,-0.41482 -2.08344,-4.35954 -0.36732,-2.36838 -0.81386,-3.06501 -2.08065,-3.24913 -0.71165,-0.10343 -2.62733,0.37915 -2.62733,0.66153 0,0.10907 -0.12357,0.19801 -0.27333,0.19801 -0.14974,0 -0.55541,0.29474 -0.90227,0.65477 -1.78617,1.85393 -1.74138,4.13904 0.10877,5.52172 0.3977,0.29721 0.80824,0.64439 0.91203,0.77178 0.10379,0.12738 0.40907,0.42787 0.67776,0.66827 0.30156,0.26984 0.48809,0.89207 0.48809,1.62569 0,1.49357 -0.50511,1.7554 -3.54075,1.83832 -1.11262,0.0304 -2.40219,0.12744 -2.86578,0.21601 -0.4636,0.0886 -1.29703,0.25204 -1.85335,0.36226 -0.5563,0.11023 -1.2391,0.24128 -1.51727,0.29139 -1.53428,0.27649 -3.70947,1.15282 -3.70947,1.49518 0,0.17472 0.35408,0.3066 0.9971,0.37127 0.85426,0.0859 1.63465,0.41246 3.39849,1.42318 0.17899,0.10257 0.32967,0.31133 0.3361,0.46352 0.006,0.15219 0.23005,0.45036 0.49505,0.66265 0.26502,0.2123 0.48821,0.62982 0.49785,0.92703 0.009,0.29721 0.23621,0.818 0.50343,1.15768 0.26722,0.33967 0.49293,0.91264 0.50064,1.27354 0.0192,0.84994 0.85357,0.88449 2.03743,0.0844 1.60423,-1.08422 4.51739,-2.35056 5.64371,-2.45372 3.28287,-0.30067 3.79208,0.26375 3.81128,4.22679 0.011,2.24756 0.14192,3.20604 0.50065,3.66202 0.26722,0.33967 0.50883,0.7572 0.53689,0.92703 h 8e-4 c 0.0463,0.28009 0.0642,0.27684 0.19385,-0.0281 0.0786,-0.18491 0.36051,-0.41941 0.62754,-0.5209 0.26702,-0.10148 0.48942,-0.26201 0.49228,-0.35776 0.003,-0.0958 0.39576,-0.34388 0.87298,-0.55128 1.17995,-0.51279 3.70744,-0.53282 4.78746,-0.0383 0.40655,0.18617 0.73911,0.40784 0.73911,0.49277 0,0.21217 0.58126,0.19432 0.87996,-0.0271 0.13451,-0.0997 0.2784,-1.50703 0.32074,-3.12762 0.0716,-2.73824 0.13355,-3.00145 0.87438,-3.71602 0.4621,-0.44571 1.06212,-0.79235 1.42801,-0.82466 0.80853,-0.0713 2.22847,0.27345 2.22847,0.54114 0,0.11302 0.1486,0.20589 0.33051,0.20589 0.1819,0 0.43302,0.19061 0.55782,0.42414 0.30822,0.57672 1.47264,0.92735 1.47264,0.44327 0,-0.27013 1.44762,-0.71328 2.33167,-0.71328 0.74105,0 3.06242,1.00966 3.06242,1.33205 0,0.1123 0.30347,0.43187 0.67356,0.7099 l 0.67217,0.50627 8e-4,-1.00466 c 5.7e-4,-0.55201 0.22569,-1.48918 0.50064,-2.08358 0.27493,-0.5944 0.50264,-1.55462 0.50621,-2.13309 0.006,-1.10425 0.7975,-2.49267 1.64417,-2.88348 1.594,-0.73575 3.32888,-0.54877 4.30635,0.46576 0.32189,0.33412 0.62318,0.59042 0.66938,0.56927 0.0461,-0.0211 0.26142,-0.93754 0.47833,-2.03632 0.46449,-2.35305 0.69421,-2.70797 1.74875,-2.69898 0.86602,0.007 2.28426,0.889 2.28426,1.4198 0,0.55648 0.27706,0.23149 0.82278,-0.96641 0.28928,-0.63497 0.5256,-1.58352 0.52574,-2.1072 1.8e-4,-0.60314 0.24288,-1.21124 0.66241,-1.65944 0.5731,-0.61223 0.79689,-0.70766 1.65811,-0.70766 0.54745,0 1.08553,0.0863 1.19512,0.19239 0.10961,0.10614 0.13351,-0.88324 0.053,-2.19946 -0.18155,-2.97003 0.0361,-3.57459 1.5075,-4.17616 0.61295,-0.25061 1.39036,-0.45565 1.72784,-0.45565 0.66953,0 0.79365,-0.16353 0.29842,-0.39377 -0.17352,-0.0807 -0.78031,-0.57769 -1.34851,-1.10367 -1.02343,-0.94732 -1.03336,-0.97931 -1.03336,-3.44038 0,-2.10491 -0.09,-2.54831 -0.58989,-2.90036 -0.81696,-0.57535 -2.39876,-1.21463 -3.74295,-1.51318 -2.10125,-0.46671 -4.53143,-1.55343 -5.47777,-2.45035 -1.17206,-1.11085 -0.68561,-2.68256 1.2788,-4.13679 0.42788,-0.31676 0.77676,-0.64174 0.77676,-0.72228 0,-0.0805 0.19075,-0.23879 0.42255,-0.35101 0.23179,-0.11221 1.27424,-0.69037 2.31634,-1.2848 1.04207,-0.59443 2.37338,-1.32397 2.95921,-1.62119 1.02145,-0.51821 1.05988,-0.58475 0.92458,-1.62118 -0.21421,-1.64101 -1.02663,-3.29851 -2.10437,-4.29655 -0.2596,-0.2404 -0.47134,-0.52563 -0.47134,-0.6334 0,-0.10775 -0.45614,-0.4831 -1.01245,-0.83478 -0.55631,-0.35168 -1.01105,-0.7304 -1.01105,-0.84154 0,-0.11112 -0.14071,-0.26809 -0.31237,-0.34876 -0.17167,-0.0807 -0.46035,-0.84175 -0.64148,-1.69093 -0.35911,-1.68346 -0.81389,-2.65971 -1.60234,-3.4359 -0.40302,-0.39675 -0.71365,-0.50176 -1.48518,-0.50176 z m -160.80606,18.06484 c -1.89752,0 -3.13847,0.46913 -4.34959,1.64368 -0.42527,0.41243 -0.91533,0.87071 -1.08914,1.01817 -0.67317,0.57112 -0.40425,0.69364 1.34853,0.61652 1.31564,-0.0579 1.91586,-0.002 2.86579,0.26664 0.66089,0.18704 1.20209,0.4253 1.20209,0.52877 0,0.10347 0.1819,0.27161 0.40442,0.37352 0.59139,0.27081 2.35216,0.21616 3.17258,-0.0979 1.08507,-0.41534 2.49205,-1.51733 2.49205,-1.95194 0,-0.21334 -0.34139,-0.56925 -0.75863,-0.79091 -1.60469,-0.85253 -2.25526,-1.14305 -2.5562,-1.14305 -0.17159,0 -0.50128,-0.10437 -0.73213,-0.23176 -0.26386,-0.14559 -1.0062,-0.23175 -1.99977,-0.23175 z m 116.94492,14.85282 c -0.20497,8e-4 -0.4032,0.0161 -0.59268,0.0461 -0.68479,0.10867 -2.07788,1.0787 -2.07788,1.44681 10e-6,0.14696 -0.15687,0.33921 -0.34723,0.42639 -0.19037,0.0872 -0.4419,0.5297 -0.55922,0.98329 -0.1996,0.77181 -0.1715,0.8156 0.43092,0.69077 0.92728,-0.19216 2.94324,-0.15534 3.09728,0.0563 0.0721,0.0991 0.35066,0.18001 0.61918,0.18001 0.26853,0 0.58209,0.11061 0.69588,0.24638 0.19597,0.23387 0.74168,-0.26834 1.35827,-1.24993 0.10667,-0.16982 0.38213,-0.41376 0.61221,-0.54114 0.98193,-0.54365 0.90547,-0.88949 -0.33608,-1.51881 -0.99606,-0.50487 -2.0125,-0.7703 -2.90065,-0.76615 z m 135.89675,2.77098 c -0.0912,-0.002 -0.17964,8.1e-4 -0.25938,0.008 -0.50251,0.0441 -0.59263,0.29257 -0.67497,1.86308 l -0.0948,1.81244 h 1.22719 c 1.37619,0 3.38716,0.62513 4.17387,1.2983 0.25668,0.21964 0.59199,0.39939 0.74608,0.39939 0.47914,0 0.30763,-1.6209 -0.26357,-2.49084 -0.98745,-1.50387 -1.35267,-1.75147 -4.10135,-2.77324 -0.17804,-0.0662 -0.47936,-0.1108 -0.75305,-0.11701 z m -262.27575,7.68518 -0.68891,0.69191 c -0.3789,0.38089 -0.68891,0.82127 -0.68891,0.97879 0,0.1575 -0.18907,0.37363 -0.41976,0.47926 -0.29746,0.13623 -0.419,0.87405 -0.42114,2.53922 -0.002,2.40228 0.0206,2.45761 1.59535,3.93091 0.20424,0.19107 0.48853,0.34764 0.63173,0.34764 0.14319,0 0.3204,-0.81691 0.39466,-1.8147 0.14888,-2.00052 0.58782,-2.98117 1.79895,-4.02428 0.91413,-0.7873 1.04169,-1.59808 0.29705,-1.88108 -0.27816,-0.1057 -0.51408,-0.27101 -0.52436,-0.36676 -0.0102,-0.0958 -0.45768,-0.33316 -0.9957,-0.52764 z m 41.1348,2.81486 c -0.0311,3.9e-4 -0.0604,4.7e-4 -0.0879,0.002 -0.66469,0.0432 -0.80215,0.1546 -0.89111,0.72116 -0.0578,0.36826 0.13155,1.1025 0.42115,1.63132 0.77739,1.41948 0.62121,3.46361 -0.35561,4.64642 -0.23573,0.28544 -0.2049,0.29171 0.39884,0.0777 0.87865,-0.31155 2.2048,-1.13569 2.60919,-1.62119 0.94246,-1.13146 1.24672,-1.91723 1.24672,-3.22212 v -1.48281 l -1.32203,-0.40052 c -0.69363,-0.21021 -1.55234,-0.35794 -2.0193,-0.35213 z m 180.33385,2.13758 c -0.26646,0 -0.87283,0.53242 -1.84777,1.6212 -1.32862,1.48377 -1.88285,4.36532 -1.02777,5.34395 0.29173,0.3339 0.5412,0.83165 0.55363,1.10592 0.0218,0.48253 0.0385,0.47543 0.53411,-0.19688 0.28167,-0.38214 0.63522,-0.97213 0.78513,-1.31181 0.47999,-1.08759 2.53891,-3.28308 3.40268,-3.62826 0.59653,-0.2384 0.57176,-0.71255 -0.0697,-1.3613 -0.85086,-0.86053 -1.90572,-1.57282 -2.33028,-1.57282 z m -100.26341,2.95325 c -0.2498,0.0174 -0.50236,0.23919 -1.13097,0.8134 -1.34696,1.23034 -1.91639,2.46806 -1.61767,3.51464 0.52229,1.82982 0.63388,2.07225 1.07938,2.36484 0.25502,0.16751 0.47843,0.44548 0.49785,0.61765 0.0219,0.19448 0.18268,0.0987 0.42254,-0.25313 0.21237,-0.3115 0.49963,-0.61822 0.63871,-0.68178 0.13907,-0.0636 0.2524,-0.31942 0.2524,-0.56815 0,-0.50954 0.76715,-1.21989 2.00257,-1.85407 0.78155,-0.40119 0.80769,-0.4683 0.42674,-1.12054 -0.22308,-0.38195 -0.40583,-0.85482 -0.40583,-1.04967 0,-0.19485 -0.2228,-0.48882 -0.49505,-0.65365 -0.27226,-0.16485 -0.50052,-0.38663 -0.50622,-0.49276 -0.006,-0.10615 -0.29155,-0.32157 -0.63591,-0.47928 -0.22878,-0.10477 -0.37865,-0.16799 -0.52854,-0.1575 z m -103.44296,0.28913 0.13945,2.58647 c 0.0764,1.42239 0.2992,2.72491 0.49506,2.89474 0.19588,0.16984 0.63837,0.58736 0.98455,0.92704 0.70017,0.68701 2.18983,1.41129 3.70111,1.80007 1.93863,0.49871 2.88036,0.18338 1.65951,-0.55577 -0.27226,-0.16484 -0.49506,-0.53472 -0.49506,-0.82129 0,-0.28656 -0.18579,-0.67291 -0.41279,-0.8584 -0.26609,-0.21743 -0.43179,-1.1495 -0.46576,-2.62473 l -0.053,-2.28834 -1.26206,-0.5299 c -1.04602,-0.43875 -1.52257,-0.52989 -2.77654,-0.52989 z m 243.80643,3.55177 c -1.18221,-10e-6 -3.84987,0.81043 -4.19199,1.27354 -0.10978,0.14861 -0.34164,0.27001 -0.51459,0.27001 -0.51529,0 -0.35647,1.0272 0.19106,1.2353 0.27815,0.10571 0.51166,0.34023 0.51737,0.5209 0.006,0.18067 0.23257,0.46294 0.50483,0.62777 0.27225,0.16484 0.49506,0.56023 0.49506,0.87866 0,0.31843 0.14066,0.61854 0.31238,0.66716 0.1717,0.0486 0.41997,0.71557 0.55085,1.48168 0.13086,0.76609 0.27225,1.37311 0.31516,1.34892 0.59951,-0.33781 1.98018,-1.71547 2.26891,-2.26471 0.20604,-0.39193 0.43192,-1.91141 0.50204,-3.37626 l 0.12691,-2.66297 z m -104.34104,0.67502 c -0.0635,0.002 -0.12805,0.009 -0.19245,0.0203 -0.78498,0.13805 -0.93137,0.53704 -0.54667,1.48956 0.18346,0.45403 0.26099,1.43392 0.17154,2.17696 -0.0894,0.74304 -0.0562,1.35117 0.0753,1.35117 0.6925,0 1.96178,-0.96816 2.44464,-1.86419 0.50714,-0.94105 0.50454,-1.06326 -0.0377,-1.79669 -0.71987,-0.97379 -1.30069,-1.39634 -1.9147,-1.37706 z m 77.70669,0.0968 c -0.332,0 -1.06487,0.7411 -1.78362,1.80456 -0.58271,0.86219 -0.7573,3.51935 -0.24126,3.6654 0.16441,0.0465 0.39636,0.32342 0.51598,0.6154 0.11961,0.29196 0.40163,0.56039 0.62754,0.59627 0.57877,0.092 0.90632,-0.18907 0.91203,-0.78527 0.01,-0.96012 1.30002,-2.43565 2.7863,-3.18613 0.65477,-0.33062 0.57331,-0.58768 -0.48531,-1.54694 -0.66027,-0.59832 -1.7923,-1.16329 -2.33166,-1.16329 z m -91.02458,5.71297 c -0.68923,0.0111 -1.34599,0.24611 -1.88681,0.6964 -0.71023,0.59134 -0.7213,0.65335 -0.23289,1.38942 0.28121,0.42381 0.65251,0.89097 0.82418,1.03843 0.17166,0.14746 0.31099,0.39425 0.31099,0.54902 0,0.15475 0.2228,0.41681 0.49506,0.58165 0.27225,0.16484 0.5005,0.42577 0.50621,0.57939 0.0138,0.35971 0.68473,0.17781 0.68473,-0.18563 0,-0.15067 0.11472,-0.326 0.2538,-0.38927 0.13906,-0.0632 0.4496,-0.61391 0.69029,-1.22292 0.87964,-2.22573 0.87903,-2.21091 -0.0182,-2.65398 -0.5366,-0.26501 -1.09136,-0.39114 -1.62743,-0.38251 z m -61.20506,11.8287 -1.22441,0.73354 c -0.67322,0.40375 -1.27102,0.79106 -1.329,0.85953 -0.058,0.0685 -0.43287,0.17041 -0.83254,0.22726 -0.55588,0.0791 -0.88303,0.003 -1.39315,-0.32627 -0.36678,-0.23669 -0.72427,-0.56931 -0.79489,-0.73915 -0.1068,-0.25702 -0.26803,-0.20578 -0.95805,0.30827 -1.16179,0.86551 -2.03217,1.16706 -2.81418,0.97541 -0.88958,-0.21802 -2.0386,-0.0424 -2.7849,0.42414 -1.70483,1.06586 -2.13503,1.2302 -2.74446,1.05416 -0.32355,-0.0935 -1.12259,-0.64878 -1.77526,-1.23529 -1.35068,-1.21381 -2.19629,-1.6552 -3.58258,-1.86983 -3.45594,-0.53506 -6.43888,1.6411 -6.77886,4.94569 -0.077,0.74815 0.006,1.44253 0.18407,1.54357 0.17792,0.10103 0.42526,0.49652 0.54945,0.87865 0.1242,0.38214 0.36095,0.83371 0.52574,1.00355 0.16481,0.16984 0.62779,0.65544 1.02918,1.08004 0.40139,0.42459 1.06947,0.98054 1.48519,1.2353 1.50655,0.92319 1.73687,1.31387 1.45451,2.47059 -0.14512,0.59443 -0.35639,2.6715 -0.46857,4.61606 -0.18178,3.15067 -0.14464,3.55161 0.33887,3.67552 0.71887,0.18422 0.73855,2.69342 0.0279,3.59676 -0.26723,0.33968 -0.48803,0.94382 -0.49088,1.34218 -0.003,0.39834 -0.15763,0.76768 -0.34305,0.82016 -0.55483,0.15702 -0.3964,0.54027 0.18128,0.43876 1.56343,-0.27474 2.51108,1.3368 1.82964,3.11187 -0.19561,0.50951 -0.47047,1.29099 -0.6108,1.73707 -0.14034,0.44608 -0.43766,0.89515 -0.65962,0.99679 -0.22196,0.10165 -0.40303,0.31443 -0.40303,0.47364 0,0.44083 -2.90633,2.40259 -4.93668,3.33238 -0.99367,0.45506 -1.80592,0.90963 -1.80592,1.00917 -2e-5,0.18615 1.54222,0.54257 3.03312,0.7009 0.73572,0.0781 0.85619,0.18368 0.94689,0.83478 0.0677,0.48541 -0.0793,0.87484 -0.42115,1.11379 -0.28897,0.20197 -0.52574,0.50377 -0.52574,0.67053 0,0.16677 -0.22667,0.40701 -0.50483,0.5344 -0.27815,0.12738 -0.50621,0.33622 -0.50621,0.46464 0,0.12844 -0.13881,0.27271 -0.30819,0.32064 -0.16939,0.0479 -0.62,0.3821 -1.00268,0.74253 -0.38267,0.36043 -1.06492,0.83718 -1.51587,1.05866 l -0.81999,0.40276 1.16026,0.25315 c 1.45365,0.31744 2.67593,0.31979 5.29508,0.009 l 2.06392,-0.24526 0.78094,0.43764 c 0.66654,0.37366 0.75781,0.56235 0.61778,1.28705 -0.23873,1.23555 -0.73202,2.66195 -1.02778,2.97236 -0.2239,0.23502 -0.11663,0.25608 0.83673,0.16876 0.60148,-0.0551 1.76264,-0.26306 2.5813,-0.46239 0.81867,-0.19934 1.74939,-0.36226 2.06671,-0.36226 0.94056,-1e-5 1.74162,1.08631 1.79338,2.43234 0.0252,0.65753 0.10969,1.04443 0.18826,0.85953 0.0786,-0.1849 0.36194,-0.41941 0.62895,-0.52089 0.26703,-0.10148 0.48935,-0.26201 0.49506,-0.35776 0.006,-0.0958 0.39901,-0.30423 0.87298,-0.4624 1.11821,-0.37316 1.50321,-0.19579 1.86869,0.86066 0.63198,1.82685 0.87228,2.30667 1.24253,2.47622 0.21346,0.0978 0.40363,0.31981 0.42255,0.4939 h 8e-4 c 0.0204,0.18702 0.14239,0.10581 0.29984,-0.19914 0.14654,-0.28385 0.43475,-0.59336 0.64008,-0.6874 0.20535,-0.094 0.3778,-0.34823 0.38351,-0.56477 0.006,-0.21654 0.38545,-0.58799 0.8423,-0.82578 0.81731,-0.42541 0.84287,-0.42763 1.65114,-0.15413 0.45181,0.15287 1.17382,0.53662 1.60372,0.85278 0.4299,0.31616 0.89568,0.57597 1.03475,0.57827 0.13908,0.002 0.25721,0.1259 0.26077,0.27451 0.0114,0.41276 1.32355,-0.41223 1.3332,-0.83815 0.004,-0.18501 0.23503,-0.43965 0.51318,-0.56703 0.27816,-0.12737 0.50623,-0.29949 0.50623,-0.38138 0,-0.14195 0.76887,-0.3364 1.3304,-0.3364 0.14513,0 0.77649,0.20787 1.40429,0.46127 0.6278,0.2534 1.25547,0.46237 1.39454,0.46352 0.13908,8e-4 0.25381,0.0715 0.25381,0.15638 0,0.0849 0.30269,0.29368 0.67356,0.46351 0.61068,0.27966 0.67554,0.28296 0.68055,0.0383 0.0106,-0.51983 1.22486,-2.56803 1.55212,-2.61797 0.18166,-0.0277 0.80269,0.14191 1.3792,0.37688 2.5223,1.02799 2.92214,1.15011 4.00792,1.2308 0.63079,0.0469 1.1463,0.14557 1.1463,0.21938 0,0.0738 0.3414,0.12931 0.75864,0.12263 0.41727,-0.006 0.56927,-0.0472 0.33748,-0.09 -0.2318,-0.0428 -0.42323,-0.33328 -0.42394,-0.64465 -8e-4,-0.31136 -0.22921,-0.76481 -0.50622,-1.00804 -0.61488,-0.53987 -0.66736,-1.88527 -0.0809,-2.05432 0.2318,-0.0669 1.65734,-0.15703 3.1684,-0.20139 l 2.74725,-0.081 -0.62336,-0.54002 c -0.34267,-0.29722 -0.7329,-0.64553 -0.8674,-0.77291 -0.13451,-0.12738 -0.44591,-0.28648 -0.69169,-0.35439 -0.24578,-0.0679 -0.44626,-0.22448 -0.44626,-0.34764 0,-0.12316 -0.11473,-0.22457 -0.25381,-0.22501 -0.3051,-8e-4 -1.43219,-0.88125 -1.43219,-1.1183 0,-0.40014 1.1459,-0.73352 2.52413,-0.73352 0.7748,0 1.51026,-0.0461 1.633,-0.10238 0.12273,-0.0562 -0.15648,-0.32859 -0.61917,-0.6064 -0.46271,-0.2778 -0.84092,-0.57121 -0.84092,-0.6514 0,-0.0802 -0.22806,-0.2318 -0.50621,-0.33751 -0.27815,-0.10571 -0.50483,-0.31679 -0.50483,-0.46914 0,-0.15236 -0.11828,-0.30018 -0.26217,-0.32852 -0.14389,-0.0283 -0.5049,-0.34074 -0.80326,-0.69414 -0.53964,-0.63923 -0.53806,-0.64538 0.42255,-1.17906 0.5311,-0.29505 1.34822,-0.58077 1.81569,-0.63452 0.61579,-0.0708 0.84928,-0.20046 0.84928,-0.47139 0,-0.20567 -0.13659,-0.41274 -0.30401,-0.46015 -0.67979,-0.19239 -2.73051,-2.30223 -2.73051,-2.80923 0,-0.45687 0.15047,-0.55992 1.01243,-0.69753 1.10688,-0.17669 1.33592,-0.58755 0.50483,-0.90341 -0.27815,-0.10571 -0.50483,-0.28804 -0.50483,-0.40501 0,-0.11698 -0.11473,-0.21248 -0.25381,-0.21263 -0.13906,-1.6e-4 -0.76603,-0.34611 -1.39454,-0.76841 -0.99883,-0.67112 -1.11807,-0.85095 -0.9441,-1.43219 0.11992,-0.40066 0.0376,-0.7961 -0.20639,-0.99453 -0.61204,-0.4978 -1.79479,-1.59917 -2.39722,-2.23209 -0.40896,-0.42965 -0.53625,-1.0903 -0.53411,-2.77886 0.002,-1.95675 0.081,-2.26961 0.67634,-2.67872 0.55848,-0.38379 0.64063,-0.62186 0.47694,-1.38944 -0.10865,-0.50951 -0.41304,-1.18852 -0.67635,-1.50868 -0.60928,-0.74078 -0.61878,-2.46621 -0.0167,-3.0995 0.67868,-0.71391 1.24963,-2.27511 1.5047,-4.11541 0.22386,-1.61493 0.86899,-2.47028 1.86451,-2.47059 0.54116,-1.6e-4 2.72712,-0.92883 3.2702,-1.38943 1.64302,-1.39347 2.0547,-2.93397 1.13655,-4.25604 -1.68003,-2.41911 -4.1989,-2.96582 -7.29067,-1.58182 -0.53384,0.23899 -1.01868,0.43428 -1.07659,0.43428 -0.46611,0 -1.9511,-0.86299 -2.53388,-1.47268 -0.48215,-0.50441 -1.33939,-0.77088 -1.80174,-0.55915 -0.21466,0.0983 -0.50958,0.17888 -0.65544,0.17888 -0.3435,0 -1.28577,-1.03226 -1.28577,-1.40856 0,-0.39237 -0.2234,-0.36771 -1.56886,0.17326 -0.63359,0.25475 -1.351,0.46352 -1.59396,0.46352 -0.6271,0 -1.55252,-0.50912 -1.84916,-1.01705 z m 55.8305,0.52316 c -1.09852,0 -1.1484,0.0303 -0.70145,0.42638 1.26483,1.12077 1.822,2.36601 1.24811,2.79124 -0.28388,0.21036 -1.31783,0.23326 -2.14481,0.0472 -0.322,-0.0725 -1.11647,-0.23454 -1.76548,-0.36001 -0.64904,-0.12548 -1.71193,-0.33469 -2.36097,-0.46578 -2.82487,-0.57056 -6.98725,-1.14375 -7.29345,-1.00354 -0.0679,0.0312 1.01468,0.59895 2.40558,1.26119 2.24219,1.06754 2.52831,1.27084 2.52831,1.79106 0,0.72393 -0.74598,0.88088 -2.54505,0.53664 -0.68528,-0.13111 -1.58843,-0.2385 -2.00674,-0.2385 -0.41829,0 -1.30477,-0.10438 -1.97048,-0.23176 -1.65488,-0.31662 -5.60485,-0.30206 -7.1066,0.0259 -0.64736,0.14137 -1.09837,0.31497 -1.00267,0.38589 0.0957,0.0709 1.79998,0.12939 3.78757,0.12939 4.1758,0 5.1124,0.17347 5.1124,0.95066 0,0.3931 -1.3439,1.42826 -2.37352,1.82819 -0.42076,0.16344 -5.31981,3.19985 -6.22801,3.86002 -1.30155,0.94611 -2.86161,2.40423 -2.86161,2.67424 0,0.12174 -0.22806,0.3083 -0.50622,0.41401 -0.27815,0.10572 -0.50622,0.38413 -0.50622,0.61878 0,0.23464 -0.2264,0.6253 -0.50342,0.86853 -0.27701,0.24323 -0.50412,0.60237 -0.50483,0.79766 -0.002,0.42778 0.30943,0.36213 2.43068,-0.50965 0.82654,-0.33967 2.15303,-0.85976 2.94807,-1.15542 2.47035,-0.91867 8.41753,-2.47285 9.46197,-2.47285 0.32358,0 1.02376,-0.10377 1.55492,-0.23063 1.46281,-0.34937 5.9267,-0.30597 8.33099,0.081 4.10727,0.66107 6.73957,1.60903 12.1897,4.39329 2.99732,1.53122 2.95023,1.5098 4.64383,2.1297 2.04024,0.74678 4.67311,1.44699 5.91285,1.57169 0.58709,0.0591 1.15348,0.17138 1.25928,0.24976 0.10578,0.0784 2.51848,0.14176 5.36062,0.14176 3.92811,0 5.39909,-0.0553 6.13319,-0.23063 0.53113,-0.12686 1.29495,-0.23019 1.69716,-0.23064 0.40219,-5.2e-4 1.16103,-0.10057 1.686,-0.22163 0.52498,-0.12108 1.94075,-0.43579 3.14609,-0.69978 2.2917,-0.5019 2.62639,-0.5882 4.98967,-1.2803 0.79741,-0.23352 1.58109,-0.42414 1.74178,-0.42414 0.16068,0 0.3426,-0.0522 0.40442,-0.11588 0.36505,-0.37613 12.80346,-3.43588 13.96774,-3.43588 0.26045,0 0.47414,-0.0693 0.47414,-0.15413 0,-0.0849 0.16108,-0.15414 0.35839,-0.15414 0.19733,0 1.14551,-0.16452 2.10716,-0.36563 0.96166,-0.20112 2.5836,-0.52004 3.6035,-0.70878 1.0199,-0.18875 2.25643,-0.44175 2.74864,-0.5614 0.4922,-0.11964 1.18246,-0.21714 1.534,-0.21714 0.35154,0 0.78328,-0.06 0.95945,-0.13274 0.17615,-0.0728 1.45826,-0.28999 2.84904,-0.48266 1.39078,-0.19264 2.83239,-0.40465 3.20327,-0.47138 3.14471,-0.56586 10.17926,-0.76474 12.96366,-0.36677 1.71194,0.24469 3.30211,0.60702 3.72482,0.84828 0.0927,0.0529 0.33933,0.12358 0.54666,0.15751 1.15289,0.18886 9.90545,3.98043 9.90545,4.29092 0,0.0942 0.14174,0.171 0.31376,0.171 0.63291,0 5.4178,4.00138 5.4178,4.53056 0,0.12118 0.22781,0.41942 0.50482,0.66264 0.27701,0.24324 0.50411,0.65454 0.50483,0.91354 8e-4,0.259 0.15972,0.54272 0.35281,0.63115 0.19309,0.0884 0.5019,1.01377 0.68613,2.05546 0.36451,2.06128 -0.0533,5.79473 -0.68055,6.08198 -0.19613,0.0898 -0.35768,0.34036 -0.35839,0.5569 -8e-4,0.21654 -0.22782,0.59268 -0.50483,0.8359 -0.27701,0.24324 -0.50482,0.53274 -0.50482,0.64353 0,0.11079 -0.25304,0.43267 -0.5634,0.71553 -0.31035,0.28287 -0.78771,0.72291 -1.06124,0.97766 -1.8397,1.71343 -7.33922,4.65363 -9.5847,5.12458 -2.41248,0.50597 -3.3945,0.6649 -4.10134,0.6649 -0.43465,0 -1.33404,0.10438 -1.99977,0.23176 -1.6878,0.32278 -12.92406,0.31953 -14.88814,-0.005 -0.74175,-0.12236 -1.80325,-0.2249 -2.35957,-0.2295 -0.5563,-0.004 -1.39116,-0.10815 -1.85474,-0.22951 -0.46359,-0.12136 -1.25113,-0.22326 -1.75015,-0.22614 -0.49899,-0.003 -0.9931,-0.069 -1.0989,-0.14738 -0.10579,-0.0784 -0.67875,-0.19109 -1.27321,-0.25088 -0.59446,-0.0598 -1.31391,-0.163 -1.59815,-0.22951 -0.28424,-0.0665 -2.56437,-0.58325 -5.06777,-1.14755 -2.50339,-0.56428 -4.77985,-1.08949 -5.05801,-1.16779 -0.27815,-0.0783 -1.71976,-0.47052 -3.20325,-0.87078 -1.4835,-0.40025 -2.77307,-0.77415 -2.86579,-0.83141 -0.0927,-0.0572 -0.51014,-0.153 -0.92737,-0.21264 -0.41722,-0.0596 -0.75862,-0.17281 -0.75862,-0.25201 0,-0.0792 -0.14925,-0.144 -0.33191,-0.144 -0.18265,0 -1.07195,-0.20876 -1.97607,-0.46352 -1.52478,-0.42964 -4.13008,-0.65195 -4.07624,-0.34764 0.0112,0.0637 0.65535,0.35694 1.43219,0.6514 1.55823,0.59066 5.22559,2.44574 7.19165,3.63839 0.695,0.4216 1.34955,0.80133 1.45591,0.84379 0.55659,0.22219 4.59725,3.10595 5.74412,4.09966 1.03717,0.89865 2.57472,1.45918 4.00511,1.45918 0.59113,0 1.61994,0.10438 2.28567,0.23176 0.66572,0.12738 1.80817,0.23063 2.53947,0.23063 0.73128,0 1.63553,0.0752 2.00813,0.1665 0.3726,0.0913 1.91743,0.2354 3.43337,0.32065 1.51593,0.0853 3.59045,0.21234 4.61035,0.28239 3.04854,0.20935 20.11727,0.11633 20.61691,-0.11252 0.23175,-0.10615 0.78574,-0.1935 1.22999,-0.1935 0.71062,0 1.71627,-0.18732 3.44034,-0.64014 0.27815,-0.0731 0.84621,-0.19979 1.26345,-0.2824 0.41723,-0.0826 0.75863,-0.22124 0.75863,-0.30826 0,-0.087 0.22806,-0.15863 0.50622,-0.15863 0.27815,0 0.50622,-0.0524 0.50622,-0.117 0,-0.0645 0.34483,-0.29033 0.767,-0.50177 1.25174,-0.62689 3.95353,-2.28047 3.95353,-2.41997 0,-0.071 0.41602,-0.33423 0.92597,-0.58503 0.50995,-0.2508 1.107,-0.59772 1.32621,-0.77065 0.51607,-0.4071 2.78049,-2.53906 3.12238,-2.93974 0.14491,-0.16983 0.51196,-0.57084 0.81581,-0.89216 0.30387,-0.32132 0.55223,-0.69289 0.55223,-0.82578 0,-0.13289 0.20532,-0.46144 0.45603,-0.72903 0.62285,-0.6648 1.22304,-1.70821 1.56746,-2.72486 0.15822,-0.46705 0.46441,-1.09221 0.68053,-1.38942 0.26086,-0.35874 0.39394,-1.96842 0.39466,-4.78707 8e-4,-3.50535 -0.0923,-4.36317 -0.53689,-4.92093 -0.29619,-0.37158 -0.5383,-0.90176 -0.5383,-1.17793 0,-0.27617 -0.22806,-0.75156 -0.50622,-1.05642 -0.27816,-0.30485 -0.50622,-0.76119 -0.50622,-1.01366 0,-0.25247 -0.13982,-0.49833 -0.31099,-0.54678 -0.17118,-0.0484 -0.41243,-0.30077 -0.53689,-0.56026 -0.12447,-0.2595 -0.43913,-0.65762 -0.69867,-0.88542 -0.25953,-0.2278 -0.47343,-0.53541 -0.47415,-0.68402 -8e-4,-0.1486 -0.15343,-0.27113 -0.33887,-0.27113 -0.18543,0 -0.33747,-0.0901 -0.33747,-0.20026 0,-0.11013 -0.6828,-0.67601 -1.51726,-1.2578 -0.83447,-0.58181 -1.51727,-1.08764 -1.51727,-1.12392 0,-0.0363 -0.71671,-0.49499 -1.59256,-1.01929 -1.42092,-0.85056 -2.35646,-1.34915 -4.64522,-2.47735 -1.61824,-0.79768 -8.72487,-3.02974 -9.64606,-3.02974 -0.19992,0 -0.76707,-0.0948 -1.25927,-0.21039 -1.34148,-0.31507 -3.07592,-0.57872 -4.77212,-0.72452 -0.83448,-0.0717 -2.04645,-0.20316 -2.69426,-0.29251 -1.84802,-0.25489 -13.29024,-0.2044 -15.51149,0.0686 -1.0199,0.12536 -2.41934,0.22835 -3.10843,0.2295 -0.6891,8e-4 -1.82664,0.11684 -2.52831,0.25652 -0.70168,0.13967 -1.73074,0.34232 -2.28705,0.45002 -2.16318,0.4188 -8.17467,1.78752 -9.77713,2.22646 -0.92718,0.25397 -1.89775,0.50858 -2.15597,0.56589 -0.25823,0.0573 -2.355,0.68141 -4.65917,1.38605 -4.45033,1.36098 -7.17389,2.02075 -9.36852,2.26922 -2.7265,0.3087 -7.60159,0.14284 -9.44106,-0.32063 -0.37088,-0.0934 -0.90163,-0.2103 -1.17978,-0.2599 -0.27815,-0.0496 -0.96096,-0.22691 -1.51727,-0.39488 -0.55631,-0.16796 -1.22817,-0.35363 -1.49216,-0.41177 -1.10966,-0.24438 -2.72068,-1.25422 -2.72353,-1.70669 -8.1e-4,-0.15159 -0.1611,-0.53547 -0.35422,-0.85391 -0.31381,-0.51744 -0.46735,-0.5794 -1.44754,-0.5794 -1.69884,0 -1.90634,-0.20348 -1.90634,-1.87431 0,-0.82719 -0.1295,-1.54128 -0.28866,-1.58632 -0.15915,-0.0451 -0.57658,0.61452 -0.92737,1.46481 -0.61445,1.48938 -0.66798,1.54419 -1.47404,1.50081 -0.59655,-0.0321 -0.92526,-0.17827 -1.14352,-0.50852 -0.16836,-0.25477 -0.49833,-0.67116 -0.73353,-0.92592 -0.23519,-0.25474 -0.70202,-0.77665 -1.03755,-1.1588 -0.96954,-1.1042 -2.62602,-2.28466 -2.75979,-1.96657 -0.0627,0.14895 0.0584,0.51091 0.26914,0.80329 0.43491,0.60346 0.01,1.16328 -0.88135,1.16328 -0.53677,0 -1.78015,-0.57976 -1.80036,-0.83927 -0.0147,-0.18962 -2.6096,-1.60148 -3.84753,-2.0937 -1.55459,-0.61815 -4.85767,-1.38944 -5.94912,-1.38944 z m -76.28286,1.14529 c 0.29341,-0.003 0.50782,0.064 0.89251,0.19688 0.43952,0.15182 1.04627,0.47324 1.34853,0.71441 0.59901,0.47796 0.73882,1.80021 0.23567,2.22983 -0.95372,0.81437 -2.38327,2.33064 -2.38327,2.52797 0,0.12566 -0.19246,0.3483 -0.42674,0.49502 -0.33831,0.21188 -0.51114,0.22815 -0.84229,0.0765 -0.60537,-0.27722 -0.54022,-2.41054 0.0906,-2.96448 0.27702,-0.24324 0.50344,-0.65254 0.50344,-0.90904 v -0.46689 l -0.62476,0.36901 c -0.34333,0.20252 -0.71448,0.54148 -0.82557,0.75378 -0.60327,1.15277 -1.18256,1.92039 -1.48519,1.96658 -0.18784,0.0287 -0.60777,-0.13388 -0.93295,-0.36114 -0.44142,-0.30852 -0.53954,-0.58409 -0.3849,-1.08679 0.11392,-0.3703 0.30409,-1.00295 0.42255,-1.40631 0.27999,-0.9534 1.22744,-1.55073 3.0415,-1.91819 0.70474,-0.14276 1.07742,-0.21448 1.37083,-0.21714 z m 36.31388,2.15783 c 0.3669,0.0118 0.70757,0.0585 0.98873,0.14289 0.99877,0.29967 1.90076,1.08111 1.90076,1.64706 0,0.60593 -0.31261,0.65661 -1.42103,0.2295 -1.92223,-0.74068 -2.69966,-0.40703 -2.40559,1.03505 0.11303,0.55435 0.0644,1.12391 -0.10877,1.26567 -0.2841,0.23248 -0.38371,0.2233 -1.00826,-0.0934 -1.88551,-0.95607 -2.42693,-2.67922 -1.10865,-3.52701 0.72009,-0.46311 2.06212,-0.73514 3.16281,-0.69978 z m -94.11347,1.94633 c -0.81165,0 -1.65868,0.0694 -1.88263,0.15525 -0.22398,0.0858 -0.81774,0.29711 -1.31924,0.46915 -1.04188,0.3574 -0.96845,0.56343 0.45461,1.27693 0.52968,0.26555 0.96225,0.5722 0.96225,0.68064 0,0.10845 0.14223,0.19688 0.31515,0.19688 0.17294,0 0.41416,0.15658 0.53691,0.34764 0.12276,0.19107 0.4665,0.60747 0.76282,0.92591 0.58376,0.62738 1.64895,0.77976 2.43208,0.34764 0.23085,-0.12737 0.60443,-0.23175 0.83114,-0.23175 0.22671,0 0.67828,-0.13441 1.00408,-0.29927 0.48409,-0.24496 0.54951,-0.44957 0.35281,-1.11941 -0.13239,-0.4508 -0.35727,-0.88938 -0.49925,-0.97429 -0.14197,-0.0849 -0.3692,-0.31984 -0.50482,-0.52202 -0.13562,-0.20219 -0.63462,-0.56752 -1.10866,-0.81116 -0.70067,-0.36011 -1.13759,-0.44214 -2.33725,-0.44214 z m 22.45213,3.08712 c -0.16431,0 -0.29843,0.58237 -0.29843,1.2938 0,1.26245 -0.3555,1.92973 -1.55213,2.91724 -0.49079,0.40502 -0.46701,0.46877 0.4323,1.16104 0.52311,0.40266 1.24934,0.99822 1.6135,1.32418 0.64459,0.57699 0.67039,0.58343 0.96222,0.22951 0.16487,-0.19994 0.4473,-0.49265 0.62756,-0.65028 0.46084,-0.403 0.43537,-4.41114 -0.0293,-4.62393 -0.20249,-0.0927 -0.36815,-0.26597 -0.36815,-0.38476 0,-0.31737 -1.03994,-1.2668 -1.38757,-1.2668 z m 49.00003,0.87304 c 0.19278,-0.0195 0.46876,0.046 0.85904,0.18112 0.58565,0.20276 0.77084,0.44914 0.86182,1.14642 0.0637,0.48823 0.20656,0.92888 0.31796,0.97992 0.45706,0.2093 0.92179,-0.14779 0.92179,-0.70878 0,-0.32914 0.16329,-0.79373 0.36259,-1.03279 0.34947,-0.41921 0.3802,-0.42407 0.84369,-0.135 0.26431,0.16483 0.47973,0.48048 0.47973,0.70202 0,0.44537 0.5489,0.77403 1.29413,0.77403 0.26669,0 1.14348,-0.27798 1.94817,-0.61765 1.78501,-0.75347 2.89753,-0.79501 5.45964,-0.20138 2.57525,0.59667 3.77363,1.27262 3.77363,2.12746 0,0.73838 -0.42436,0.9855 -1.19093,0.69415 -0.38296,-0.1455 -0.51614,-0.13957 -0.62058,0.0259 -1.32021,2.0913 -1.77415,2.3541 -3.90751,2.26022 -1.94154,-0.0854 -3.13708,-0.5347 -3.73458,-1.40294 -0.55734,-0.8099 -0.82271,-0.97088 -2.07369,-1.25667 -0.97836,-0.2235 -1.03165,-0.2153 -2.10157,0.31952 -0.66816,0.33398 -1.35129,0.53173 -1.74318,0.50402 -0.35421,-0.0251 -0.99854,0.0436 -1.43218,0.153 -1.23815,0.31215 -3.4264,1.26844 -3.4264,1.49744 0,0.11406 -0.41513,0.38392 -0.92319,0.59964 -1.11631,0.47401 -2.91252,0.51837 -4.09717,0.10126 -0.89953,-0.31674 -2.0593,-1.56577 -2.05973,-2.21858 -1.6e-4,-0.23354 -0.15205,-0.42415 -0.33748,-0.42415 -0.18544,0 -0.33609,0.0611 -0.33609,0.13614 0,0.075 -0.34141,0.16699 -0.75863,0.20362 -0.70446,0.0617 -0.75026,0.0186 -0.64149,-0.59402 0.0644,-0.36281 0.3298,-0.74044 0.58989,-0.83928 0.26011,-0.0989 0.47275,-0.27211 0.47275,-0.38477 0,-0.11265 0.55741,-0.39893 1.23835,-0.63677 1.09979,-0.38412 1.51826,-0.43202 3.74714,-0.43202 2.48045,0 2.52169,0.006 3.6021,0.57827 0.60113,0.31845 1.24741,0.5794 1.43638,0.5794 0.44408,0 0.7656,-0.74881 0.7656,-1.78545 0,-0.58936 0.0887,-0.86074 0.41,-0.89328 z m -64.68027,0.97991 c -0.26317,0 -1.04451,0.16162 -1.7362,0.35889 -0.69171,0.19727 -1.48456,0.40548 -1.7627,0.46239 -0.27816,0.057 -0.7716,0.1733 -1.09611,0.25876 -0.32451,0.0855 -0.85527,0.21531 -1.17979,0.28801 -0.48912,0.10958 -0.60667,0.38271 -0.68611,1.59757 l -0.0962,1.4648 1.08774,0.48714 c 0.59789,0.26769 1.34377,0.48714 1.65812,0.48714 1.17847,0 1.70994,0.71317 1.90912,2.56511 0.16469,1.53136 0.10559,1.84427 -0.45044,2.37046 -0.69825,0.66077 -2.01913,1.05692 -2.61477,0.78416 -0.19431,-0.089 -0.67297,-0.16201 -1.06403,-0.16201 -0.39105,0 -1.0053,-0.10145 -1.36525,-0.22613 -0.40252,-0.13942 -1.43736,-0.22887 -2.68729,-0.23176 -2.18885,-0.005 -2.44652,0.0697 -3.61465,1.06204 -0.78785,0.66925 -0.74312,1.04586 0.14921,1.26455 1.90091,0.46588 3.68334,1.64878 4.1641,2.76311 0.55396,1.28399 0.11629,3.40901 -0.84649,4.10753 -0.48064,0.34875 -0.24238,1.14193 0.34307,1.14193 0.18776,0 1.4698,-0.38866 2.84904,-0.86404 3.09906,-1.06817 4.26048,-1.14548 5.90449,-0.39264 0.97948,0.44853 1.13364,0.64128 1.44615,1.82145 0.37388,1.41194 -0.10987,3.93999 -0.77258,4.04115 -0.18762,0.0287 -0.34027,0.14753 -0.34027,0.26439 0,0.34344 -1.64413,0.94239 -3.15305,1.14867 -0.76918,0.10514 -1.51073,0.27 -1.64697,0.36676 -0.13622,0.0968 -0.24955,0.64244 -0.2524,1.21167 -0.005,0.9535 0.0669,1.05624 0.90366,1.3118 1.47985,0.45198 3.67903,1.51326 4.2938,2.07234 0.61441,0.55877 1.16211,1.53211 1.42243,2.52796 0.39194,1.49945 1.10839,1.20933 1.14073,-0.46238 0.0345,-1.78383 0.67275,-3.00128 1.77107,-3.37626 1.12865,-0.38532 1.65827,-0.2777 3.01081,0.61203 0.77597,0.51044 0.91997,0.7675 0.93854,1.68306 0.0209,1.03108 0.47275,1.62119 1.24254,1.62119 0.17902,0 0.69397,0.17995 1.14352,0.39939 0.67607,0.33001 0.80948,0.54546 0.77258,1.24654 -0.0254,0.48093 -0.30341,1.06701 -0.64289,1.35568 -0.66324,0.56398 -0.48559,1.01255 0.40163,1.01255 1.02859,0 3.46595,0.63171 4.16132,1.07891 0.86312,0.55492 0.8651,1.38967 0.006,2.16121 -0.80455,0.72218 -0.61965,1.0307 0.69865,1.1633 0.54083,0.0544 0.98317,0.16258 0.98317,0.24076 0,0.0781 0.2124,0.14175 0.47134,0.14175 0.25895,0 0.94174,0.2466 1.51727,0.54677 0.94158,0.49109 1.04591,0.6456 1.04591,1.55143 0,0.98757 -0.92241,2.30733 -1.7906,2.5606 -0.39321,0.11471 0.28325,0.59179 0.83952,0.59179 0.58486,0 3.47289,0.64905 4.57549,1.02828 1.03087,0.35454 1.09611,0.43317 1.09611,1.33768 0,0.75853 -0.1683,1.07475 -0.79907,1.4963 l -0.80047,0.5344 0.97618,0.27113 c 0.53695,0.14954 1.16012,0.27227 1.38478,0.27227 0.87351,0 4.05599,0.85978 4.99385,1.34892 0.85058,0.44364 0.98734,0.63918 0.98734,1.41643 0,0.61352 -0.16087,0.96395 -0.50482,1.09468 -0.27816,0.1057 -0.50622,0.28437 -0.50622,0.39713 0,0.11276 -0.24661,0.26813 -0.54806,0.34539 -0.45951,0.11776 -0.40469,0.15658 0.33749,0.24189 0.48688,0.056 0.88553,0.16984 0.88553,0.25314 0,0.0833 0.28495,0.15187 0.63312,0.15187 0.34816,0 0.82064,0.10438 1.05149,0.23176 0.23084,0.12737 0.68698,0.23177 1.01244,0.23177 0.32546,0 0.78018,0.10437 1.01103,0.23175 0.23086,0.12738 0.68559,0.23175 1.01105,0.23175 0.32546,0 0.78468,0.10562 1.0194,0.23515 0.38189,0.21074 0.4881,0.21003 1.01664,-0.009 0.32487,-0.13464 0.66494,-0.43199 0.75583,-0.66039 0.0909,-0.22842 0.33445,-0.64093 0.54109,-0.91692 0.20663,-0.27598 0.54355,-0.72755 0.74887,-1.00354 0.20532,-0.27598 0.48875,-0.77974 0.62893,-1.11942 0.14016,-0.33967 0.42648,-0.81398 0.63731,-1.05304 0.21083,-0.23905 0.3835,-0.66972 0.3835,-0.95741 0,-0.28768 0.153,-0.68247 0.34026,-0.87754 0.65764,-0.68498 1.94068,-5.88475 2.35399,-9.54149 0.17757,-1.57099 0.47928,-3.37727 0.67078,-4.01415 0.1915,-0.6369 0.34657,-1.52302 0.34585,-1.96883 -0.002,-0.79624 -0.0199,-0.81004 -1.00686,-0.81004 -1.43161,0 -5.91769,-0.79994 -6.4916,-1.15766 -0.67752,-0.42231 -0.22214,-1.0512 1.25927,-1.73932 0.83447,-0.38761 1.51726,-0.78374 1.51726,-0.87979 0,-0.096 -1.55729,-0.90107 -3.46124,-1.78881 -3.00088,-1.39921 -4.89581,-2.33424 -8.12043,-4.00741 -0.40915,-0.21229 -1.27096,-0.69716 -1.91471,-1.0778 -0.64375,-0.38063 -1.39808,-0.79978 -1.67624,-0.93153 -0.27816,-0.13174 -0.88492,-0.46882 -1.34852,-0.74928 -0.46358,-0.28044 -1.01223,-0.59397 -1.21882,-0.69641 -0.7886,-0.39101 -9.23327,-5.65515 -9.23327,-5.75572 0,-0.0581 -0.19628,-0.21582 -0.43649,-0.34988 -1.11462,-0.62209 -1.66528,-1.85188 -1.52842,-3.41226 0.0807,-0.92001 0.29838,-1.61115 0.54387,-1.72357 0.22537,-0.1032 0.41,-0.33823 0.41,-0.52315 0,-0.18491 0.22807,-0.42305 0.50621,-0.52877 0.27816,-0.10571 0.50483,-0.27654 0.50483,-0.38026 0,-0.10373 0.77159,-0.55686 1.71389,-1.00692 l 1.71389,-0.81902 -0.22731,-0.94279 c -0.23269,-0.96529 -1.69699,-2.58234 -3.34133,-3.69015 -0.47825,-0.32221 -0.87018,-0.65238 -0.87018,-0.73353 -10e-6,-0.0811 -0.21423,-0.14738 -0.47693,-0.14738 -0.2627,0 -0.55499,-0.0862 -0.64847,-0.19237 -0.0935,-0.10615 -0.18787,0.60524 -0.21058,1.5818 -0.0226,0.97657 -0.196,2.08847 -0.3835,2.47059 -0.1875,0.38214 -0.46075,0.994 -0.60802,1.35906 -0.14728,0.36506 -0.44197,0.74379 -0.65543,0.84154 -0.21346,0.0977 -0.38976,0.28464 -0.39047,0.41626 -8e-4,0.13162 -0.35515,0.44198 -0.78792,0.68966 -0.94648,0.54166 -2.60748,0.61428 -3.51842,0.15413 -0.84955,-0.42914 -1.75992,-1.10575 -1.75992,-1.30843 0,-0.0963 -0.22909,-0.39702 -0.50901,-0.66715 -0.37279,-0.35975 -0.59719,-1.46015 -0.83813,-4.11429 -0.39447,-4.34575 -0.57385,-5.09082 -1.22301,-5.09082 z m 63.74175,8.94859 c 0.54525,0.0649 1.29963,0.62952 2.56596,1.82145 1.27844,1.20332 2.00605,1.51985 2.48088,1.08005 0.11461,-0.10615 0.51029,-0.40116 0.87857,-0.65591 0.36828,-0.25476 0.83619,-0.65413 1.04032,-0.88766 0.20413,-0.23352 0.50767,-0.42526 0.67496,-0.42526 0.16729,0 0.30401,-0.0966 0.30401,-0.21489 0,-0.32584 0.9253,-0.41962 1.50751,-0.153 0.81998,0.3755 0.49033,1.82271 -0.50622,2.22083 -0.10628,0.0424 -0.55727,0.35561 -1.00129,0.69528 -0.44402,0.33967 -0.8904,0.65169 -0.99291,0.69415 -0.17902,0.0741 -0.90858,0.89218 -1.25231,1.40406 -0.11814,0.17592 0.53685,0.43611 2.30519,0.91465 1.35835,0.3676 2.51946,0.72494 2.58129,0.79541 0.20442,0.23303 1.96558,0.13329 2.50041,-0.14176 0.33727,-0.17342 0.61015,-0.74361 0.76143,-1.59193 0.16859,-0.94538 0.41956,-1.42823 0.88135,-1.69769 l 0.64567,-0.37689 0.8423,0.46351 c 0.7957,0.43772 0.83592,0.55144 0.75166,2.08247 l -0.0892,1.62006 -1.24114,0.36788 c -0.96541,0.2858 -1.29146,0.5007 -1.46287,0.9653 -0.12126,0.32868 -0.35784,0.63722 -0.52714,0.68514 -0.16931,0.048 -0.3082,0.4565 -0.3082,0.90791 0,1.38865 -0.30429,1.79498 -1.51865,2.02734 -0.94043,0.17993 -1.11158,0.30183 -1.29971,0.9304 -0.1191,0.3979 -0.2151,1.21764 -0.21476,1.82145 5.8e-4,1.06907 -0.7473,2.98755 -1.37502,3.52702 -0.17157,0.14745 -0.31238,0.36036 -0.31238,0.47252 0,0.11215 -0.40063,0.42527 -0.89111,0.6964 -0.77065,0.42598 -1.10298,0.49287 -2.44464,0.48827 -0.98114,-0.003 -1.80096,-0.10428 -2.22708,-0.27452 -0.94299,-0.37671 -1.85474,-1.16501 -1.85474,-1.60431 0,-0.20343 -0.1822,-0.45401 -0.40441,-0.55577 -0.22221,-0.10175 -0.52213,-0.86173 -0.6666,-1.68982 -0.36623,-2.09935 -0.7501,-3.12811 -1.36944,-3.66764 -0.91177,-0.79427 -1.20869,-1.21074 -1.4043,-1.96996 -0.20281,-0.78714 -1.02076,-1.50417 -1.71669,-1.50417 -0.48055,0 -2.19361,-0.96446 -2.19361,-1.2353 0,-0.0967 -0.22667,-0.27989 -0.50482,-0.40727 -0.36101,-0.16532 -0.50622,-0.56908 -0.50622,-1.40855 0,-0.96542 0.13586,-1.2664 0.75863,-1.68532 0.41723,-0.28066 0.93005,-0.51145 1.13934,-0.5119 0.60742,-0.002 1.24057,0.88228 1.03893,1.45131 -0.20318,0.57337 0.51824,1.71227 1.3555,2.13759 0.32967,0.16747 1.02054,0.27001 1.81709,0.27001 1.45464,0 2.99639,-0.58636 4.15713,-1.58182 0.62009,-0.53183 0.62571,-0.58033 0.0851,-0.8539 -0.31532,-0.15956 -0.57861,-0.45816 -0.58432,-0.66378 -0.006,-0.20561 -0.23396,-0.50905 -0.50622,-0.6739 -0.27226,-0.16483 -0.49506,-0.42578 -0.49506,-0.5794 0,-0.1536 -0.14083,-0.27901 -0.31378,-0.27901 -0.17293,0 -0.42115,-0.15266 -0.55083,-0.33976 -0.12969,-0.1871 -0.42048,-0.42614 -0.64707,-0.5299 -0.57519,-0.26341 -0.9003,-1.51832 -0.51319,-1.98457 0.24311,-0.29283 0.49562,-0.43386 0.82278,-0.3949 z m -79.25324,5.10208 c -0.77257,0 -1.81151,0.44648 -1.81151,0.77853 0,0.14697 -0.21314,0.45476 -0.47414,0.68515 -0.58901,0.51989 -1.03476,3.56579 -0.70983,4.84782 0.13171,0.5197 0.37522,0.90575 0.54248,0.8584 0.16727,-0.0473 0.30541,-0.19107 0.30541,-0.31951 0,-0.12843 0.18934,-0.32449 0.42115,-0.43539 0.23178,-0.11091 0.64921,-0.35334 0.92737,-0.5389 0.64813,-0.43236 2.41321,-0.93603 3.28136,-0.93603 1.43252,0 2.23842,-1.92442 1.31505,-3.13888 -0.63132,-0.83034 -2.67812,-1.80119 -3.79734,-1.80119 z m -35.93875,1.24543 c -0.74753,-0.009 -1.40093,0.199 -2.49205,0.61877 -4.07326,1.56703 -7.11088,5.83756 -8.54854,12.01996 -0.27514,1.18319 -0.64357,2.03579 -0.8186,1.89458 -0.17503,-0.14121 -0.79803,-1.75902 -1.38477,-3.59564 -2.82148,-8.83181 -9.08621,-12.40011 -16.45002,-9.36937 -3.65792,1.5055 -6.87726,4.60108 -9.66837,9.29962 -2.8589,4.81267 -4.08385,10.32884 -3.74993,16.8869 0.23522,4.6193 0.49517,5.35448 3.6551,10.36616 4.66921,7.40542 9.48525,13.2201 18.57949,22.43224 4.25571,4.3109 8.09267,7.84469 8.52763,7.85281 0.43493,0.008 1.59281,-0.94842 2.57153,-2.12633 0.97872,-1.1779 4.55517,-4.71173 7.94889,-7.8528 6.79894,-6.29279 10.5748,-10.51318 13.2858,-14.84946 2.92225,-4.67418 5.55404,-12.24223 5.95888,-17.13329 0.91966,-11.11057 -5.77029,-23.10926 -14.35959,-25.75563 -1.4667,-0.45188 -2.30792,-0.67914 -3.05545,-0.68852 z m 121.51205,1.84619 c -0.42698,0.0259 -0.44277,0.53248 -0.31377,1.8147 0.18952,1.88362 -0.0451,2.35021 -1.18118,2.35021 -0.77203,0 -0.92598,-0.33567 -0.92598,-2.01945 0,-0.87658 -0.13805,-1.53231 -0.32353,-1.53231 -0.17822,0 -0.64287,0.15656 -1.03196,0.34764 -0.67582,0.33186 -0.70055,0.46876 -0.55502,3.04999 0.19095,3.38697 0.99151,5.70416 2.19918,6.36887 1.10901,0.61043 2.18922,0.11108 3.09311,-1.4288 0.47873,-0.8156 1.081,-5.42039 0.93295,-7.13277 -0.0856,-0.99 -0.22772,-1.24134 -0.8465,-1.50533 -0.4877,-0.20806 -0.82363,-0.32634 -1.0473,-0.31275 z m 92.73149,6.96177 c -1.3389,0.0837 -5.6194,0.31178 -9.51357,0.50627 -21.03077,1.05036 -29.67926,2.0486 -42.06358,4.85681 -5.85398,1.32743 -6.4985,1.40359 -13.39876,1.56381 -3.98689,0.0926 -7.24883,0.24266 -7.24883,0.33414 0,0.0915 1.23967,1.03834 2.75561,2.10384 2.89828,2.03709 2.94875,2.58309 0.23846,2.58309 -2.03106,0 -2.02999,0.0227 0.0404,1.91033 2.47187,2.25368 2.33294,2.41322 -2.096,2.41322 -3.06998,0 -3.70831,0.086 -3.3957,0.45902 0.21173,0.25269 0.58734,1.15582 0.83393,2.00708 l 0.44765,1.54805 h -1.95097 c -1.07316,0 -3.08417,-0.27797 -4.46811,-0.61765 -1.38395,-0.33967 -2.66923,-0.61764 -2.85602,-0.61764 -0.18678,0 -0.33888,0.61719 -0.33888,1.37143 0,1.54311 -1.01768,2.06843 -2.34143,1.20942 -0.48641,-0.31563 -1.64981,-0.95071 -2.58549,-1.4108 l -1.70135,-0.83591 -1.20208,1.53118 c -0.66137,0.84223 -1.5216,1.52846 -1.91192,1.52443 -0.39034,-0.004 -1.18328,-0.44714 -1.76131,-0.98441 -1.53079,-1.42288 -2.28927,-1.36285 -3.39431,0.26663 -0.54108,0.79789 -1.28121,1.49603 -1.64417,1.55145 -0.64756,0.0988 -3.68717,-2.59179 -3.68717,-3.26376 0,-0.65093 -1.1816,-0.33745 -2.77932,0.7369 -2.76035,1.85615 -3.51913,1.46351 -2.97316,-1.53793 l 0.47692,-2.62023 -2.3986,0.45902 c -1.31901,0.25238 -3.10607,0.45789 -3.97166,0.45789 -1.53844,0 -1.59122,0.0997 -2.35957,4.40117 -2.048,11.46531 -5.55321,16.13149 -15.87965,21.13846 -12.73086,6.17279 -14.43268,6.88465 -16.44026,6.87738 -4.60422,-0.0167 -6.62398,-1.99167 -5.48055,-5.3597 0.41657,-1.22706 0.53382,-2.77836 0.25939,-3.44826 l -0.49925,-1.21843 -1.25788,0.77066 c -0.6919,0.42393 -1.87255,1.13652 -2.62314,1.58406 -0.80652,0.48089 -2.335,0.89769 -3.73736,1.01816 -3.07853,0.26448 -3.14718,1.108 -0.26358,3.23226 2.29434,1.69016 3.20924,3.32038 3.25487,5.79285 0.0288,1.56346 -0.031,1.61155 -3.36364,2.70798 -1.86668,0.61413 -3.68085,1.46137 -4.03023,1.8822 -0.53085,0.63939 -1.08036,0.76503 -3.34829,0.76503 h -2.71378 v 1.51093 c 0,1.25944 0.34371,1.67975 2.06253,2.52235 1.1344,0.55611 2.23461,1.40471 2.44463,1.88557 0.21001,0.48087 0.60284,0.87416 0.87438,0.87416 0.27154,0 2.36227,-1.04156 4.64521,-2.31534 3.45872,-1.92978 4.48288,-2.31646 6.14158,-2.31646 2.55864,0 3.38594,0.70975 3.38594,2.9026 0,1.36725 -0.40268,1.9999 -2.02209,3.16925 -2.17332,1.56935 -2.77568,3.30544 -1.04033,3.0005 1.68919,-0.29684 5.74333,0.51528 7.25999,1.45468 0.79805,0.49431 1.69725,0.89891 1.99838,0.89891 0.30113,0 0.54806,-1.17044 0.54806,-2.59998 0,-2.81578 1.32587,-4.78524 3.94516,-5.8581 2.05946,-0.84355 3.19499,-0.252 3.69135,1.9227 0.5027,2.20251 0.99319,2.82948 2.21314,2.82948 0.66883,0 0.93852,-0.41522 0.93852,-1.44231 0,-1.61292 1.37192,-2.57184 3.67881,-2.57184 0.79553,0 1.81131,0.16634 2.25637,0.37014 0.92153,0.42202 0.84233,0.64813 1.0236,-2.94537 0.10769,-2.13521 0.30965,-2.49008 1.71389,-3.01061 0.87554,-0.32457 2.27231,-0.59065 3.10424,-0.59065 1.84157,0 5.06892,1.30621 5.11519,2.07009 0.019,0.31426 0.6191,0.002 1.38338,-0.71891 1.63671,-1.54409 4.25804,-2.73331 5.34528,-2.4256 0.54772,0.15501 0.67115,0.85852 0.39744,2.27034 -0.38259,1.97351 -0.3633,2.00809 0.52435,0.94954 4.13985,-4.93682 9.11893,-6.11757 9.21653,-2.18483 0.0488,1.96481 -0.22541,2.11106 3.60908,-1.91258 1.41763,-1.48756 1.96609,-1.78008 3.17677,-1.69769 1.62656,0.11068 2.22166,0.51667 3.08194,2.10046 l 0.58431,1.07442 1.87147,-2.35022 c 1.77633,-2.23032 4.39337,-3.90995 5.38433,-3.45614 0.25065,0.11478 0.45602,-1.56685 0.45602,-3.73739 v -3.94666 l 2.10297,0.14175 2.10436,0.14064 -0.38629,-1.57282 c -0.2124,-0.8652 -0.59413,-2.78909 -0.84788,-4.27516 l -0.46159,-2.70235 h 1.86869 1.87008 l -0.44486,-2.08359 c -0.2441,-1.1464 -0.61977,-2.6747 -0.83533,-3.3965 -0.43038,-1.44111 0.51338,-1.77333 1.83243,-0.64465 0.97535,0.83456 1.7396,8.59533 0.84649,8.59533 -0.35001,0 -1.03085,-0.17359 -1.51308,-0.38589 -0.71858,-0.31633 -0.79358,0.28315 -0.41558,3.32 0.50874,4.08717 -0.17046,5.79506 -2.02348,5.09083 -0.85779,-0.32602 -0.99988,-0.19163 -0.99988,0.94616 v 1.32755 l 1.56048,-0.67165 c 2.0943,-0.90099 2.94595,-0.84717 4.44302,0.28014 l 1.26346,0.95066 2.31633,-3.34476 c 1.54602,-2.23168 2.67415,-3.37599 3.39013,-3.43925 0.59323,-0.0524 1.20372,0.155 1.36387,0.46351 0.23545,0.4536 0.36039,0.47102 0.67216,0.0945 0.21094,-0.25476 1.19515,-1.46992 2.18664,-2.70124 1.39168,-1.72825 2.10208,-2.23883 3.11402,-2.23883 0.72096,0 1.40891,-0.17359 1.52981,-0.38589 1.98344,-3.48282 4.1912,-5.79061 5.53912,-5.79061 0.43409,0 2.09094,-1.00751 3.683,-2.23883 3.20032,-2.47517 9.2742,-5.41744 14.45442,-7.0034 3.86378,-1.18292 14.28112,-3.552 20.22923,-4.6003 2.22524,-0.3922 5.04219,-0.9125 6.26011,-1.15542 3.20637,-0.63953 3.77905,-0.5717 6.40513,0.75941 2.64665,1.34153 2.84795,1.57029 4.52529,5.09982 0.65357,1.37526 2.01673,3.39116 3.02894,4.48105 1.01223,1.08989 2.21109,3.03571 2.66358,4.32354 0.87662,2.49494 1.32083,2.95762 5.26021,5.47784 6.56399,4.19933 13.88707,6.35635 26.47678,7.79768 14.71718,1.68488 18.25679,2.40502 19.677,4.00403 0.54685,0.61571 2.16629,2.24078 3.59931,3.61139 2.39501,2.2907 2.62299,2.73757 2.81418,5.53297 l 0.2078,3.04098 -2.36097,0.26776 c -3.85921,0.43766 -5.32995,0.9036 -7.77597,2.46273 -1.92372,1.2262 -2.78645,1.51447 -5.02733,1.67857 -1.48775,0.10894 -2.70541,0.29548 -2.70541,0.41401 0,0.11853 0.7344,0.53092 1.63162,0.91691 0.8972,0.38599 2.27062,1.38274 3.05265,2.21521 0.78203,0.83248 1.53542,1.51319 1.67345,1.51319 0.13805,0 1.26775,-0.4583 2.51018,-1.0193 2.66587,-1.2037 5.3164,-2.07259 6.2852,-2.05882 1.18536,0.0168 2.83611,0.73396 3.33017,1.4468 0.36946,0.53307 -0.12433,0.97886 -2.26195,2.04083 -3.21548,1.59746 -3.69467,2.95731 -1.21744,3.45502 0.92065,0.18495 2.44473,1.18287 3.87683,2.53809 1.29806,1.22837 2.55075,2.23596 2.78351,2.23884 0.97667,0.0123 1.97528,-0.93091 2.61058,-2.46498 0.79511,-1.91995 1.62393,-2.47059 3.72064,-2.47059 1.11684,0 1.89537,0.3355 2.86997,1.23755 l 1.33876,1.23867 1.177,-0.82353 c 2.42953,-1.69801 5.12132,-2.64416 7.13447,-2.50885 1.5175,0.10199 1.94958,-0.002 2.12808,-0.51189 0.36288,-1.03607 -0.88195,-2.75758 -2.33029,-3.22213 -0.73904,-0.23704 -2.22277,-1.0651 -3.2967,-1.84057 -2.45322,-1.77146 -2.63072,-3.71919 -0.4825,-5.30346 1.26572,-0.93345 1.47782,-1.56477 1.55073,-4.6318 0.0464,-1.95313 0.32768,-3.79457 0.62615,-4.09179 0.42195,-0.4202 0.23359,-0.54002 -0.84649,-0.54002 -0.76398,0 -2.15974,0.16099 -3.10285,0.35777 -2.03285,0.42415 -3.76584,-0.12578 -5.12356,-1.62682 -0.69973,-0.77357 -0.64413,-1.07252 0.35701,-1.92382 1.17849,-1.00211 1.17373,-1.01753 -0.97061,-2.75748 -2.3052,-1.87082 -2.30398,-2.75588 0.007,-3.32225 1.23407,-0.30246 1.19793,-0.37743 -0.78094,-1.6212 -1.74743,-1.09828 -2.02395,-1.51021 -1.75852,-2.61572 0.23138,-0.9637 0.0746,-1.31293 -0.58989,-1.31293 -1.45651,0 -2.301,-1.06867 -2.301,-2.91274 v -1.71907 l -2.52831,-0.005 c -1.39076,-0.003 -2.86351,-0.10698 -3.27159,-0.23176 -1.36395,-0.41706 -2.29263,-1.56424 -2.29263,-2.83173 10e-6,-1.40441 -0.1889,-1.44565 -3.60489,-0.79204 -3.3219,0.63561 -6.06041,0.58121 -9.34761,-0.18676 -5.74443,-1.34201 -12.0495,-5.18828 -17.40947,-10.62041 -4.22115,-4.27797 -5.00749,-4.98601 -8.93205,-8.02944 -8.7381,-6.77622 -17.48262,-10.61546 -23.34324,-10.24915 z m -168.40772,7.1699 -0.54387,0.35552 c -1.74379,1.14014 -2.17962,1.28367 -3.91309,1.28367 -0.91849,0 -1.72362,-0.0756 -1.79059,-0.16763 -0.0669,-0.092 -0.28293,-0.16763 -0.47973,-0.16763 -0.45282,0 -0.0871,1.99336 0.40722,2.21971 0.1893,0.0867 0.34305,0.27447 0.34305,0.41627 0,0.36042 2.25245,1.49927 3.14191,1.58856 1.38803,0.13934 3.98027,-0.0437 5.47636,-0.38589 l 1.49634,-0.34201 v -1.13292 c 0,-0.62299 -0.14429,-1.25322 -0.32074,-1.40068 -0.17646,-0.14745 -0.57648,-0.53293 -0.88972,-0.85616 -0.31323,-0.32324 -1.10049,-0.77261 -1.74876,-0.99904 z m 164.6299,11.80284 c -0.53667,0 -1.06284,0.0645 -1.16863,0.14288 -0.10579,0.0784 -0.60779,0.18569 -1.11563,0.23851 -0.61508,0.064 -1.31687,0.36365 -2.10297,0.89779 -1.53866,1.04545 -1.98472,1.28902 -5.41222,2.95549 -1.58544,0.77085 -3.71984,1.8182 -4.74423,2.32771 -1.91245,0.95121 -5.01617,2.76107 -5.01617,2.92511 0,0.0506 -0.35253,0.3504 -0.78373,0.66715 -0.43121,0.31676 -1.14439,0.99355 -1.5856,1.50306 -0.44119,0.50951 -0.90663,0.99513 -1.03335,1.08004 -0.12674,0.0849 -0.33772,0.51957 -0.46857,0.9653 -0.13086,0.44572 -0.37441,0.84907 -0.54247,0.89665 -0.52869,0.14964 -0.36544,5.4619 0.18965,6.16749 0.26722,0.33968 0.49293,0.90866 0.50064,1.26455 0.008,0.3559 0.15858,0.68743 0.3333,0.7369 0.17471,0.0494 0.42122,0.41765 0.54805,0.81904 0.12683,0.40137 0.34962,0.79937 0.49506,0.88428 0.14545,0.0849 0.37032,0.4164 0.50065,0.73578 0.13033,0.31938 0.37109,0.61836 0.5355,0.6649 0.16441,0.0465 0.3005,0.2018 0.30122,0.34539 8e-4,0.1436 0.22921,0.45992 0.50622,0.70315 0.27702,0.24324 0.50887,0.55638 0.51459,0.69528 0.006,0.1389 0.23396,0.38756 0.50621,0.5524 0.27226,0.16484 0.49367,0.41917 0.49367,0.56589 0,0.14674 0.21099,0.46388 0.46857,0.70428 1.16952,1.09158 1.36588,1.5975 1.47542,3.80265 0.091,1.83212 0.0107,2.37934 -0.40859,2.76423 -0.28755,0.26395 -0.52296,0.60163 -0.52296,0.75153 0,0.14991 -0.25444,0.50467 -0.56479,0.78753 -0.31036,0.28287 -0.78805,0.72292 -1.06264,0.97767 -0.83437,0.7741 -4.05928,2.97615 -4.96736,3.39201 -0.46952,0.215 -1.13819,0.39038 -1.48519,0.39038 -0.34698,0 -0.68514,0.0766 -0.75305,0.16988 -0.0679,0.0933 -0.83986,0.20685 -1.71529,0.25201 -1.3241,0.0684 -1.80996,0.0155 -2.88949,-0.31163 -1.48889,-0.45121 -1.47166,-0.41483 -2.08344,-4.35954 -0.36732,-2.36839 -0.81386,-3.06502 -2.08065,-3.24913 -0.71165,-0.10344 -2.62733,0.37914 -2.62733,0.66152 0,0.10907 -0.12357,0.19801 -0.27333,0.19801 -0.14974,0 -0.55541,0.29474 -0.90227,0.65478 -1.78617,1.85392 -1.74138,4.13791 0.10877,5.52059 0.3977,0.2972 0.80824,0.64439 0.91203,0.77178 0.10379,0.12737 0.40907,0.42899 0.67776,0.6694 0.30156,0.26984 0.48809,0.89207 0.48809,1.62568 0,1.49357 -0.50511,1.7554 -3.54075,1.83832 -1.11262,0.0304 -2.40219,0.12744 -2.86578,0.21601 -0.4636,0.0886 -1.29703,0.25091 -1.85335,0.36114 -0.5563,0.11023 -1.2391,0.2424 -1.51727,0.29252 -1.53428,0.27649 -3.70947,1.15282 -3.70947,1.49518 0,0.17472 0.35408,0.30659 0.9971,0.37127 0.85426,0.0859 1.63465,0.41245 3.39849,1.42317 0.17899,0.10257 0.32967,0.31133 0.3361,0.46352 0.006,0.15219 0.23005,0.45036 0.49505,0.66265 0.26502,0.2123 0.48821,0.6287 0.49785,0.92591 0.009,0.29721 0.23621,0.81912 0.50343,1.1588 0.26722,0.33967 0.49293,0.91264 0.50064,1.27355 0.0192,0.84994 0.85357,0.88448 2.03743,0.0844 1.60423,-1.08422 4.51739,-2.35055 5.64371,-2.45371 3.28287,-0.30068 3.79208,0.26375 3.81128,4.22679 0.011,2.24754 0.14192,3.20602 0.50065,3.66201 0.26722,0.33967 0.50883,0.75607 0.53689,0.92591 h 8e-4 c 0.0463,0.28009 0.0642,0.27797 0.19385,-0.0271 0.0786,-0.18489 0.36051,-0.41941 0.62754,-0.52089 0.26702,-0.10149 0.48942,-0.26201 0.49228,-0.35776 0.003,-0.0958 0.39576,-0.34388 0.87298,-0.55127 1.17995,-0.51279 3.70744,-0.53396 4.78746,-0.0394 0.40655,0.18617 0.73911,0.40785 0.73911,0.49276 0,0.21219 0.58126,0.19545 0.87996,-0.0258 0.13451,-0.0997 0.2784,-1.50815 0.32074,-3.12875 0.0716,-2.73824 0.13355,-3.00032 0.87438,-3.7149 0.4621,-0.4457 1.06212,-0.79234 1.42801,-0.82466 0.80853,-0.0713 2.22847,0.27346 2.22847,0.54116 0,0.11301 0.1486,0.20588 0.33051,0.20588 0.1819,0 0.43302,0.19061 0.55782,0.42414 0.30822,0.57672 1.47264,0.92622 1.47264,0.44214 0,-0.27013 1.44762,-0.71215 2.33167,-0.71215 0.74105,0 3.06242,1.00966 3.06242,1.33205 0,0.1123 0.30347,0.43187 0.67356,0.7099 l 0.67217,0.50514 8e-4,-1.00353 c 5.7e-4,-0.55201 0.22569,-1.48918 0.50064,-2.08358 0.27493,-0.5944 0.50264,-1.55462 0.50621,-2.13309 0.006,-1.10425 0.7975,-2.4938 1.64417,-2.88461 1.594,-0.73575 3.32888,-0.54764 4.30635,0.4669 0.32189,0.33411 0.62318,0.59041 0.66938,0.56927 0.0461,-0.0211 0.26142,-0.93755 0.47833,-2.03633 0.46449,-2.35306 0.69421,-2.70797 1.74875,-2.69899 0.86602,0.007 2.28426,0.88788 2.28426,1.41869 0,0.55647 0.27706,0.23148 0.82278,-0.96642 0.28928,-0.63497 0.5256,-1.58238 0.52574,-2.10607 1.8e-4,-0.60314 0.24288,-1.21125 0.66241,-1.65945 0.5731,-0.61223 0.79689,-0.70765 1.65811,-0.70765 0.54745,-10e-6 1.08553,0.0862 1.19512,0.19238 0.10961,0.10615 0.13351,-0.88323 0.053,-2.19946 -0.18155,-2.97002 0.0361,-3.5757 1.5075,-4.17728 0.61295,-0.2506 1.39036,-0.45565 1.72784,-0.45565 0.66953,0 0.79365,-0.1624 0.29842,-0.39264 -0.17352,-0.0807 -0.78031,-0.57769 -1.34851,-1.10366 -1.02343,-0.94733 -1.03336,-0.97932 -1.03336,-3.44039 0,-2.10491 -0.09,-2.54832 -0.58989,-2.90037 -0.81696,-0.57534 -2.39876,-1.21463 -3.74295,-1.51318 -2.10125,-0.4667 -4.53143,-1.55455 -5.47777,-2.45147 -1.17206,-1.11085 -0.68561,-2.68143 1.2788,-4.13566 0.42788,-0.31676 0.77676,-0.64287 0.77676,-0.7234 0,-0.0805 0.19075,-0.23768 0.42255,-0.3499 0.23179,-0.11221 1.27424,-0.69037 2.31634,-1.28479 1.04207,-0.59444 2.37338,-1.32397 2.95921,-1.62119 1.02145,-0.51821 1.05988,-0.58476 0.92458,-1.62119 -0.21421,-1.641 -1.02663,-3.29851 -2.10437,-4.29654 -0.2596,-0.2404 -0.47134,-0.52564 -0.47134,-0.63341 0,-0.10774 -0.45614,-0.48422 -1.01245,-0.8359 -0.55631,-0.35168 -1.01105,-0.7304 -1.01105,-0.84153 0,-0.11112 -0.14071,-0.26809 -0.31237,-0.34876 -0.17167,-0.0807 -0.46035,-0.84063 -0.64148,-1.68982 -0.35911,-1.68345 -0.81389,-2.6597 -1.60234,-3.43588 -0.40302,-0.39676 -0.71365,-0.50177 -1.48518,-0.50177 z m -160.80606,18.06483 c -1.89752,0 -3.13847,0.46914 -4.34959,1.64369 -0.42527,0.41242 -0.91533,0.86958 -1.08914,1.01703 -0.67317,0.57113 -0.40425,0.69478 1.34853,0.61766 1.31564,-0.0579 1.91586,-0.002 2.86579,0.26664 0.66089,0.18704 1.20209,0.42417 1.20209,0.52764 0,0.10346 0.1819,0.27161 0.40442,0.37351 0.59139,0.27082 2.35216,0.21729 3.17258,-0.0968 1.08507,-0.41535 2.49205,-1.51733 2.49205,-1.95195 0,-0.21334 -0.34139,-0.56925 -0.75863,-0.79091 -1.60469,-0.85252 -2.25526,-1.14304 -2.5562,-1.14304 -0.17159,0 -0.50128,-0.10438 -0.73213,-0.23176 -0.26386,-0.14559 -1.0062,-0.23176 -1.99977,-0.23176 z m 116.94492,14.8517 c -0.20497,8e-4 -0.4032,0.0171 -0.59268,0.0472 -0.68479,0.10868 -2.07788,1.0787 -2.07788,1.44681 10e-6,0.14696 -0.15687,0.33808 -0.34723,0.42527 -0.19037,0.0872 -0.4419,0.52969 -0.55922,0.98329 -0.1996,0.77181 -0.1715,0.81672 0.43092,0.6919 0.92728,-0.19217 2.94324,-0.15647 3.09728,0.0552 0.0721,0.0991 0.35066,0.18112 0.61918,0.18112 0.26853,10e-6 0.58209,0.11062 0.69588,0.24639 0.19597,0.23388 0.74168,-0.26946 1.35827,-1.25105 0.10667,-0.16983 0.38213,-0.41264 0.61221,-0.54002 0.98193,-0.54365 0.90547,-0.88949 -0.33608,-1.5188 -0.99606,-0.50489 -2.0125,-0.77143 -2.90065,-0.76729 z m 135.76287,2.7721 c -0.0434,8e-4 -0.0856,0.005 -0.1255,0.008 -0.50251,0.0441 -0.59263,0.29256 -0.67497,1.86307 l -0.0948,1.81245 h 1.22719 c 1.37619,0 3.38716,0.62513 4.17387,1.2983 0.25668,0.21963 0.59199,0.39938 0.74608,0.39938 0.47914,0 0.30763,-1.6209 -0.26357,-2.49084 -0.98745,-1.50386 -1.35267,-1.75146 -4.10135,-2.77323 -0.20771,-0.0772 -0.58289,-0.12509 -0.88693,-0.11701 z m -262.14187,7.68518 -0.68891,0.69191 c -0.3789,0.38089 -0.68891,0.82127 -0.68891,0.97879 0,0.1575 -0.18907,0.37363 -0.41976,0.47926 -0.29746,0.13622 -0.419,0.87405 -0.42114,2.53923 -0.002,2.40226 0.0206,2.45761 1.59535,3.93091 0.20424,0.19106 0.48853,0.3465 0.63173,0.3465 0.14319,0 0.3204,-0.81578 0.39466,-1.81357 0.14888,-2.00052 0.58782,-2.98117 1.79895,-4.02428 0.91413,-0.7873 1.04169,-1.59807 0.29705,-1.88107 -0.27816,-0.10571 -0.51408,-0.27101 -0.52436,-0.36676 -0.0102,-0.0958 -0.45768,-0.33317 -0.9957,-0.52765 z m 41.1348,2.81374 c -0.0311,3.8e-4 -0.0604,0.002 -0.0879,0.003 -0.66469,0.0431 -0.80215,0.15459 -0.89111,0.72116 -0.0578,0.36825 0.13155,1.10137 0.42115,1.63018 0.77739,1.4195 0.62121,3.46474 -0.35561,4.64756 -0.23573,0.28543 -0.2049,0.2917 0.39884,0.0776 0.87865,-0.31155 2.2048,-1.13569 2.60919,-1.62118 0.94246,-1.13147 1.24672,-1.91723 1.24672,-3.22213 v -1.48281 l -1.32203,-0.40051 c -0.69363,-0.21021 -1.55234,-0.35904 -2.0193,-0.35327 z m 180.33385,2.13871 c -0.26646,0 -0.87283,0.53241 -1.84777,1.62118 -1.32862,1.48379 -1.88285,4.36534 -1.02777,5.34396 0.29173,0.33389 0.5412,0.83165 0.55363,1.10592 0.0218,0.48254 0.0385,0.47543 0.53411,-0.19688 0.28167,-0.38213 0.63522,-0.97213 0.78513,-1.3118 0.47999,-1.0876 2.53891,-3.28308 3.40268,-3.62827 0.59653,-0.23839 0.57176,-0.71255 -0.0697,-1.3613 -0.85086,-0.86052 -1.90572,-1.57281 -2.33028,-1.57281 z m -100.26341,2.95324 c -0.2498,0.0174 -0.50236,0.2392 -1.13097,0.8134 -1.34696,1.23035 -1.91639,2.46693 -1.61767,3.51352 0.52229,1.82983 0.63388,2.07337 1.07938,2.36596 0.25502,0.1675 0.47843,0.44548 0.49785,0.61765 0.0219,0.19448 0.18268,0.0987 0.42254,-0.25314 0.21237,-0.31149 0.49963,-0.61933 0.63871,-0.68289 0.13907,-0.0636 0.2524,-0.3183 0.2524,-0.56703 0,-0.50954 0.76715,-1.21989 2.00257,-1.85407 0.78155,-0.40119 0.80769,-0.46941 0.42674,-1.12167 -0.22308,-0.38194 -0.40583,-0.85369 -0.40583,-1.04854 0,-0.19485 -0.2228,-0.48881 -0.49505,-0.65365 -0.27226,-0.16484 -0.50052,-0.38662 -0.50622,-0.49277 -0.006,-0.10614 -0.29155,-0.32156 -0.63591,-0.47927 -0.22878,-0.10476 -0.37865,-0.16799 -0.52854,-0.1575 z m -103.44296,0.28913 0.13945,2.58648 c 0.0764,1.42238 0.2992,2.72491 0.49506,2.89474 0.19588,0.16984 0.63837,0.58735 0.98455,0.92703 0.70017,0.68701 2.18983,1.41017 3.70111,1.79894 1.93863,0.49872 2.88036,0.1834 1.65951,-0.55576 -0.27226,-0.16485 -0.49506,-0.53359 -0.49506,-0.82016 0,-0.28656 -0.18579,-0.67292 -0.41279,-0.85841 -0.26609,-0.21743 -0.43179,-1.1495 -0.46576,-2.62472 l -0.053,-2.28835 -1.26206,-0.52989 c -1.04602,-0.43876 -1.52257,-0.5299 -2.77654,-0.5299 z m 243.80643,3.55177 c -1.18221,0 -3.84987,0.81043 -4.19199,1.27355 -0.10978,0.1486 -0.34164,0.27001 -0.51459,0.27001 -0.51529,0 -0.35647,1.0272 0.19106,1.2353 0.27815,0.10571 0.51166,0.34022 0.51737,0.52089 0.006,0.18067 0.23257,0.46294 0.50483,0.62778 0.27225,0.16484 0.49506,0.56022 0.49506,0.87866 0,0.31843 0.14066,0.61853 0.31238,0.66715 0.1717,0.0486 0.41997,0.71557 0.55085,1.48168 0.13086,0.7661 0.27225,1.37312 0.31516,1.34893 0.59951,-0.33781 1.98018,-1.71548 2.26891,-2.26472 0.20604,-0.39192 0.43192,-1.91142 0.50204,-3.37625 l 0.12691,-2.66298 z m -104.34104,0.67502 c -0.0635,0.002 -0.12805,0.009 -0.19245,0.0203 -0.78498,0.13804 -0.93137,0.53703 -0.54667,1.48955 0.18346,0.45404 0.26099,1.43393 0.17154,2.17696 -0.0894,0.74304 -0.0562,1.35005 0.0753,1.35005 0.6925,0 1.96178,-0.96703 2.44464,-1.86307 0.50714,-0.94104 0.50454,-1.06325 -0.0377,-1.79669 -0.71987,-0.97379 -1.30069,-1.39634 -1.9147,-1.37706 z m 77.70669,0.0968 c -0.332,0 -1.06487,0.7411 -1.78362,1.80457 -0.58271,0.86218 -0.7573,3.51935 -0.24126,3.66539 0.16441,0.0465 0.39636,0.32343 0.51598,0.6154 0.11961,0.29197 0.40163,0.56038 0.62754,0.59627 0.57877,0.092 0.90632,-0.18907 0.91203,-0.78528 0.01,-0.96011 1.30002,-2.43564 2.7863,-3.18612 0.65477,-0.33063 0.57331,-0.58768 -0.48531,-1.54694 -0.66027,-0.59831 -1.7923,-1.16329 -2.33166,-1.16329 z m -91.02458,5.71297 c -0.68923,0.0111 -1.34599,0.24499 -1.88681,0.69527 -0.71023,0.59135 -0.7213,0.65448 -0.23289,1.39056 0.28121,0.4238 0.65251,0.89096 0.82418,1.03842 0.17166,0.14745 0.31099,0.39426 0.31099,0.54902 0,0.15475 0.2228,0.41681 0.49506,0.58164 0.27225,0.16485 0.5005,0.42466 0.50621,0.57828 0.0138,0.35971 0.68473,0.17781 0.68473,-0.18563 0,-0.15068 0.11472,-0.32489 0.2538,-0.38815 0.13906,-0.0632 0.4496,-0.6139 0.69029,-1.22291 0.87964,-2.22574 0.87903,-2.21091 -0.0182,-2.65398 -0.5366,-0.26501 -1.09136,-0.39115 -1.62743,-0.38252 z" /></g></svg>
