<?xml version="1.0" encoding="UTF-8" standalone="no"?>
<!-- Created with Inkscape (http://www.inkscape.org/) -->

<svg
   width="825"
   height="1125"
   viewBox="0 0 825 1125"
   version="1.1"
   id="svg3190"
   inkscape:version="1.3.2 (091e20e, 2023-11-25, custom)"
   sodipodi:docname="overlayUnit.svg"
   xml:space="preserve"
   xmlns:inkscape="http://www.inkscape.org/namespaces/inkscape"
   xmlns:sodipodi="http://sodipodi.sourceforge.net/DTD/sodipodi-0.dtd"
   xmlns="http://www.w3.org/2000/svg"
   xmlns:svg="http://www.w3.org/2000/svg"><sodipodi:namedview
     id="namedview3192"
     pagecolor="#ffffff"
     bordercolor="#999999"
     borderopacity="1"
     inkscape:showpageshadow="0"
     inkscape:pageopacity="0"
     inkscape:pagecheckerboard="0"
     inkscape:deskcolor="#d1d1d1"
     inkscape:document-units="mm"
     showgrid="false"
     inkscape:zoom="5.17549"
     inkscape:cx="220.36561"
     inkscape:cy="741.47569"
     inkscape:window-width="2560"
     inkscape:window-height="1351"
     inkscape:window-x="-9"
     inkscape:window-y="-9"
     inkscape:window-maximized="1"
     inkscape:current-layer="layer1" /><defs
     id="defs3187"><rect
       x="91.199096"
       y="735.00288"
       width="651.53252"
       height="364.02351"
       id="rect3" /><rect
       x="212.04364"
       y="518.08601"
       width="641.59596"
       height="398.94808"
       id="rect3313" /><rect
       x="212.04364"
       y="518.086"
       width="641.59595"
       height="398.94809"
       id="rect3313-3" /></defs><g
     inkscape:label="Layer 1"
     inkscape:groupmode="layer"
     id="layer1"><path
       style="fill:#f3f0e6;fill-opacity:1;stroke-width:6;stroke-linejoin:round;stroke-dashoffset:318.954"
       d="m -72.043397,636.90509 c 1.093,-0.27325 9.5638,-6.55805 9.5638,-6.55805 0,0 0.2733,-1.91276 2.186,-2.18602 1.9128,-0.27325 8.4709,-1.63951 8.4709,-1.63951 l 10.93,-1.63951 h 6.5581 l 6.2848,-3.55228 18.8544004,1.36626 7.9243,4.09878 10.6568,-0.27325 6.5580996,-0.5465 4.0988,1.63951 13.3893,-0.27325 9.5638,1.22963 5.6017,-0.81975 6.9679,1.09301 13.9359,-3.41566 4.918501,2.73253 7.1046,0.95638 18.0346,-4.37204 c 0,0 12.159696,0.68313 12.706296,0.68313 0.5465,0 8.4708,0 9.5638,0 1.093,0 11.0667,-0.95638 11.0667,-0.95638 l 8.3342,-2.73252 16.1219,0.5465 c 0,0 23.5594,3.59298 27.617,3.59298 4.0576,0 19.32185,1.15931 20.28795,1.35253 0.9661,0.19322 6.9558,2.51184 8.888,2.51184 1.93222,0 12.94567,1.73897 14.10498,1.93219 1.15931,0.19321 11.97954,3.28471 13.33207,3.28471 1.35253,0 14.29816,-1.54575 15.26425,-1.54575 0.9661,0 11.78633,-1.93218 11.78633,-1.93218 l 3.47793,-2.12541 13.13885,2.51184 16.03713,-1.15931 c 0,0 3.0915,-0.38643 4.25081,-0.19321 1.15931,0.19321 14.49138,-1.73897 14.49138,-1.73897 l 7.53552,3.28471 3.09149,-4.63724 12.75242,1.15931 11.20667,-0.38644 7.14908,1.93219 8.11517,-1.73897 10.62701,1.15931 10.04736,0.57966 7.53552,-2.70506 15.45747,0.38644 c 0,0 9.85414,2.51184 11.20667,2.89827 1.35253,0.38644 7.92196,0.9661 7.92196,0.9661 l 4.83046,-3.67115 7.72874,0.77287 10.82023,-4.05759 6.37621,-5.2169 8.50161,-0.77287 c 0,0 9.4677,0 10.82023,0 1.35253,0 12.36598,-0.77287 12.36598,-0.77287 l 7.72873,1.73896 3.67115,1.93219 c 0,0 5.98978,-2.70506 6.76265,-2.70506 0.77287,0 17.96931,-2.31862 17.96931,-2.31862 l 17.38966,-1.93219 5.98977,-0.96609 2.70506,-1.73896 9.66092,-0.57966 12.94564,2.51184 7.3423,0.19322 3.28471,1.73896 3.47793,-0.38643 6.18299,3.47793 c 0,0 6.95586,-1.35253 8.30839,-1.93218 1.35253,-0.57966 10.82023,-2.89828 10.82023,-2.89828 l 5.41012,4.05759 9.4677,-3.67115 9.08127,2.31862 13.33207,1.73896 5.2169,-2.1254 11.01345,0.38644 6.56942,2.1254 5.98978,-2.1254 11.01345,2.51184 11.78632,1.15931 2.51184,3.09149 7.14908,-2.70506 h 7.14908 c 0,0 3.67115,-1.73896 4.83046,-1.73896 1.15931,0 9.66092,2.70506 9.66092,2.70506 l 7.53552,-2.70506 c 0,0 7.3423,0.19322 8.69483,0.96609 1.35253,0.77287 13.13885,-1.15931 13.13885,-1.15931 l 7.14909,-3.47793 9.85414,5.79655 17.00322,-4.63724 c 0,0 12.94563,-1.35253 13.91172,-1.35253 0.9661,0 9.85414,1.15931 9.85414,1.15931 0,0 12.17276,-0.38644 13.33207,-0.77287 1.15931,-0.38644 9.46771,-3.28472 9.46771,-3.28472 0,0 7.53552,2.70506 9.08126,2.70506 1.54575,0 11.20667,-1.54575 11.97955,-1.93218 0.77287,-0.38644 6.76264,-1.93219 6.76264,-1.93219 v 152.0629 H -69.113397 Z"
       id="path1" /><path
       id="path2"
       style="fill:#dfd8bc;fill-opacity:1;stroke-width:6;stroke-linejoin:round;stroke-dashoffset:318.954"
       d="m 594.5918,621.82222 c 0,0 -15.84445,4.25 -16.81055,4.25 -0.96609,0 -12.55859,-1.35157 -12.55859,-1.35157 l -7.53516,-1.54687 -10.62695,3.47851 c 0,0 -13.13924,-2.31836 -13.91211,-2.31836 -0.77288,0 -3.67188,2.89844 -3.67188,2.89844 h -7.14844 l -10.24023,2.125 -6.76367,-1.74023 c 0,0 -7.53405,2.70508 -8.69336,2.70508 -1.15931,0 -6.37766,-1.35143 -7.34375,-1.15821 -0.9661,0.19321 -2.70368,2.89844 -3.47656,2.89844 -0.77287,0 -15.45899,0.77344 -15.45899,0.77344 l -13.13867,3.2832 c 0,0 -7.34125,1.16016 -9.27344,1.16016 H 434.2207 c -4.63723,0 -8.88867,1.35156 -8.88867,1.35156 l -12.17187,5.02344 c 0,0 -6.37641,0.002 -8.3086,-0.19141 -1.93218,-0.19322 -10.82031,-5.79687 -10.82031,-5.79687 l -10.24023,-2.31836 -14.68555,3.47656 c 0,0 -8.30749,0.58008 -9.4668,0.58008 -1.15931,0 -13.14023,-3.47684 -15.26562,-3.86328 -2.1254,-0.38643 -13.33093,-0.38672 -14.49024,-0.38672 -1.15931,0 -17.19726,4.05664 -17.19726,4.05664 l -11.39844,-0.19336 -11.40039,-1.15821 -6.76367,1.35157 -9.27344,-0.9668 -12.17383,-1.1582 c 0,0 -5.21612,2.31892 -6.95508,3.09179 -1.73897,0.77287 -5.60382,1.35157 -8.69531,1.35157 -3.09149,0 -4.44336,-0.96485 -4.44336,-0.96485 l -6.95703,-2.70508 -9.85352,-1.74023 c 0,0 -3.86398,-2.51047 -4.83007,-3.47656 -0.96609,-0.96609 -3.86524,0 -3.86524,0 0,0 -6.37556,2.51172 -7.14844,2.51172 -0.77286,0 -9.66169,0.5784 -14.49218,0.96484 -4.8305,0.38644 -10.81836,-0.57812 -10.81836,-0.57812 0,0 -11.20773,0.57812 -12.17383,0.57812 -0.9661,0 -5.2168,-4.83008 -5.2168,-4.83008 l -16.03711,2.125 -11.98047,-2.70508 -4.44336,2.51172 -4.25,-2.125 -11.59374,2.51172 -6.56836,-1.73828 h -9.08204 c -3.091489,0 -15.071006,3.67006 -16.037105,3.86328 -0.966099,0.19322 -12.173828,2.32031 -12.173828,2.32031 l -6.761719,-1.16015 -8.888672,-0.58008 H 46.625 40.248047 l -6.955078,2.125 -6.376953,-3.2832 c 0,0 -0.966399,1.35142 -3.091797,1.1582 -2.125398,-0.19322 -9.273438,-4.05664 -9.273438,-4.05664 L 1.4121094,631.67573 c 0,0 -1.27678818,0.0505 -1.4121094,0.0566 V 1125 H 825 V 627.41401 l -15.54883,4.8418 c 0,0 -14.29815,-1.74023 -16.03711,-1.74023 -1.73897,0 -11.78711,1.35351 -11.78711,1.35351 l -12.36523,-3.67187 c 0,0 -12.55932,2.12556 -16.23047,2.89843 -3.67115,0.77287 -5.60352,0.19336 -5.60352,0.19336 0,0 -5.02414,-3.285 -5.99023,-3.09179 -0.96609,0.19322 -1.73913,2.51185 -2.89844,2.70507 -1.15931,0.19322 -1.93164,-1.93164 -1.93164,-1.93164 l -5.41015,-2.125 -1.93165,1.73828 c 0,0 -9.27414,4.05693 -10.24023,4.44336 -0.96609,0.38644 -11.78711,1.35352 -11.78711,1.35352 l -3.0918,-3.0918 -7.92187,-3.47851 c 0,0 -3.2845,2.31991 -7.72852,4.44531 -4.44401,2.1254 -6.37695,-3.86523 -6.37695,-3.86523 0,0 -5.60269,-4.44322 -7.14844,-4.25 -1.54575,0.19321 -12.17187,1.54492 -12.17187,1.54492 h -16.61719 c -0.9661,0 -9.66211,3.86523 -9.66211,3.86523 0,0 -5.60255,-1.54687 -6.95508,-1.54687 -1.35253,0 -16.2295,-3.86342 -17.58203,-4.05664 -1.35252,-0.19322 -17.39062,-2.125 -17.39062,-2.125 z"
       sodipodi:nodetypes="cscccsccccsssccssccscccsssccccccsscccscsscscccccccsscccccccscccccccsccscsscccscccscscscssc" /><text
       xml:space="preserve"
       style="font-weight:bold;font-size:79.4822px;line-height:1;font-family:Corbel;-inkscape-font-specification:'Corbel Bold';fill:white;stroke:none;stroke-width:2.28433;stroke-linecap:round;stroke-linejoin:round;paint-order:markers stroke fill"
       x="86.454308"
       y="709.19727"
       id="text3361"><tspan
         sodipodi:role="line"
         id="tspan3359"
         x="86.454308"
         y="709.19727"
         style="font-size:79.4822px;fill:#524d42;fill-opacity:1;stroke:none;stroke-width:2.28433;stroke-opacity:1">{name}</tspan></text><text
       xml:space="preserve"
       id="text3"
       style="font-style:normal;font-variant:normal;font-weight:bold;font-stretch:normal;font-size:30px;line-height:1.25;font-family:Corbel;-inkscape-font-specification:'Corbel Bold';text-align:start;white-space:pre;shape-inside:url(#rect3);display:inline;fill:#524d42;fill-opacity:1;stroke:#000000;stroke-width:0.37795276;stroke-linejoin:round;stroke-dashoffset:318.954;stroke-opacity:1;stroke-dasharray:none;paint-order:markers stroke fill"
       transform="translate(-4.4658203,-14)"
       x="-39.23584"
       y="0"><tspan
         x="91.199219"
         y="761.06152"
         id="tspan1">{rules}</tspan></text></g></svg>
