<?xml version="1.0" encoding="UTF-8" standalone="no"?>
<!-- Created with Inkscape (http://www.inkscape.org/) -->

<svg
   width="825"
   height="1125"
   viewBox="0 0 825 1125"
   version="1.1"
   id="svg5"
   xml:space="preserve"
   inkscape:version="1.2.2 (b0a8486, 2022-12-01)"
   sodipodi:docname="pikeman.svg"
   xmlns:inkscape="http://www.inkscape.org/namespaces/inkscape"
   xmlns:sodipodi="http://sodipodi.sourceforge.net/DTD/sodipodi-0.dtd"
   xmlns="http://www.w3.org/2000/svg"
   xmlns:svg="http://www.w3.org/2000/svg"><sodipodi:namedview
     id="namedview7"
     pagecolor="#ffffff"
     bordercolor="#999999"
     borderopacity="1"
     inkscape:showpageshadow="0"
     inkscape:pageopacity="0"
     inkscape:pagecheckerboard="0"
     inkscape:deskcolor="#d1d1d1"
     inkscape:document-units="mm"
     showgrid="false"
     inkscape:zoom="0.16173406"
     inkscape:cx="231.86211"
     inkscape:cy="460.63273"
     inkscape:window-width="1390"
     inkscape:window-height="1027"
     inkscape:window-x="883"
     inkscape:window-y="485"
     inkscape:window-maximized="0"
     inkscape:current-layer="layer1" /><defs
     id="defs2" /><g
     inkscape:label="Layer 1"
     inkscape:groupmode="layer"
     id="layer1"><rect
       style="fill:#d6c9a7;fill-opacity:1;stroke:none;stroke-width:2.72107;stroke-linejoin:round;stroke-dashoffset:318.954;stroke-opacity:1;paint-order:markers stroke fill"
       id="rect61"
       width="831.61212"
       height="1133.5178"
       x="-3.3060608"
       y="-4.2588997" /><g
       id="g62"
       transform="matrix(0.5944898,0,0,0.5944898,166.64075,4.5488503)"><path
         style="fill:#9da295;fill-opacity:1;stroke:none;stroke-width:2.7;stroke-linejoin:round;stroke-dashoffset:318.954;stroke-opacity:1;paint-order:markers stroke fill"
         d="m 396.10949,243.27666 c 0,0 -21.3136,-0.81976 -22.9531,0 -1.6396,0.81975 -30.0578,12.56959 -30.0578,12.56959 l -12.8428,26.50546 c 0,0 -3.2791,11.47659 -3.2791,14.75561 0,3.27903 -3.0057,17.21489 -4.0987,18.3079 -1.093,1.093 -32.2438,34.42976 -33.8833,36.06928 -1.6395,1.63951 -32.7903,24.31944 -33.0635,25.95895 -0.2733,1.63951 -13.3894,26.77871 -15.5754,30.05774 -2.186,3.279 -6.8313,20.4939 -6.8313,20.4939 l 10.6569,14.2091 c 0,0 24.0461,11.4766 25.1391,12.5696 1.0931,1.093 14.4824,-0.2732 19.9475,-0.2732 5.465,0 21.5869,-7.6511 22.9531,-8.4709 1.3663,-0.8197 13.6626,-12.8428 13.6626,-12.8428 l 24.0462,-10.3836 7.1046,11.7499 5.465,26.2322 161.341,3.4904 1.9322,-12.366 18.9354,-66.08072 c 0,0 13.5253,20.48112 13.5253,22.02692 0,1.5457 -6.183,12.366 -6.183,12.366 l 1.9322,6.183 7.3423,3.4779 -5.4101,7.7287 -5.0237,5.7966 4.2508,7.3423 1.1593,19.7083 6.5694,5.0236 15.4575,14.2982 6.5694,9.6609 22.0269,-15.071 13.5253,1.1593 c 0,0 9.2745,-2.7051 11.2067,-5.7966 1.9322,-3.0915 4.2508,-14.6846 4.2508,-14.6846 l 3.78262,-26.21141 -13.83002,-44.5065 -7.3423,-6.18299 h -4.2508 l -16.6168,-59.89771 4.2508,-8.11517 -4.6372,-13.52529 -8.5016,-16.23035 -32.0743,-24.73196 -22.7997,-12.36598 -31.6879,-13.52529 z"
         id="path59-6"
         sodipodi:nodetypes="csccssscsccssccccccccsccccccccccccsccccccccccccc" /><path
         style="fill:#5c5d5a;fill-opacity:1;stroke:none;stroke-width:2.7;stroke-linejoin:round;stroke-dashoffset:318.954;stroke-opacity:1;paint-order:markers stroke fill"
         d="m 348.97779,380.80539 8.6948,65.1146 c 0,0 2.3187,21.254 8.8881,23.3794 6.5694,2.1254 57.3859,14.105 58.352,14.4914 0.966,0.3865 40.1894,3.0915 48.4978,0.5797 8.3084,-2.5119 35.359,-9.8542 35.359,-9.8542 l 7.149,-30.9149 -2.3186,-65.88749 c 0,0 -49.2707,22.99299 -53.3283,22.99299 -4.0576,0 -59.1248,-6.76264 -59.1248,-6.76264 l -41.3488,-36.32507 -11.2066,16.81001 z"
         id="path58-9" /><path
         style="fill:#884127;fill-opacity:1;stroke:none;stroke-width:2.7;stroke-linejoin:round;stroke-dashoffset:318.954;stroke-opacity:1;paint-order:markers stroke fill"
         d="m 358.25229,477.99429 -15.7002,9.843 -36.889,79.5164 c 0,0 -19.4009,56.5632 -20.4939,61.4817 -1.093,4.9185 -10.6569,32.2438 -10.6569,34.1565 0,1.9128 2.4593,35.2496 4.0988,36.8891 1.6395,1.6395 3.0058,8.4708 12.0231,13.3893 9.0173,4.9186 67.7665,20.2207 74.5978,19.6742 6.8313,-0.5465 28.4183,-7.1046 29.5113,-9.5639 1.093,-2.4592 13.6626,-15.8486 14.4823,-25.6857 0.8198,-9.837 2.7326,-15.0288 2.7326,-15.0288 l 6.0115,-0.8198 c 0,0 7.6511,14.2091 8.1976,15.5754 0.5465,1.3663 10.3835,20.4939 10.3835,20.4939 0,0 9.5639,4.0988 13.1162,4.0988 3.5522,0 60.9352,-7.3778 72.4118,-9.0173 11.4766,-1.6395 36.0692,-4.6453 36.0692,-4.6453 0,0 6.0116,-7.1046 8.4709,-9.0173 2.4592,-1.9128 9.0173,-25.6857 9.0173,-25.6857 l -4.6453,-31.6973 -48.0924,-162.8583 z"
         id="path39-1" /><path
         id="path40-4"
         style="fill:#6f3520;fill-opacity:1;stroke:none;stroke-width:2.7;stroke-linejoin:round;stroke-dashoffset:318.954;stroke-opacity:1;paint-order:markers stroke fill"
         d="m 484.04489,478.83389 -71.541,7.9101 -4.7871,7.8672 c 0,0 -8.8892,74.3896 -9.6621,78.2539 -0.7729,3.8644 -0.7732,23.1858 -3.0918,20.8672 -2.3186,-2.3186 -18.548,-32.2688 -25.3106,-39.0312 -6.7627,-6.7627 -0.9659,-15.65 0.1934,-20.4805 1.1593,-4.8304 2.125,-23.3789 2.125,-23.3789 0,0 -42.5084,46.7588 -43.2813,50.8164 -0.7729,4.0575 -11.2055,49.0774 -11.7851,50.8164 -0.5797,1.739 -8.6952,15.0711 -5.7969,18.9355 2.8983,3.8644 3.0912,13.3314 12.7519,9.6602 9.6609,-3.6711 10.0466,-10.2406 17.5821,-21.4473 7.5355,-11.2067 16.6183,-32.6537 18.164,-34.5859 1.5458,-1.9322 5.9893,-7.9206 10.0469,-0.9649 4.0576,6.9559 7.922,23.7658 10.8203,26.4708 2.8983,2.7051 10.6271,14.105 10.8203,16.2304 0.1933,2.1254 5.6034,13.1377 5.4102,17.1953 -0.1933,4.0576 -7.9227,21.2538 -9.082,23.7657 -1.1593,2.5118 -3.8631,16.0379 -11.5918,9.082 -7.7287,-6.9558 -27.0515,-15.6514 -28.0176,-17.0039 -0.9661,-1.3525 3.8652,-6.7616 -4.0566,-6.5684 -7.9219,0.1932 -34.7807,6.1818 -36.5196,6.375 -1.739,0.1932 -13.7183,0.9659 -15.8437,5.0235 -2.1254,4.0576 -3.6719,12.7539 -3.6719,12.7539 0,0 2.8983,26.47 8.1152,28.209 5.2169,1.739 48.6928,11.593 53.1368,13.332 2.1648,0.8471 7.59,7.3192 12.58,13.7031 1.5454,0.221 2.8183,0.3577 3.4805,0.3047 6.8313,-0.5465 28.4187,-7.1052 29.5117,-9.5645 1.093,-2.4592 13.6627,-15.8484 14.4824,-25.6855 0.8198,-9.837 2.7325,-15.0293 2.7325,-15.0293 l 6.0097,-0.8203 c 0,0 7.6527,14.2099 8.1992,15.5762 0.3537,0.8841 3.7675,7.4985 6.7188,13.2617 -2.054,-7.0804 -3.6281,-12.7183 -3.9863,-14.6289 -1.6395,-8.744 -8.1973,-86.3473 -8.1973,-97.2774 0,-10.9301 8.1973,-93.4511 8.1973,-93.4511 0,0 10.1336,0.7962 17.8007,0.6132 l 11.709,42.2871 c 1.093,9.2906 0.5466,66.1258 3.0059,75.9629 2.4593,9.8371 8.7445,33.3375 15.0293,35.5235 6.2848,2.186 21.041,10.1102 26.7793,8.4707 5.7383,-1.6395 12.8433,-6.8319 20.7676,-0.8203 7.9243,6.0115 4.6442,11.751 12.8418,16.123 8.1975,4.3721 10.9298,7.3776 19.6738,8.4707 4.1977,0.5247 8.3916,2.281 12.4082,2.9063 2.9031,-7.4041 6.7207,-21.2149 6.7207,-21.2149 l -4.6465,-31.6972 -48.0918,-162.8575 z" /><path
         style="fill:#39292c;fill-opacity:1;stroke:none;stroke-width:0.8;stroke-linejoin:round;stroke-dashoffset:318.954;stroke-opacity:1;paint-order:markers stroke fill"
         d="m 273.96579,647.41659 3.8256,57.6562 6.558,5.7382 -6.0115,49.4587 5.7383,13.1161 c 0,0 37.982,16.9416 40.168,16.6684 2.186,-0.2733 24.866,-10.9301 25.1392,-13.1161 0.2733,-2.1861 12.5696,-42.0809 12.5696,-42.0809 l 5.7383,-3.5522 19.1277,0.5465 c 0,0 -1.9128,-9.5639 -4.0988,-10.6569 -2.186,-1.093 -32.7903,-27.3252 -32.7903,-27.3252 l -15.5753,-20.2206 -12.2964,-0.5465 -8.7441,6.2848 -20.2206,2.186 c 0,0 -10.3836,-15.0289 -9.2906,-16.6684 1.093,-1.6395 -0.5465,-15.0289 -0.5465,-15.0289 l -5.465,-3.5523 z"
         id="path11-4" /><path
         id="path27-7-5"
         style="fill:#504b3a;fill-opacity:1;stroke:none;stroke-width:0.1;stroke-linejoin:round;stroke-dashoffset:318.954;stroke-opacity:1;paint-order:markers stroke fill"
         d="m 413.11899,145.7948 c 0,0 -0.045,0.29667 -0.049,0.31836 l 0.7871,9.28711 -1.1152,2.00781 c 1.0929,2.01972 2.6992,4.64453 2.6992,4.64453 0,0 4.5102,0.54669 5.1934,0.27344 0.6831,-0.27325 5.1919,-3.41443 6.0117,-3.96094 0.8197,-0.5465 4.0976,-5.875 4.0976,-5.875 l 2.459,-1.23047 c 0,0 -3.9613,9.70015 -4.5078,11.06641 -0.5465,1.36625 -2.5957,8.74414 -2.5957,8.74414 l 2.7324,4.09961 -6.4218,5.73828 c 0,0 1.5031,3.82431 3.2793,3.96093 1.7761,0.13662 4.7806,2.18639 6.83,0.54688 2.0494,-1.63951 5.8768,-3.14229 5.6036,-5.60156 -0.2733,-2.45927 -0.4108,-5.05534 -1.3672,-6.01172 -0.9564,-0.95639 -3.0059,-3.27911 -3.0059,-5.875 0,-2.5959 5e-4,-8.60771 0.6836,-9.01758 0.6831,-0.40988 3.5527,-2.86914 3.5527,-2.86914 l 5.875,4.64648 4.5078,2.45899 c 0,0 5.1923,2.05004 6.4219,0.95703 1.2297,-1.09301 2.1856,-2.5957 2.1856,-2.5957 v 2.86914 l -5.0547,2.5957 c 0,0 -1.3663,1.36569 0,2.04883 1.3662,0.68313 1.9116,1.64007 4.0976,0.82031 2.1861,-0.81975 2.8702,-0.41099 4.3731,-1.64062 1.5029,-1.22964 4.508,-4.23503 4.7812,-5.19141 0.2733,-0.95638 1.5039,-3.14164 1.5039,-4.64453 0,-1.50288 1.6396,-4.10008 0,-4.7832 -1.6395,-0.68313 -4.0998,-3.68806 -10.248,-4.50782 -6.1482,-0.81976 -24.3193,-2.86914 -25.6856,-2.86914 -1.3662,0 -17.625,-0.41015 -17.625,-0.41015 z" /><path
         style="fill:#312f2c;fill-opacity:1;stroke:none;stroke-width:0.1;stroke-linejoin:round;stroke-dashoffset:318.954;stroke-opacity:1;paint-order:markers stroke fill"
         d="m 548.37919,199.07892 0.1366,2.18601 -6.8313,2.0494 c 0,0 -22.5433,-9.29058 -22.9532,-9.97371 -0.4098,-0.68313 -7.1045,-11.20333 -7.1045,-11.20333 0,0 3.5523,-17.21489 4.0988,-17.21489 0.5465,0 14.0725,6.69468 14.0725,6.69468 z"
         id="path23-4-7" /><path
         style="fill:#433e33;fill-opacity:1;stroke:none;stroke-width:2.7;stroke-linejoin:round;stroke-dashoffset:318.954;stroke-opacity:1;paint-order:markers stroke fill"
         d="m 403.65859,259.65744 c 0,0 1.1593,7.3423 1.9322,8.11517 0.7729,0.77288 9.4677,5.41012 9.4677,5.41012 0,0 8.6948,-1.35253 9.6609,-3.86437 0.9661,-2.51184 3.478,-11.20667 3.478,-11.20667 l 3.2847,-2.70506 7.2548,4.26515 c 0,0 -0.2733,5.46505 -0.2733,9.01732 0,3.55228 2.186,10.93009 2.186,10.93009 0,0 4.3721,1.09301 11.2034,0.81975 6.8313,-0.27325 18.5811,-4.09878 24.8659,-5.73829 6.2848,-1.63951 13.9359,-6.01155 19.1277,-6.01155 5.1917,0 7.651,1.36626 18.5811,1.63952 10.9301,0.27325 9.2906,0 12.0231,0 2.7325,0 12.5696,-5.19179 12.5696,-5.19179 l -6.0116,-10.93009 -22.1334,-12.29634 -68.313,-2.18602 -34.703,6.8313 z"
         id="path49-2" /><path
         style="fill:#635a4d;fill-opacity:1;stroke:none;stroke-width:0.1;stroke-linejoin:round;stroke-dashoffset:318.954;stroke-opacity:1;paint-order:markers stroke fill"
         d="m 421.18039,224.90124 -0.5466,9.4272 c 0,0 -3.279,7.78769 3.1424,9.9737 6.4215,2.18602 25.8224,8.33419 25.8224,8.33419 0,0 31.8338,-10.79346 33.8832,-10.79346 2.0494,0 5.6017,-10.79345 5.6017,-10.79345 l 2.186,-17.62477 15.4388,-16.2585 12.0231,-12.97947 5.3284,-13.66261 c 0,0 -0.4099,-12.02309 -1.2297,-12.02309 -0.8197,0 -27.1885,-9.9737 -27.1885,-9.9737 0,0 -6.1482,-1.36626 -6.968,0 -0.8197,1.36626 -4.9185,19.67415 -4.9185,19.67415 0,0 2.0494,16.12187 1.7761,17.35151 -0.2732,1.22963 -5.8749,23.22643 -7.3778,24.59269 -1.5029,1.36626 -33.0635,14.07248 -34.2931,14.34573 -1.2297,0.27326 -22.6799,0.40988 -22.6799,0.40988 z"
         id="path22-1-5" /><path
         style="fill:#beaf96;fill-opacity:1;stroke:none;stroke-width:0.1;stroke-linejoin:round;stroke-dashoffset:318.954;stroke-opacity:1;paint-order:markers stroke fill"
         d="m 417.14139,135.59465 -4.2508,8.405 0.9661,11.39989 -4.3474,7.82534 -3.7678,27.82346 12.849,26.76075 39.803,3.67115 21.8337,-19.41845 8.9847,-33.71662 -0.097,-20.48115 c 0,0 -40.5759,-23.47604 -41.059,-23.47604 -0.483,0 -30.9149,11.20667 -30.9149,11.20667 z"
         id="path14-9-8" /><path
         id="path15-5-7"
         style="fill:#695d4d;fill-opacity:1;stroke:none;stroke-width:0.1;stroke-linejoin:round;stroke-dashoffset:318.954;stroke-opacity:1;paint-order:markers stroke fill"
         d="m 448.05649,124.38855 c -0.483,0 -30.916,11.20703 -30.916,11.20703 l -4.25,8.40429 0.064,0.76368 1.1914,1.36132 c 0,0 11.5941,2.12529 14.6856,2.51172 3.0914,0.38644 10.432,1.93207 13.7168,2.51172 3.2847,0.57966 13.7194,0.001 17.3906,1.74024 3.6711,1.73895 11.207,6.18164 11.207,6.18164 0,0 4.25,6.37766 4.25,7.34375 0,0.96609 -0.3867,12.94531 -0.3867,12.94531 l 5.0234,10.43359 1.1992,8.49219 7.9805,-29.93945 -0.098,-20.48242 c 0,0 -40.5755,-23.47461 -41.0586,-23.47461 z" /><path
         style="fill:#c8bfa6;fill-opacity:1;stroke:none;stroke-width:0.1;stroke-linejoin:round;stroke-dashoffset:318.954;stroke-opacity:1;paint-order:markers stroke fill"
         d="m 441.81089,155.49521 c 0,0 -0.1366,1.29794 1.9811,2.32264 2.1177,1.02469 4.7819,2.52758 5.3284,2.66421 0.5465,0.13662 4.0304,0.5465 5.3284,0.75144 1.2979,0.20494 5.6017,0.95638 5.6017,0.95638 l -1.5029,-3.96215 -5.2601,-5.26011 -6.4898,-0.47819 -4.3037,0.81976 -1.5712,1.50289 z"
         id="path5-9-4" /><path
         style="fill:#888880;fill-opacity:1;stroke:none;stroke-width:0.1;stroke-linejoin:round;stroke-dashoffset:318.954;stroke-opacity:1;paint-order:markers stroke fill"
         d="m 526.65569,57.534323 c -3.2791,0.81976 -66.4003,17.76139 -66.4003,17.76139 0,0 -15.5754,7.65106 -17.4881,9.29057 -1.9128,1.63951 -12.0231,10.38358 -12.8429,12.29635 -0.8197,1.91276 -6.2848,13.662597 -6.2848,13.662597 0,0 -17.2149,0.81976 -19.9474,0.81976 -2.7325,0 -21.8602,1.09301 -21.8602,1.09301 0,0 9.0174,13.38935 10.3836,13.93585 1.3663,0.54651 25.6857,10.93009 25.6857,10.93009 0,0 16.1219,-0.27325 18.8544,0.27325 2.7325,0.54651 26.7787,3.82553 26.7787,3.82553 0,0 15.0289,7.10456 19.4009,9.56383 4.3721,2.45926 16.3951,7.92431 19.6742,8.74406 3.279,0.81976 8.4708,3.27903 8.4708,3.27903 0,0 12.5696,11.47659 15.8486,14.75561 3.279,3.27903 22.1334,21.86017 22.1334,21.86017 l -16.6683,-30.60424 -1.6396,-6.8313 8.1976,-38.25529 -2.4593,-25.412447 z"
         id="path1-0-2" /><path
         style="fill:#cec3a6;fill-opacity:1;stroke:none;stroke-width:0.1;stroke-linejoin:round;stroke-dashoffset:318.954;stroke-opacity:1;paint-order:markers stroke fill"
         d="m 410.79679,233.09881 -11.0667,5.73829 -2.4593,7.65106 3.9621,9.70045 6.0116,9.29057 c 0,0 11.7498,-8.06094 12.8428,-8.33419 1.0931,-0.27325 14.619,-3.41565 14.619,-3.41565 l 3.8256,0.68313 c 0,0 3.5522,7.92431 3.6889,9.01732 0.1366,1.09301 0.1366,11.88647 0.1366,11.88647 l 22.4067,-2.04939 c 0,0 19.9474,-8.60744 20.7671,-8.60744 0.8198,0 21.3137,-11.61322 21.3137,-11.61322 l 8.4708,-7.78768 -16.9416,-12.84285 c 0,0 -4.0988,-5.60167 -9.154,-3.41566 -5.0551,2.18602 -22.9531,11.88647 -22.9531,11.88647 l -20.3573,7.78769 c 0,0 -9.154,-0.27326 -10.6569,-0.95639 -1.5029,-0.68313 -11.8864,-9.42719 -11.8864,-9.42719 l -4.3721,-8.60745 z"
         id="path2-5-4" /><path
         style="fill:#c8bfa6;fill-opacity:1;stroke:none;stroke-width:0.1;stroke-linejoin:round;stroke-dashoffset:318.954;stroke-opacity:1;paint-order:markers stroke fill"
         d="m 415.51039,152.96762 c 0,0 1.093,2.45927 1.981,2.73252 0.8881,0.27326 3.6206,1.84446 5.3968,0.75145 1.7761,-1.09301 3.0741,-2.45927 3.1424,-2.86915 0.068,-0.40988 0.8197,-1.77614 -0.5465,-2.86915 -1.3663,-1.09301 -4.8503,-3.41565 -5.2601,-3.41565 -0.4099,0 -2.1177,-0.40988 -3.1424,0.0683 -1.0247,0.4782 -1.9811,1.70783 -1.9811,1.70783 z"
         id="path6-0-6" /><path
         style="fill:#3a3223;fill-opacity:1;stroke:none;stroke-width:0.1;stroke-linejoin:round;stroke-dashoffset:318.954;stroke-opacity:1;paint-order:markers stroke fill"
         d="m 447.68579,153.85569 c 0,0 -0.8881,1.70783 -0.8881,2.18602 0,0.47819 0.4782,2.52758 1.2297,2.93746 0.7514,0.40988 4.3037,0.5465 5.1234,0.13663 0.8198,-0.40988 1.9811,-2.04939 1.9811,-2.93746 0,-0.88807 -0.2732,-2.80084 -0.9564,-2.93746 -0.6831,-0.13663 -3.7572,-0.88807 -4.0987,-0.81976 -0.3416,0.0683 -2.391,1.43457 -2.391,1.43457 z"
         id="path4-1-1" /><path
         style="fill:#4e4642;fill-opacity:1;stroke:none;stroke-width:0.1;stroke-linejoin:round;stroke-dashoffset:318.954;stroke-opacity:1;paint-order:markers stroke fill"
         d="m 411.75309,182.54716 -6.6946,3.00578 c 0,0 -1.5029,13.25273 -1.6395,14.07248 -0.1367,0.81976 0,19.26428 0.2732,20.49391 0.2733,1.22964 1.6395,6.14817 4.2354,8.06094 2.5959,1.91276 9.7005,4.37203 11.7499,5.46504 2.0494,1.09301 15.5753,2.5959 19.1276,2.5959 3.5523,0 16.805,-3.41566 18.991,-4.37204 2.186,-0.95638 20.4939,-11.47659 20.4939,-11.47659 l 5.0552,-12.02309 6.6947,-14.07248 c 0,0 2.4593,-9.15395 3.0057,-10.11033 0.5466,-0.95638 2.1861,-14.89224 2.1861,-14.89224 0,0 -2.8692,-9.83708 -3.5523,-9.83708 -0.6831,0 -4.6453,0.95638 -4.6453,0.95638 0,0 -3.5523,6.69468 -4.2354,9.29058 -0.6831,2.59589 -0.5465,11.61321 -0.5465,11.61321 0,0 -0.6831,7.51443 -1.6395,9.15395 -0.9564,1.63951 -9.7005,10.65683 -12.8429,11.61321 -3.1424,0.95638 -14.2091,5.87492 -15.3021,6.01155 -1.093,0.13662 -10.1103,-6.69468 -10.1103,-6.69468 l -6.1482,-6.42142 -7.651,-9.83708 -6.5581,-2.73252 z"
         id="path9-8-9" /><path
         style="fill:#362f1e;fill-opacity:1;stroke:none;stroke-width:0.1;stroke-linejoin:round;stroke-dashoffset:318.954;stroke-opacity:1;paint-order:markers stroke fill"
         d="m 418.88039,187.4738 c 0,0 -1.0628,-2.80167 -4.6373,-2.80167 -3.5745,0 -7.3423,-0.38644 -8.3084,0.67626 -0.9661,1.0627 -4.444,4.92707 -5.2169,5.31351 -0.7729,0.38644 -7.5355,3.47793 -9.4677,3.76776 -1.9322,0.28983 -15.6507,7.92195 -15.6507,7.92195 0,0 9.0813,1.73897 11.6897,2.22202 2.6085,0.48304 13.6219,-0.28983 14.6846,-0.57966 1.0627,-0.28983 7.922,-3.28471 8.5016,-3.67115 0.5797,-0.38644 4.5407,-4.34741 4.5407,-4.34741 l 1.6423,-1.0627 1.8356,-2.60845 z"
         id="path7-4-5" /><path
         style="fill:#362f1e;fill-opacity:1;stroke:none;stroke-width:0.1;stroke-linejoin:round;stroke-dashoffset:318.954;stroke-opacity:1;paint-order:markers stroke fill"
         d="m 419.17019,191.04834 c 0,0 0.3864,2.99488 0.7729,3.96097 0.3864,0.9661 4.5406,6.85926 6.1829,8.21179 1.6424,1.35253 8.3084,6.95586 9.0813,7.53552 0.7729,0.57965 12.1728,4.34741 12.1728,4.34741 l 2.1254,0.57966 -5.2169,-5.60334 -7.8254,-12.17276 c 0,0 -6.0863,-9.85414 -7.8253,-10.24058 -1.739,-0.38643 -6.0864,-2.31862 -6.4728,-2.31862 -0.3865,0 -2.7051,2.22201 -2.8017,2.60845 -0.097,0.38644 -0.1932,3.0915 -0.1932,3.0915 z"
         id="path8-4-7" /><path
         style="fill:#908072;fill-opacity:1;stroke:none;stroke-width:0.1;stroke-linejoin:round;stroke-dashoffset:318.954;stroke-opacity:1;paint-order:markers stroke fill"
         d="m 416.26179,175.9208 0.5465,2.73252 3.0741,0.27325 1.5029,2.25433 3.1424,0.61482 0.6831,-2.80083 c 0,0 1.3663,-0.88807 1.9128,-0.81976 0.5465,0.0683 4.5769,0.88807 4.8502,1.16132 0.2733,0.27325 1.6395,2.45927 1.6395,2.45927 l 0.8198,-1.91276 -0.6832,-5.26011 -3.2107,-1.91276 c 0,0 -3.5523,-1.09301 -3.8938,-0.54651 -0.3416,0.54651 -1.5029,3.27903 -1.5029,3.27903 l -2.1177,1.22963 -4.0988,-1.36626 z"
         id="path11-3-0" /><path
         style="fill:#b5a693;fill-opacity:1;stroke:none;stroke-width:0.1;stroke-linejoin:round;stroke-dashoffset:318.954;stroke-opacity:1;paint-order:markers stroke fill"
         d="m 426.85029,173.39322 c 1.093,-4.98685 5.4651,-12.70622 5.4651,-12.70622 l 2.8691,-8.26588 c 0,0 -2.5959,-1.98108 -3.4156,-1.63951 -0.8198,0.34156 -2.7326,3.62059 -4.3038,5.66998 -1.5712,2.04939 -6.8313,11.74984 -6.8313,11.74984 0,0 -2.8691,3.34734 -2.8691,3.75722 0,0.40987 0.5465,4.85022 0.5465,4.85022 0,0 1.093,0.47819 2.3226,0.61482 1.2297,0.13662 4.2354,-0.27325 4.8503,-0.68313 0.6148,-0.40988 1.3662,-3.34734 1.3662,-3.34734 z"
         id="path12-9-0" /><path
         style="fill:#d8c6b8;fill-opacity:1;stroke:none;stroke-width:0.1;stroke-linejoin:round;stroke-dashoffset:318.954;stroke-opacity:1;paint-order:markers stroke fill"
         d="m 420.42889,169.636 -2.186,4.30372 c 0,0 -0.3416,2.04939 0.1366,2.18602 0.4782,0.13663 2.7325,0.81976 2.7325,0.81976 l 2.391,-0.81976 0.1366,-3.1424 z"
         id="path10-7-0" /><path
         style="fill:#342a1e;fill-opacity:1;stroke:none;stroke-width:0.1;stroke-linejoin:round;stroke-dashoffset:318.954;stroke-opacity:1;paint-order:markers stroke fill"
         d="m 425.62069,179.26814 c 0,0 -1.0247,2.1177 0.1366,2.39096 1.1613,0.27325 4.7819,0.5465 5.3968,0.5465 0.6148,0 1.5028,-1.5712 1.5028,-1.5712 0,0 -1.3662,-1.50289 -1.6395,-1.50289 -0.2732,0 -5.3967,0.13663 -5.3967,0.13663 z"
         id="path13-8-1" /><path
         id="path16-3-5"
         style="fill:#413d34;fill-opacity:1;stroke:none;stroke-width:0.1;stroke-linejoin:round;stroke-dashoffset:318.954;stroke-opacity:1;paint-order:markers stroke fill"
         d="m 424.55259,108.56237 c -0.1993,0.4289 -0.9121,1.98243 -0.9121,1.98243 0,0 -1.8846,0.0849 -2.4473,0.11132 l -0.014,0.0254 27.5997,13.66211 c 0,0 18.0341,4.50902 22.2695,6.28516 4.2354,1.77614 23.6357,9.29176 25.0019,10.38477 1.3663,1.09301 6.5586,4.37109 6.5586,4.37109 0,0 1.9138,-2.86961 1.5039,-3.55273 -0.4098,-0.68313 -14.0728,-9.28916 -14.8926,-9.42579 -0.8197,-0.13662 -25.5488,-10.93164 -25.5488,-10.93164 0,0 -17.6259,-6.2832 -18.9922,-6.2832 -1.3662,0 -14.8925,-5.73828 -14.8925,-5.73828 z" /><path
         id="path17-9-5"
         style="fill:#ccc5ac;fill-opacity:1;stroke:none;stroke-width:0.1;stroke-linejoin:round;stroke-dashoffset:318.954;stroke-opacity:1;paint-order:markers stroke fill"
         d="m 526.65609,57.535033 c -1.0952,0.2738 -12.3126,3.2928 -22.1777,5.93164 -9.451,4.7614 -22.6472,11.40574 -23.3184,11.69336 -0.9563,0.40988 -15.4394,8.87891 -15.4394,8.87891 l -24.5938,21.587887 -3.8242,6.69531 9.291,4.23437 c 0,0 13.1149,-18.034777 15.4375,-20.357417 2.3227,-2.32264 9.7013,-11.33891 12.7071,-12.84179 3.0057,-1.50289 18.7168,-9.83845 21.7226,-10.65821 3.0058,-0.81975 18.4442,-7.78729 19.6739,-8.06054 0.6207,-0.13794 5.8922,-2.62083 11.0097,-5.06836 z" /><path
         id="path18-9-1"
         style="fill:#ded0b1;fill-opacity:1;stroke:none;stroke-width:0.1;stroke-linejoin:round;stroke-dashoffset:318.954;stroke-opacity:1;paint-order:markers stroke fill"
         d="m 493.52529,66.396363 c -16.2257,4.34734 -33.2696,8.89844 -33.2696,8.89844 0,0 -15.5755,7.6515 -17.4882,9.29101 -1.9128,1.63951 -12.024,10.38411 -12.8438,12.29688 -0.7902,1.84384 -5.6897,12.380717 -6.0566,13.169917 l 4.9648,1.17578 3.1426,-1.36719 17.3516,-19.947257 c 0,0 17.6246,-11.20173 19.9472,-12.02149 2.3227,-0.81975 17.0781,-7.24219 17.0781,-7.24219 z" /><path
         id="path19-9-7"
         style="fill:#3d3e37;fill-opacity:1;stroke:none;stroke-width:0.1;stroke-linejoin:round;stroke-dashoffset:318.954;stroke-opacity:1;paint-order:markers stroke fill"
         d="m 527.53109,61.183473 c -1.1281,1.63648 -11.5332,16.73558 -11.5332,17.2539 0,0.54651 -14.0722,18.99219 -14.0722,18.99219 l -11.2032,13.798827 -7.3769,15.57617 c 0,0 -1.7765,4.78144 -0.5469,5.05469 0.938,0.20845 2.0369,1.51716 3.293,1.34375 0.7639,1.61537 1.8398,3.75 2.582,4.12109 1.093,0.5465 14.0723,11.88672 14.0723,11.88672 l -4.5078,3.2793 c 0,0 9.5628,2.73279 10.1093,3.2793 0.5466,0.5465 12.4339,8.87927 12.8438,9.42578 0.4099,0.5465 5.6015,6.14843 5.6015,6.14843 l -12.1328,-5.04687 c 3.7793,3.46559 9.8672,9.06633 12.2696,11.46875 3.279,3.27903 22.1328,21.85937 22.1328,21.85937 l -16.668,-30.60351 -1.6406,-6.83203 8.1973,-38.25391 -2.459,-25.414057 z m -2.789,18.34765 c 0,0 1.0937,18.30785 1.0937,20.08399 0,1.776137 -4.2344,24.318917 -4.3711,25.138667 -0.1366,0.81976 -2.1876,8.88124 -2.3242,9.42773 -0.1366,0.5465 -3.2773,6.96875 -3.2773,6.96876 l -4.7832,1.9121 -8.7442,-3.82617 -14.9414,-6.8125 c 1.7896,-1.96564 4.8796,-10.87316 7.9746,-14.91015 3.1424,-4.09878 10.3824,-18.581287 12.5684,-20.357427 2.186,-1.77613 12.9804,-17.21484 12.9804,-17.21484 z" /><path
         id="path20-7-4"
         style="fill:#484239;fill-opacity:1;stroke:none;stroke-width:0.1;stroke-linejoin:round;stroke-dashoffset:318.954;stroke-opacity:1;paint-order:markers stroke fill"
         d="m 389.23819,112.05066 c -3.4902,0.19128 -7.4063,0.4082 -7.4063,0.4082 0,0 9.0166,13.38905 10.3828,13.93555 1.3663,0.54651 25.6875,10.92968 25.6875,10.92968 0,0 3.8823,-0.0587 8.0156,-0.0644 l -8.9726,-5.12695 c 0,0 -15.8483,-11.20359 -16.8047,-11.88672 -0.4354,-0.31103 -5.7439,-4.30796 -10.9023,-8.19531 z" /><path
         style="fill:#3a3223;fill-opacity:1;stroke:none;stroke-width:0.1;stroke-linejoin:round;stroke-dashoffset:318.954;stroke-opacity:1;paint-order:markers stroke fill"
         d="m 416.27189,147.76741 0.5797,4.1542 c 0,0 0.3864,1.44913 1.6423,1.73896 1.2559,0.28983 2.3186,0.77288 2.8983,0.48305 0.5797,-0.28983 1.8356,-0.67627 1.9322,-1.35253 0.097,-0.67627 0.7728,-1.93219 0.5796,-2.70506 -0.1932,-0.77287 -0.7728,-1.64236 -0.7728,-1.64236 0,0 -1.8356,-1.44913 -2.3187,-1.44913 -0.483,0 -2.705,-0.67627 -3.4779,-0.67627 -0.7729,0 -1.0627,1.44914 -1.0627,1.44914 z"
         id="path21-1-2" /><path
         style="fill:#362f1e;fill-opacity:1;stroke:none;stroke-width:0.1;stroke-linejoin:round;stroke-dashoffset:318.954;stroke-opacity:1;paint-order:markers stroke fill"
         d="m 439.21659,149.94112 -1.111,2.07709 c 0,0 1.0627,1.44914 1.8356,1.49745 0.7728,0.0483 2.6084,0.33813 4.6855,-0.62796 2.0771,-0.96609 2.7534,-1.78727 3.7195,-1.93219 0.966,-0.14491 3.4779,-0.28982 4.8787,-0.14491 1.4009,0.14491 5.7966,0.86948 6.7627,1.20761 0.9661,0.33814 2.3186,0.48305 2.5601,0.53136 0.2415,0.0483 1.6907,-3.76776 1.0627,-4.20251 -0.6279,-0.43474 -0.8695,-1.83557 -2.705,-1.83557 -1.8356,0 -5.8449,-0.57966 -8.3567,0 -2.5119,0.57966 -8.405,1.73897 -9.0813,1.93218 -0.6763,0.19322 -4.2508,1.49745 -4.2508,1.49745 z"
         id="path24-3-8" /><path
         style="fill:#362f1e;fill-opacity:1;stroke:none;stroke-width:0.1;stroke-linejoin:round;stroke-dashoffset:318.954;stroke-opacity:1;paint-order:markers stroke fill"
         d="m 429.36249,148.15385 2.6084,-3.04319 c 0,0 0.3864,-0.9661 -0.7729,-2.27032 -1.1593,-1.30422 -6.666,-5.36181 -6.9558,-5.36181 -0.2899,0 -7.439,-0.14492 -7.439,-0.14492 l -2.222,3.71946 c 0,0 0.7246,2.02879 0.9661,2.02879 0.2416,0 5.2652,-0.77287 6.6178,0.0483 1.3525,0.82118 4.5406,2.80166 4.9753,3.1398 0.4348,0.33813 2.222,1.88388 2.222,1.88388 z"
         id="path25-0-5" /><path
         style="fill:#8c8585;fill-opacity:1;stroke:none;stroke-width:0.1;stroke-linejoin:round;stroke-dashoffset:318.954;stroke-opacity:1;paint-order:markers stroke fill"
         d="m 91.911487,173.39322 -2.4592,19.12765 9.2905,16.66838 35.796103,28.96472 25.1392,10.65683 c 0,0 14.7556,0.27325 15.8486,0 1.093,-0.27325 6.2848,-5.19179 6.2848,-5.19179 l -14.4824,-3.55227 -17.2148,-14.48237 -6.0116,-15.02886 1.6395,-2.73252 9.8371,1.093 0.8197,-11.20333 33.8833,24.04618 7.3778,-8.19756 -29.5112,-24.59269 6.558,-6.2848 v -10.93008 l 10.3836,-1.36626 0.5465,-10.38358 c 0,0 9.8371,-4.37204 11.2034,-4.91854 1.3662,-0.54651 12.8428,-2.73252 12.8428,-2.73252 0,0 -4.9185,-7.10456 -6.0115,-7.10456 -1.093,0 -14.4824,-2.73252 -16.3952,-1.91276 -1.9127,0.81975 -12.8428,2.73252 -16.9416,5.46504 -4.0988,2.73252 -20.4939,23.77293 -20.4939,23.77293 l -9.2906,-7.65106 -0.5465,-12.56959 -10.9301,5.19179 -1.3662,-12.84285 L 20.046187,78.028233 105.57419,165.46891 h 14.2091 l 0.2732,12.02309 14.2091,-1.91276 3.5523,2.45926 -0.5465,8.19757 -7.1046,1.91276 0.2733,8.19757 c 0,0 -5.7383,0.5465 -7.3778,0.81975 -1.6395,0.27326 -13.3894,-0.81975 -13.3894,-0.81975 l -8.4708,-8.19757 -5.738303,-7.3778 z"
         id="path26-4-7" /><path
         style="fill:#b59482;fill-opacity:1;stroke:none;stroke-width:0.1;stroke-linejoin:round;stroke-dashoffset:318.954;stroke-opacity:1;paint-order:markers stroke fill"
         d="m 444.77159,181.58063 -6.666,8.88805 10.5304,6.95586 2.222,9.46771 c 0,0 12.6558,0.57965 13.4287,-0.67627 0.7729,-1.25592 2.6084,-5.21689 2.6084,-5.69994 0,-0.48305 -1.5457,-11.30328 -2.0288,-12.26937 -0.483,-0.96609 -5.1203,-7.92196 -7.1491,-7.92196 -2.0287,0 -10.2405,-0.77287 -11.0134,-0.38643 -0.7729,0.38643 -1.9322,1.64235 -1.9322,1.64235 z"
         id="path28-6-3" /><path
         style="fill:#d6c1a3;fill-opacity:1;stroke:none;stroke-width:0.1;stroke-linejoin:round;stroke-dashoffset:318.954;stroke-opacity:1;paint-order:markers stroke fill"
         d="m 438.87849,165.92994 c 0,0 -4.1542,2.51184 -4.2508,3.38132 -0.097,0.86949 1.3525,10.91684 1.3525,11.30328 0,0.38644 -0.6763,2.99489 3.0915,2.89828 3.7677,-0.0966 5.4101,-1.83558 8.1151,-2.99489 2.7051,-1.15931 3.5746,-2.70506 7.6322,-1.64235 4.0576,1.0627 8.2118,2.51184 10.2405,2.60844 2.0288,0.0966 3.478,1.73897 5.3136,0 1.8355,-1.73896 2.6084,-3.09149 2.6084,-6.47281 0,-3.38133 -0.8695,-8.30839 -2.1254,-8.50161 -1.2559,-0.19322 -2.4152,-1.25592 -4.0576,-0.57966 -1.6423,0.67627 -6.0864,3.67115 -7.0525,4.05759 -0.966,0.38644 -4.2508,0.48304 -6.3762,0.28983 -2.1254,-0.19322 -1.8355,0.48304 -4.2508,-1.35253 -2.4152,-1.83558 -4.6372,-3.76776 -5.5067,-3.76776 -0.8695,0 -4.7338,0.77287 -4.7338,0.77287 z"
         id="path29-2-1" /><path
         style="fill:#e1d4ba;fill-opacity:1;stroke:none;stroke-width:0.1;stroke-linejoin:round;stroke-dashoffset:318.954;stroke-opacity:1;paint-order:markers stroke fill"
         d="m 411.82789,160.90626 c 0,0 -2.4153,5.12029 -2.0288,5.50673 0.3864,0.38643 3.6711,1.15931 4.7338,1.15931 1.0627,0 6.4728,1.0627 6.9559,-0.57966 0.4831,-1.64235 1.3525,-4.15419 0.7729,-4.54063 -0.5797,-0.38644 -4.7339,-2.80167 -6.183,-2.80167 -1.4492,0 -4.2508,1.25592 -4.2508,1.25592 z"
         id="path30-0-4" /><path
         style="fill:#39292c;fill-opacity:1;stroke:none;stroke-width:0.8;stroke-linejoin:round;stroke-dashoffset:318.954;stroke-opacity:1;paint-order:markers stroke fill"
         d="m 194.44949,1005.3768 -17.2149,16.9417 c 0,0 1.093,10.3835 2.4593,11.4766 1.3662,1.093 9.0173,6.558 13.6626,6.0115 4.6452,-0.5465 12.5696,-0.2732 17.7613,-1.9128 5.1918,-1.6395 19.9475,-7.651 22.1335,-9.0173 2.186,-1.3662 19.1276,-10.9301 20.7671,-11.4766 1.6395,-0.5465 15.8487,-10.1103 17.2149,-10.9301 1.3663,-0.8197 19.9474,-6.55801 19.9474,-6.55801 l 13.3894,-3.0058 1.093,-23.4997 0.8197,-31.1507 -45.6331,-0.2733 -4.372,8.1976 -12.0231,5.4651 -2.4593,14.2091 c 0,0 -14.7556,19.1276 -17.2148,20.4939 -2.4593,1.3662 -30.331,15.02881 -30.331,15.02881 z"
         id="path9-0" /><path
         style="fill:#9f5642;fill-opacity:1;stroke:none;stroke-width:0.1;stroke-linejoin:round;stroke-dashoffset:318.954;stroke-opacity:1;paint-order:markers stroke fill"
         d="m 247.11879,965.55109 -24.0462,22.4067 -16.3952,7.3778 -11.7498,11.74981 c 0,0 10.1103,4.6453 15.5754,5.4651 5.465,0.8197 15.0288,3.279 15.8486,4.9185 0.8197,1.6395 9.0173,8.4708 10.3836,8.4708 1.3662,0 11.4766,-4.6453 14.4823,-9.0173 3.0058,-4.372 19.1277,-15.0289 19.1277,-15.0289 l 5.465,-13.93581 c 0,0 0.8198,-7.9243 0,-9.2906 -0.8197,-1.3662 -7.651,-10.9301 -9.5638,-11.7498 -1.9128,-0.8198 -12.2964,-4.9186 -12.2964,-4.9186 z"
         id="path31-4-3" /><path
         style="fill:#9f5642;fill-opacity:1;stroke:none;stroke-width:0.1;stroke-linejoin:round;stroke-dashoffset:318.954;stroke-opacity:1;paint-order:markers stroke fill"
         d="m 283.73449,978.66719 c 5.4651,-0.5465 19.6742,-0.5465 19.6742,-0.5465 l 2.7325,-31.9705 7.6511,-39.3483 17.7614,-43.7203 15.3021,-30.6043 0.5465,-36.6157 4.9185,-31.1508 -0.8197,-5.465 -15.8487,18.3079 c 0,0 -19.4009,4.9185 -24.8659,2.4592 -5.465,-2.4592 -21.5869,-10.1103 -21.5869,-10.1103 l -7.3778,-4.0988 c 0,0 -2.186,13.1161 -2.186,15.8486 0,2.7326 -9.0174,61.2085 -9.0174,61.2085 0,0 -1.9127,55.1969 -1.9127,56.5632 0,1.3663 -5.1918,36.889 -5.4651,38.8018 -0.2732,1.9128 -6.0115,13.9359 -3.5522,13.9359 2.4592,0 10.1103,-0.2733 11.4765,0.8197 1.3663,1.093 6.2848,-4.0988 8.7441,7.3778 2.4593,11.4766 3.8255,18.3079 3.8255,18.3079 z"
         id="path32-8-6" /><path
         style="fill:#433525;fill-opacity:1;stroke:none;stroke-width:0.8;stroke-linejoin:round;stroke-dashoffset:318.954;stroke-opacity:1;paint-order:markers stroke fill"
         d="m 459.30549,498.08899 16.6168,152.6426 c 0,0 5.9898,10.2405 8.3084,10.4337 2.3186,0.1933 13.7185,4.4441 23.5727,2.5119 9.8541,-1.9322 43.8605,-11.5931 43.8605,-11.5931 0,0 22.0269,-3.0915 22.6066,-4.2508 0.5797,-1.1593 -6.183,-42.1216 -6.183,-42.1216 l -13.7185,-56.0334 c 0,0 -14.4914,-33.8132 -14.4914,-34.7793 0,-0.9661 -12.5592,-25.3116 -12.5592,-25.3116 z"
         id="path23-1" /><path
         style="fill:#85897b;fill-opacity:1;stroke:none;stroke-width:0.8;stroke-linejoin:round;stroke-dashoffset:318.954;stroke-opacity:1;paint-order:markers stroke fill"
         d="m 445.78019,502.72619 17.0033,56.0334 c 0,0 22.4133,4.2508 27.437,4.2508 5.0237,0 13.1388,1.3525 25.1184,-1.9322 11.9795,-3.2847 29.9488,-11.5931 30.7217,-11.7863 0.7729,-0.1932 4.6373,-3.0915 4.6373,-3.0915 l -23.3795,-56.613 -43.2809,6.5694 -25.6981,4.2508 z"
         id="path20-4" /><path
         style="fill:none;stroke:none;stroke-width:0.8;stroke-linejoin:round;stroke-dashoffset:318.954;stroke-opacity:1;paint-order:markers stroke fill"
         d="m 567.31459,440.31669 -11.0134,30.1421 8.5016,1.7389 9.8541,8.8881 9.661,14.6846 27.437,-25.5049 0.1932,-15.071 c 0,0 -6.7626,-11.3999 -7.5355,-12.366 -0.7729,-0.9661 -5.2169,-6.9558 -8.1152,-7.9219 -2.8983,-0.9661 -14.6846,-3.0915 -14.6846,-3.0915 l -11.3999,5.9897 z"
         id="path4-5" /><path
         style="fill:#39292c;fill-opacity:1;stroke:none;stroke-width:0.8;stroke-linejoin:round;stroke-dashoffset:318.954;stroke-opacity:1;paint-order:markers stroke fill"
         d="m 495.16339,888.01509 6.2848,14.8922 2.7325,10.7935 26.3689,37.0256 12.7062,18.1713 c 0,0 -0.9564,6.558 -4.7819,6.9679 -3.8255,0.4099 -27.8717,0.4099 -29.6479,0.4099 -1.7761,0 -25.0025,-4.5087 -26.3688,-6.1482 -1.3663,-1.6395 -11.0667,-16.805 -11.0667,-16.805 l -12.0231,-16.6684 c 0,0 -8.3342,-2.3226 -8.4708,-3.279 -0.1366,-0.9564 -0.2733,-14.7556 -0.1366,-15.8486 0.1366,-1.093 1.5028,-20.9038 1.9127,-21.8602 0.4099,-0.9564 19.2643,-16.5317 19.2643,-16.5317 z"
         id="path10-70" /><path
         style="fill:#9f5642;fill-opacity:1;stroke:none;stroke-width:0.8;stroke-linejoin:round;stroke-dashoffset:318.954;stroke-opacity:1;paint-order:markers stroke fill"
         d="m 479.99789,912.74439 -10.3835,16.6683 4.0987,13.1161 16.9417,13.6627 11.7498,0.5465 8.1976,-3.2791 16.6684,1.3663 -8.7441,-13.1161 -16.3951,-26.2322 -6.2848,-7.3778 c 0,0 -8.1976,1.093 -9.2906,1.093 -1.093,0 -6.5581,3.5523 -6.5581,3.5523 z"
         id="path5-7" /><path
         style="fill:#39292c;fill-opacity:1;stroke:none;stroke-width:0.8;stroke-linejoin:round;stroke-dashoffset:318.954;stroke-opacity:1;paint-order:markers stroke fill"
         d="m 434.36479,709.44479 c 0,0 -1.3662,13.9358 3.2791,15.3021 4.6452,1.3663 16.9416,0 16.9416,0 l 3.279,4.0988 6.5581,9.0173 c 0,0 0.2732,14.4824 0.2732,16.3951 0,1.9128 5.7383,23.4997 5.7383,23.4997 l 58.2027,20.4939 c 0,0 8.7441,-10.9301 8.7441,-13.3893 0,-2.4593 3.0058,-40.7146 3.0058,-40.7146 l -1.0931,-25.4124 8.1976,-6.8313 16.3951,-11.7499 -34.4297,-14.7556 -21.0404,12.0231 c 0,0 -7.6511,-5.465 -8.7441,-5.465 -1.093,0 -18.3079,7.651 -18.3079,7.651 l -15.8486,12.0231 -18.8544,-5.1918 z"
         id="path12-4" /><path
         style="fill:#9f5642;fill-opacity:1;stroke:none;stroke-width:0.8;stroke-linejoin:round;stroke-dashoffset:318.954;stroke-opacity:1;paint-order:markers stroke fill"
         d="m 456.22499,914.93039 c 0,0 9.2906,-14.7556 11.4766,-15.8486 2.186,-1.093 18.8544,-7.1046 18.8544,-7.1046 l 9.0173,0.5465 c 0,0 9.2906,-30.331 10.1103,-31.9705 0.8198,-1.6395 19.4009,-30.331 19.4009,-30.331 l 6.2848,-24.3194 1.6395,-16.1219 c 0,0 -5.1917,-4.9185 -6.2848,-4.9185 -1.093,0 -9.0173,3.0057 -11.4765,2.4592 -2.4593,-0.5465 -23.4997,-6.0115 -23.4997,-6.0115 l -17.7614,-10.6568 -7.6511,2.4592 -9.5638,27.5985 v 39.0751 l -1.9128,46.4528 z"
         id="path6-9" /><path
         style="fill:#9f5642;fill-opacity:1;stroke:none;stroke-width:0.8;stroke-linejoin:round;stroke-dashoffset:318.954;stroke-opacity:1;paint-order:markers stroke fill"
         d="m 477.81189,722.56089 0.5465,21.0404 6.0116,21.5869 c 0,0 13.6626,12.5696 16.3951,12.8429 2.7325,0.2732 14.2091,1.6395 16.6684,1.6395 2.4592,0 14.2091,-1.3663 14.4823,-4.0988 0.2733,-2.7325 3.0058,-22.1334 3.0058,-22.1334 l -0.5465,-31.424 c 0,0 -1.6395,-6.5581 -3.279,-6.5581 -1.6395,0 -20.4939,-1.3662 -22.1334,-1.3662 -1.6396,0 -23.773,5.1918 -23.773,5.1918 z"
         id="path7-0" /><path
         style="fill:#9f5642;fill-opacity:1;stroke:none;stroke-width:0.8;stroke-linejoin:round;stroke-dashoffset:318.954;stroke-opacity:1;paint-order:markers stroke fill"
         d="m 291.18069,700.97399 c -1.093,0 -6.8313,15.3021 -6.8313,15.3021 l 0.8198,27.052 c 0,0 6.558,17.2148 7.651,18.5811 1.093,1.3663 13.3894,3.8255 19.1277,3.8255 5.7383,0 14.7556,1.6395 20.2206,-5.465 5.4651,-7.1046 16.6684,-19.9474 16.6684,-22.1334 0,-2.1861 -0.2732,-18.3079 -3.0058,-22.68 -2.7325,-4.372 -10.6568,-22.4066 -12.2963,-22.6799 -1.6395,-0.2732 -17.2149,-6.558 -19.4009,-6.558 -2.186,0 -18.3079,1.6395 -18.3079,1.6395 z"
         id="path8-3" /><path
         style="fill:#948d7e;fill-opacity:1;stroke:none;stroke-width:0.8;stroke-linejoin:round;stroke-dashoffset:318.954;stroke-opacity:1;paint-order:markers stroke fill"
         d="m 275.05879,612.16699 c 0,0 4.0988,8.7441 5.1918,8.7441 1.093,0 17.2149,6.8313 17.2149,6.8313 l 23.2264,5.1918 1.0931,-6.5581 -31.9705,-12.5696 -8.4709,-5.1917 z"
         id="path13-6" /><path
         style="fill:#433525;fill-opacity:1;stroke:none;stroke-width:0.8;stroke-linejoin:round;stroke-dashoffset:318.954;stroke-opacity:1;paint-order:markers stroke fill"
         d="m 379.31309,492.48569 -57.1926,137.3783 c 0,0 -29.9489,-7.3423 -31.6879,-7.7288 -1.7389,-0.3864 -12.1727,-4.6372 -12.366,-5.4101 -0.1932,-0.7729 4.4441,-21.254 4.8305,-22.6065 0.3864,-1.3526 21.8337,-56.0334 21.8337,-56.0334 l 23.7659,-39.9962 22.2201,-20.4812 9.0812,6.183 c 0,0 5.7966,3.0915 7.3423,3.8644 1.5458,0.7729 12.1728,4.8305 12.1728,4.8305 z"
         id="path24-4" /><path
         style="fill:#85897b;fill-opacity:1;stroke:none;stroke-width:0.8;stroke-linejoin:round;stroke-dashoffset:318.954;stroke-opacity:1;paint-order:markers stroke fill"
         d="m 293.91059,562.43069 -15.2643,41.7352 c 0,0 9.6609,5.2169 10.8202,5.6033 1.1593,0.3865 24.1523,10.2406 25.3117,10.4338 1.1593,0.1933 9.8541,3.0915 9.8541,3.0915 l 17.3896,-45.4063 2.3187,-7.1491 c 0,0 -11.7864,-0.9661 -14.105,-0.9661 -2.3186,0 -20.8676,-4.6372 -20.8676,-4.6372 l -12.1727,-11.2067 -0.7729,-4.6372 z"
         id="path14-3" /><path
         style="fill:#85897b;fill-opacity:1;stroke:none;stroke-width:0.8;stroke-linejoin:round;stroke-dashoffset:318.954;stroke-opacity:1;paint-order:markers stroke fill"
         d="m 301.63929,540.98349 c 0,0 6.5694,15.2642 7.5355,16.2303 0.9661,0.9661 9.4677,7.3423 10.627,7.3423 1.1593,0 12.1728,0 14.8778,-0.1932 2.7051,-0.1932 12.1728,-3.6711 12.1728,-3.6711 l 12.1728,-30.1421 -12.5592,-1.5458 -13.9118,-5.2169 -12.3659,-12.5592 -1.739,-3.0915 z"
         id="path15-0" /><path
         style="fill:#85897b;fill-opacity:1;stroke:none;stroke-width:0.8;stroke-linejoin:round;stroke-dashoffset:318.954;stroke-opacity:1;paint-order:markers stroke fill"
         d="m 344.53379,480.89259 c 0,0 -9.2745,8.1151 -12.366,10.2405 -3.0915,2.1254 -10.4338,12.1728 -10.627,13.7185 -0.1932,1.5458 0.7729,8.1152 4.2508,9.4677 3.4779,1.3526 13.1389,8.6949 13.1389,8.6949 0,0 11.0134,2.1254 11.9795,2.3186 0.9661,0.1932 9.8541,4.0576 11.2067,0.1932 1.3525,-3.8644 10.8202,-25.698 10.8202,-25.698 l 0.1932,-7.7288 z"
         id="path16-0" /><path
         style="fill:#9f9a7f;fill-opacity:1;stroke:none;stroke-width:0.8;stroke-linejoin:round;stroke-dashoffset:318.954;stroke-opacity:1;paint-order:markers stroke fill"
         d="m 474.95619,499.05509 1.739,55.6469 19.9015,1.739 7.7287,2.3186 c 0,0 8.6949,-1.9322 9.661,-1.9322 0.966,0 13.5252,-2.7051 13.5252,-2.7051 0,0 -12.9456,-5.9897 -14.6846,-6.5694 -1.7389,-0.5796 -15.4574,-13.9117 -15.4574,-15.4575 0,-1.5457 -7.922,-33.2335 -7.922,-33.2335 l -10.4338,-2.5119 z"
         id="path17-3" /><path
         style="fill:#85897b;fill-opacity:1;stroke:none;stroke-width:0.8;stroke-linejoin:round;stroke-dashoffset:318.954;stroke-opacity:1;paint-order:markers stroke fill"
         d="m 462.97669,570.15949 c 0,0 5.0237,34.7793 6.183,34.7793 1.1593,0 17.9693,4.2508 23.5726,4.2508 5.6034,0 35.7454,-5.9898 37.2912,-6.183 1.5457,-0.1932 29.7556,-10.8202 29.7556,-10.8202 l -10.8202,-37.6776 c 0,0 -22.993,11.2066 -24.1523,11.3999 -1.1593,0.1932 -29.5624,2.705 -29.5624,2.705 l -26.471,1.3525 z"
         id="path21-5" /><path
         style="fill:#9f9a7f;fill-opacity:1;stroke:none;stroke-width:0.8;stroke-linejoin:round;stroke-dashoffset:318.954;stroke-opacity:1;paint-order:markers stroke fill"
         d="m 494.85769,567.45439 4.6373,34.9725 h 10.2405 c 0,0 11.7864,0.5797 15.0711,0.5797 3.2847,0 11.2067,-2.8983 9.6609,-3.8644 -1.5457,-0.9661 -6.7626,-4.0576 -8.6948,-5.9897 -1.9322,-1.9322 -7.7288,-14.2982 -7.7288,-15.6507 0,-1.3526 -1.9321,-11.9796 -1.9321,-11.9796 z"
         id="path18-2" /><path
         style="fill:#85897b;fill-opacity:1;stroke:none;stroke-width:0.8;stroke-linejoin:round;stroke-dashoffset:318.954;stroke-opacity:1;paint-order:markers stroke fill"
         d="m 472.25119,612.28109 c 0,12.366 3.6711,36.1318 3.6711,36.1318 0,0 5.6034,5.0237 13.1389,5.2169 7.5355,0.1932 24.9252,0.3865 26.6641,0.1932 1.739,-0.1932 34.0065,-7.7287 38.4505,-9.4677 4.444,-1.7389 18.9354,-9.0812 18.9354,-9.0812 l -10.2406,-33.8132 c 0,0 -27.8234,7.7287 -29.9488,7.7287 -2.1254,0 -42.8945,3.2847 -43.6674,3.2847 -0.7729,0 -17.0032,-0.1932 -17.0032,-0.1932 z"
         id="path22-9" /><path
         style="fill:#9f9a7f;fill-opacity:1;stroke:none;stroke-width:0.8;stroke-linejoin:round;stroke-dashoffset:318.954;stroke-opacity:1;paint-order:markers stroke fill"
         d="m 505.29149,612.86069 7.1491,31.6879 -2.7051,4.6372 c 0,0 2.5119,1.739 3.2848,1.739 0.7728,0 17.7761,-2.7051 18.7421,-2.7051 0.9661,0 22.7998,-5.6033 22.7998,-5.6033 l 0.1932,-3.0915 c 0,0 -3.6711,-3.8644 -6.3762,-3.0915 -2.705,0.7729 -10.2405,2.705 -10.4338,0.7729 -0.1932,-1.9322 -8.6948,-27.0506 -8.6948,-27.0506 z"
         id="path19-6" /><path
         style="fill:#c4b69e;fill-opacity:1;stroke:none;stroke-width:0.8;stroke-linejoin:round;stroke-dashoffset:318.954;stroke-opacity:1;paint-order:markers stroke fill"
         d="m 509.78239,497.67439 -0.4099,11.0667 c 0,0 2.5959,2.5959 5.6017,2.186 3.0058,-0.4099 6.0116,-0.8197 6.1482,-1.7761 0.1366,-0.9564 2.186,-4.9186 1.3662,-5.4651 -0.8197,-0.5465 -5.465,-3.0057 -5.465,-3.0057 l -6.4214,-4.6453 z"
         id="path3-4" /><path
         style="fill:#bb9c6a;fill-opacity:1;stroke:none;stroke-width:0.8;stroke-linejoin:round;stroke-dashoffset:318.954;stroke-opacity:1;paint-order:markers stroke fill"
         d="m 372.35719,502.14659 c 0,0 -12.1727,57.1926 -12.1727,57.9655 0,0.7729 -11.7863,36.5183 -11.7863,36.5183 l -14.4914,34.9725 -13.1389,16.6168 -2.1254,12.1728 1.739,6.5694 3.2847,3.4779 c 0,0 4.0576,0.5797 4.6372,-0.5796 0.5797,-1.1593 2.3187,-10.2406 2.3187,-12.5592 0,-2.3186 1.7389,-5.6034 5.6033,-11.3999 3.8644,-5.7966 25.3116,-40.3827 25.3116,-40.3827 l 12.1728,-37.8708 5.4101,-36.7115 c 0,0 2.3186,-23.1862 2.3186,-24.3455 0,-1.1593 0.5797,-5.0237 -0.9661,-5.4101 -1.5457,-0.3865 -8.1152,0.9661 -8.1152,0.9661 z"
         id="path26-9" /><path
         style="fill:#bb9c6a;fill-opacity:1;stroke:none;stroke-width:0.8;stroke-linejoin:round;stroke-dashoffset:318.954;stroke-opacity:1;paint-order:markers stroke fill"
         d="m 317.67639,673.14489 -2.8982,-11.0135 4.6372,-13.332 c 0,0 5.9898,-9.0813 6.7626,-10.4338 0.7729,-1.3526 5.6034,-13.7185 5.6034,-13.7185 l -10.0474,14.1049 -14.1049,20.2879 c 0,0 0,10.8203 0,11.5931 0,0.7729 2.3186,7.1491 2.3186,7.1491 l 2.705,0.3865 z"
         id="path27-1" /><path
         style="fill:#bb9c6a;fill-opacity:1;stroke:none;stroke-width:0.8;stroke-linejoin:round;stroke-dashoffset:318.954;stroke-opacity:1;paint-order:markers stroke fill"
         d="m 283.86319,648.99259 0.5797,6.3762 c 0,0 -0.1933,2.7051 1.9321,1.9322 2.1254,-0.7729 3.6712,-4.6373 3.6712,-4.6373 0,0 -0.5797,-5.2169 0,-6.3762 0.5796,-1.1593 6.5694,-11.0134 6.5694,-11.0134 l 0.5797,-5.7966 -7.5355,4.444 z"
         id="path28-8" /><path
         style="fill:#bb9c6a;fill-opacity:1;stroke:none;stroke-width:0.8;stroke-linejoin:round;stroke-dashoffset:318.954;stroke-opacity:1;paint-order:markers stroke fill"
         d="m 389.55369,627.73859 -11.7863,30.9149 -4.2508,15.2643 c 0,0 1.9321,8.5016 2.5118,7.7287 0.5796,-0.7729 4.0576,1.739 5.7965,-5.9898 1.739,-7.7287 8.3084,-28.4031 8.6949,-29.7556 0.3864,-1.3525 3.4779,-9.2745 3.4779,-9.2745 l -2.1254,-10.0474 z"
         id="path29-3" /><path
         style="fill:#bb9c6a;fill-opacity:1;stroke:none;stroke-width:2.7;stroke-linejoin:round;stroke-dashoffset:318.954;paint-order:markers stroke fill"
         d="m 394.06009,647.96309 -7.7876,29.2379 c 0,0 -7.3779,10.6569 -7.3779,11.2034 0,0.5465 1.6396,8.8807 2.4593,8.8807 0.8198,0 3.1424,6.2848 6.0116,0.5465 2.8691,-5.7383 7.2411,-17.3515 7.7877,-18.1713 0.5465,-0.8197 2.8691,-21.177 3.1424,-22.6799 0.2732,-1.5029 0,-22.2701 0,-22.2701 z"
         id="path25-05" /><path
         style="fill:#bb9c6a;fill-opacity:1;stroke:none;stroke-width:2.7;stroke-linejoin:round;stroke-dashoffset:318.954;paint-order:markers stroke fill"
         d="m 416.46679,544.81039 c 0,0 0.2733,45.4965 0.1366,46.5895 -0.1366,1.093 -0.4098,28.1449 -0.4098,28.1449 l 6.558,14.619 2.8692,3.6889 1.9127,-25.6857 -1.6395,-73.3682 3.0058,-32.6536 c 0,0 1.6395,-3.0058 2.186,-3.1424 0.5465,-0.1366 -0.2732,-4.7819 -1.9128,-4.7819 -1.6395,0 -8.4708,1.6395 -9.0173,1.9128 -0.5465,0.2732 -3.0058,4.7819 -3.0058,4.7819 z"
         id="path30-9" /><path
         style="fill:#bb9c6a;fill-opacity:1;stroke:none;stroke-width:2.7;stroke-linejoin:round;stroke-dashoffset:318.954;paint-order:markers stroke fill"
         d="m 401.30129,500.40689 c 0,0.5465 -0.8197,32.6536 -0.4099,33.61 0.4099,0.9564 -0.2732,28.4182 -0.4098,29.9211 -0.1367,1.5029 -0.6832,24.4561 -0.6832,25.1392 0,0.6832 -0.1366,9.7005 0.9564,9.7005 1.093,0 2.3227,4.0988 2.3227,-2.7325 0,-6.8313 0.6831,-29.6479 0.8197,-30.7409 0.1366,-1.093 3.279,-43.4471 3.5523,-44.4035 0.2732,-0.9564 4.0988,-16.6684 4.0988,-16.6684 0,0 -0.2733,-3.9621 -2.4593,-4.2354 -2.186,-0.2732 -7.7877,0.4099 -7.7877,0.4099 z"
         id="path31-5" /><path
         style="fill:#bb9c6a;fill-opacity:1;stroke:none;stroke-width:2.7;stroke-linejoin:round;stroke-dashoffset:318.954;paint-order:markers stroke fill"
         d="m 443.92869,517.34849 c 0,0 -7.3779,23.2265 -7.3779,24.3195 0,1.093 2.1861,19.4009 2.1861,19.4009 l 1.093,8.1975 2.7325,-30.8774 6.2848,-13.9359 z"
         id="path32-5" /><path
         style="fill:#bb9c6a;fill-opacity:1;stroke:none;stroke-width:2.7;stroke-linejoin:round;stroke-dashoffset:318.954;paint-order:markers stroke fill"
         d="m 447.51919,535.18689 c 0,0 -3.4779,55.4537 -3.4779,56.9995 0,1.5457 0,34.1996 0,34.1996 l 7.3423,21.8337 c 0,0 -0.5797,-61.057 -0.5797,-61.8299 0,-0.7729 4.6373,-31.6878 4.6373,-31.6878 l -2.8983,-17.3897 -3.0915,-2.1254 z"
         id="path33-5" /><path
         style="fill:#bb9c6a;fill-opacity:1;stroke:none;stroke-width:2.7;stroke-linejoin:round;stroke-dashoffset:318.954;paint-order:markers stroke fill"
         d="m 436.31249,613.24719 6.7627,63.9553 c 0,0 1.739,12.366 2.5118,12.366 0.7729,0 3.478,2.8982 4.8305,-0.5797 1.3525,-3.4779 4.6372,-2.7051 1.3525,-13.1389 -3.2847,-10.4337 -10.4338,-45.4063 -10.4338,-46.7588 0,-1.3525 -2.8983,-17.1965 -2.8983,-17.1965 z"
         id="path34-9" /><path
         style="fill:#bb9c6a;fill-opacity:1;stroke:none;stroke-width:2.7;stroke-linejoin:round;stroke-dashoffset:318.954;paint-order:markers stroke fill"
         d="m 454.66829,579.82039 c 0,0 0,68.0129 0,70.5247 0,2.5119 0,22.993 0,24.1523 0,1.1593 2.8983,7.7288 2.8983,7.7288 0,0 3.0915,12.1727 3.0915,-0.5797 0,-12.7524 -1.5458,-59.8977 -1.5458,-63.5689 0,-3.6711 -4.444,-38.2572 -4.444,-38.2572 z"
         id="path35-0" /><path
         style="fill:#bb9c6a;fill-opacity:1;stroke:none;stroke-width:2.7;stroke-linejoin:round;stroke-dashoffset:318.954;paint-order:markers stroke fill"
         d="m 484.42389,661.74499 1.739,11.5931 c 0,0 3.6711,5.9898 4.8305,6.3762 1.1593,0.3865 3.4779,0.9661 3.4779,0.9661 l -2.5118,-16.6168 -2.5119,-5.2169 z"
         id="path36-6" /><path
         style="fill:#bb9c6a;fill-opacity:1;stroke:none;stroke-width:2.7;stroke-linejoin:round;stroke-dashoffset:318.954;paint-order:markers stroke fill"
         d="m 494.85769,660.97209 2.3186,29.5624 c 0,0 6.9559,4.6373 8.8881,4.0576 1.9322,-0.5796 10.0474,-3.2847 10.0474,-3.2847 0,0 1.7389,-8.3084 0.7728,-9.8541 -0.9661,-1.5458 -5.0237,-22.0269 -5.0237,-22.0269 z"
         id="path37-7" /><path
         style="fill:#57432b;fill-opacity:1;stroke:none;stroke-width:2.7;stroke-linejoin:round;stroke-dashoffset:318.954;stroke-opacity:1;paint-order:markers stroke fill"
         d="m 354.19469,457.70629 c 0,0 -4.6372,18.549 -3.0915,22.4134 1.5458,3.8643 22.0269,16.2303 22.0269,16.2303 l 27.437,0.3865 c 0,0 23.9591,-0.3865 27.8235,-0.3865 3.8644,0 32.4607,0.3865 35.5522,0.3865 3.0915,0 33.2335,-2.7051 35.5522,-2.7051 2.3186,0 20.8676,-7.7287 20.8676,-7.7287 l 6.9558,-13.1389 v -12.366 l -37.8708,7.3423 -40.9623,7.3423 c 0,0 -29.7556,0.7729 -34.0064,-0.3864 -4.2508,-1.1593 -36.7115,-9.2745 -36.7115,-9.2745 l -17.7761,-10.4338 z"
         id="path38-4" /><path
         style="fill:#6f3520;fill-opacity:1;stroke:none;stroke-width:2.7;stroke-linejoin:round;stroke-dashoffset:318.954;stroke-opacity:1;paint-order:markers stroke fill"
         d="m 198.26739,215.02398 -6.5694,6.18299 v 8.88805 l 4.2508,-0.19322 3.6712,26.47093 c 0,0 1.9322,3.67115 4.0576,3.67115 2.1254,0 2.1254,-0.19322 7.149,-3.86437 5.0237,-3.67115 16.0372,-14.6846 16.0372,-15.45748 0,-0.77287 1.5457,-1.35253 -0.1933,-3.67115 -1.7389,-2.31862 -5.4101,-4.83046 -7.9219,-7.14908 -2.5118,-2.31862 -1.9322,-3.47793 -3.6712,-3.67115 -1.7389,-0.19322 -13.1388,-1.35253 -13.1388,-1.35253 0,0 -0.7729,3.86437 -0.7729,3.0915 0,-0.77288 -2.8983,-12.94564 -2.8983,-12.94564 z"
         id="path41-6" /><path
         style="fill:#928364;fill-opacity:1;stroke:none;stroke-width:2.7;stroke-linejoin:round;stroke-dashoffset:318.954;stroke-opacity:1;paint-order:markers stroke fill"
         d="m 199.04029,214.83076 5.9898,-0.77287 -0.3865,5.79655 14.4914,0.38644 13.9118,13.52529 -1.1594,7.53552 127.6064,102.25849 150.2886,118.59141 297.2983,233.3573 -2.7325,8.7441 -9.2906,-3.5523 -577.9282,-457.15078 -25.959,-23.22643 1.3663,-6.01155 z"
         id="path42-0" /><path
         style="fill:#c4b69e;fill-opacity:1;stroke:none;stroke-width:0.8;stroke-linejoin:round;stroke-dashoffset:318.954;stroke-opacity:1;paint-order:markers stroke fill"
         d="m 372.33659,333.1766 -14.4824,13.93586 -7.2411,7.92431 -2.1861,16.12188 c 0,0 -1.093,17.21488 -0.1366,18.44452 0.9564,1.22963 4.6453,16.94162 6.8313,17.07822 2.186,0.1367 5.7383,3.2791 9.0173,2.3227 3.2791,-0.9564 14.619,-6.96795 16.3952,-6.96795 1.7761,0 14.4823,-8.19756 15.3021,-9.15395 0.8197,-0.95638 8.4708,-10.79346 8.4708,-10.79346 0,0 3.1424,-8.47081 2.0494,-9.15394 -1.093,-0.68313 -1.9128,-1.91277 -2.5959,-0.68313 -0.6831,1.22963 -4.6453,6.8313 -5.7383,7.92431 -1.093,1.09301 -2.0494,2.45927 -2.5959,2.45927 -0.5465,0 -5.6017,-0.27325 -3.9622,-2.32264 1.6396,-2.04939 2.0494,-6.83131 3.9622,-8.60745 1.9128,-1.77613 5.6017,-4.09878 6.8313,-6.01154 1.2296,-1.91277 3.0058,-3.96216 2.0494,-5.05517 -0.9564,-1.09301 -2.186,-3.82553 -4.5087,-3.55227 -2.3226,0.27325 -7.5144,1.50288 -8.4708,3.14239 -0.9564,1.63952 -5.6016,7.24119 -5.6016,7.24119 l -2.1861,-2.86915 c 0,0 -3.8255,-2.18602 1.6395,-5.32842 5.4651,-3.1424 13.1162,-12.70622 13.526,-14.07248 0.4099,-1.36626 2.3227,-5.7383 0.2733,-5.7383 -2.0494,0 -5.4651,-0.81975 -6.8313,0 -1.3663,0.81976 -11.2034,5.46505 -11.7499,6.55805 -0.5465,1.09301 -8.1975,10.79346 -9.1539,8.47082 -0.9564,-2.32264 -3.5523,-3.6889 -1.5029,-7.10455 2.0494,-3.41566 8.4708,-8.8807 9.1539,-9.56383 0.6832,-0.68313 3.689,-4.37203 3.689,-5.32842 0,-0.95638 -3.0058,-1.91276 -3.689,-1.91276 -0.6831,0 -6.558,2.59589 -6.558,2.59589 z"
         id="path1-5" /><path
         style="fill:#c4b69e;fill-opacity:1;stroke:none;stroke-width:0.8;stroke-linejoin:round;stroke-dashoffset:318.954;stroke-opacity:1;paint-order:markers stroke fill"
         d="m 537.92739,474.17469 c -4.6453,2.186 -16.1219,6.9679 -16.1219,6.9679 l -2.5959,5.0552 -0.1366,11.0667 c 0,0 5.0552,0.8198 5.1918,0 0.1366,-0.8197 0.4099,-8.8807 0.4099,-8.8807 0,0 9.2905,-3.1424 12.1597,-5.3284 2.8691,-2.186 8.8807,-7.3778 8.8807,-7.3778 0,0 2.8691,0.6831 3.1424,1.2296 0.2732,0.5465 1.3662,4.5087 -1.093,5.0552 -2.4593,0.5465 -14.3458,7.5144 -14.3458,7.5144 l -5.0551,4.2354 c 0,0 0,9.9737 0,10.6569 0,0.6831 0.1366,5.3284 1.6395,5.465 1.5029,0.1366 5.8749,0.1366 5.8749,0.1366 0,0 2.3226,1.7762 2.0494,-0.8197 -0.2733,-2.5959 0.6831,-3.9622 -0.8198,-4.7819 -1.5029,-0.8198 -2.3226,-1.093 -2.3226,-1.6395 0,-0.5465 0.4099,-2.4593 0.4099,-2.4593 l 3.5522,0.2732 c 0,0 6.8313,-2.8691 7.5145,-2.8691 0.6831,0 11.0667,-6.8313 11.0667,-6.8313 l 2.3226,1.7761 c 0,0 1.7762,3.4157 0.6832,3.8256 -1.093,0.4098 -15.4388,8.3341 -15.4388,8.3341 l -0.9564,12.9795 c 0,0 -0.1366,2.0494 2.186,2.0494 2.3227,0 4.9186,0.9564 5.875,-0.8197 0.9564,-1.7762 2.0494,-5.875 2.0494,-5.875 l 3.6889,-2.0494 10.7934,-8.1975 3.4157,0.5465 -10.7935,9.7004 -4.372,3.4157 -1.2297,1.3663 -0.2732,4.9185 4.5087,-0.2733 13.6626,-6.4214 7.2411,-6.9679 0.5465,-5.6017 -5.465,-4.7819 0.4099,-9.7004 -11.0667,-4.2355 -5.3284,-10.6568 -6.6947,-0.8197 -4.3721,-3.8256 z"
         id="path2-3" /><path
         style="fill:#3c3e39;fill-opacity:1;stroke:none;stroke-width:2.7;stroke-linejoin:round;stroke-dashoffset:318.954;stroke-opacity:1;paint-order:markers stroke fill"
         d="m 387.42829,246.7118 c 0,0 -9.6609,5.41012 -11.9796,8.3084 -2.3186,2.89827 -12.9456,19.12862 -13.332,20.48115 -0.3865,1.35253 -1.9322,14.6846 -1.9322,16.61679 0,1.93218 0.5796,16.81 0,18.9354 -0.5797,2.1254 -2.5119,5.79655 -3.8644,7.3423 -1.3525,1.54575 -3.4779,2.31862 -3.6711,3.28472 -0.1933,0.96609 -1.5458,3.47793 1.9321,2.70505 3.478,-0.77287 6.183,0.77288 8.5017,-2.70505 2.3186,-3.47794 3.2847,-12.75242 4.0575,-15.26426 0.7729,-2.51184 3.2848,-20.09472 3.2848,-20.09472 0,0 -2.8983,-10.04736 -0.3865,-13.13885 2.5119,-3.0915 15.4575,-19.32184 15.4575,-19.32184 l 4.8305,-5.98977 z"
         id="path43-6" /><path
         style="fill:#3b3d3e;fill-opacity:1;stroke:none;stroke-width:2.7;stroke-linejoin:round;stroke-dashoffset:318.954;stroke-opacity:1;paint-order:markers stroke fill"
         d="m 329.46279,329.98895 -28.0167,30.14207 c 0,0 -1.739,7.14908 -1.1593,8.88805 0.5796,1.73897 3.4779,5.02368 3.4779,5.02368 0,0 8.6948,2.89828 11.2067,2.1254 2.5118,-0.77287 10.8202,-2.89827 15.4574,-6.76264 4.6373,-3.86437 6.183,-2.51184 7.3423,-6.76265 1.1594,-4.2508 2.7051,-21.06081 2.7051,-22.79977 0,-1.73897 -1.9322,-16.03713 -1.9322,-16.03713 z"
         id="path44-1" /><path
         style="fill:#444341;fill-opacity:1;stroke:none;stroke-width:2.7;stroke-linejoin:round;stroke-dashoffset:318.954;stroke-opacity:1;paint-order:markers stroke fill"
         d="m 296.22919,382.54436 c 0,0 -21.6405,4.05759 -22.6066,4.83046 -0.9661,0.77287 -5.9897,7.3423 -8.1151,9.27449 -2.1255,1.93218 -6.7627,10.43378 -5.9898,13.52528 0.7729,3.0915 5.7965,21.4473 7.3423,22.6066 1.5457,1.1593 5.4101,5.4101 10.627,6.9558 5.2169,1.5458 18.549,0.3865 21.6405,-0.1932 3.0915,-0.5796 8.3084,-1.5457 8.3084,-1.5457 l 1.3525,5.7965 c 0,0 -5.9898,5.0237 -9.6609,5.0237 -3.6712,0 -23.7659,-1.5458 -26.0845,-2.1254 -2.3187,-0.5797 -20.0947,-5.0237 -21.2541,-9.6609 -1.1593,-4.6373 -3.6711,-25.5049 -3.6711,-25.5049 0,0 6.7626,-17.96928 9.0813,-19.90146 2.3186,-1.93219 17.5828,-14.29817 19.1286,-14.6846 1.5457,-0.38644 16.6168,-1.35253 17.9693,-1.35253 1.3525,0 7.3423,2.31862 7.5355,3.09149 0.1932,0.77288 -5.6033,3.86437 -5.6033,3.86437 z"
         id="path45-0" /><path
         style="fill:#444341;fill-opacity:1;stroke:none;stroke-width:2.7;stroke-linejoin:round;stroke-dashoffset:318.954;stroke-opacity:1;paint-order:markers stroke fill"
         d="m 285.21569,424.27959 c 0,0 25.6981,-12.7525 30.915,-14.105 5.2169,-1.3525 22.2201,-7.92195 22.2201,-7.92195 0,0 1.739,1.54575 2.8983,3.28475 1.1593,1.7389 5.4101,10.4338 5.4101,10.4338 0,0 12.7524,-1.1594 3.0915,1.5457 -9.6609,2.7051 -31.1082,16.81 -34.3929,17.3897 -3.2847,0.5796 -11.9795,3.2847 -13.9117,3.4779 -1.9322,0.1932 -12.366,0 -13.5253,0 -1.1593,0 -7.7287,-4.444 -7.7287,-4.444 l -3.8644,-5.9898 z"
         id="path46-2" /><path
         style="fill:#b0a99a;fill-opacity:1;stroke:none;stroke-width:2.7;stroke-linejoin:round;stroke-dashoffset:318.954;stroke-opacity:1;paint-order:markers stroke fill"
         d="m 340.86259,377.52068 c 0,0 -0.1932,14.49138 0,16.23035 0.1933,1.73897 -0.7728,9.85414 2.7051,12.55916 3.4779,2.7051 6.7626,5.6034 8.6948,6.7627 1.9322,1.1593 3.2847,3.6711 4.6373,2.1254 1.3525,-1.5458 3.6711,-3.6712 1.3525,-4.2508 -2.3186,-0.5797 -7.3423,-3.6712 -8.5016,-4.6373 -1.1593,-0.9661 -5.9898,-9.66088 -5.6033,-11.78629 0.3864,-2.1254 2.1254,-15.65069 2.1254,-15.65069 0,0 -0.5797,-1.93218 -1.5458,-1.93218 -0.9661,0 -3.8644,0.57965 -3.8644,0.57965 z"
         id="path47-4" /><path
         style="fill:#3c3e39;fill-opacity:1;stroke:none;stroke-width:2.7;stroke-linejoin:round;stroke-dashoffset:318.954;stroke-opacity:1;paint-order:markers stroke fill"
         d="m 331.00849,283.23009 c 0,0 4.2508,1.93218 6.5694,0.77287 2.3186,-1.15931 8.1152,-6.18299 9.6609,-10.62701 1.5458,-4.44403 1.5458,-9.08127 4.0576,-12.36598 2.5119,-3.28471 4.0576,-9.08127 6.9559,-9.08127 2.8983,0 9.0813,-1.15931 9.0813,-1.15931 0,0 -2.3187,8.88805 -3.478,10.24058 -1.1593,1.35253 -6.3762,6.95586 -6.3762,9.08126 0,2.12541 -3.0915,11.39989 -3.0915,11.39989 0,0 7.1491,-11.5931 8.6949,-14.10494 1.5457,-2.51184 7.149,-11.39989 7.149,-11.39989 l 3.8644,-8.30839 c 0,0 -0.7729,-2.12541 -3.0915,-1.93219 -2.3186,0.19322 -16.81,4.83046 -16.81,4.83046 l -14.8778,8.88805 -7.3423,16.23035 z"
         id="path48-1" /><path
         id="path50-0"
         style="fill:#47453f;fill-opacity:1;stroke:none;stroke-width:2.7;stroke-linejoin:round;stroke-dashoffset:318.954;stroke-opacity:1;paint-order:markers stroke fill"
         d="m 558.48828,267.03516 c -1.48448,2.37976 -3.15234,5.56836 -3.15234,5.56836 0,0 1.1575,4.05692 0.1914,4.44336 -0.9661,0.38642 -6.76171,1.16015 -6.76172,1.16015 0,0 -2.12523,13.91185 0.19336,16.23047 2.3186,2.31862 6.76258,11.01299 7.92188,12.75195 1.1594,1.73897 -1.1594,6.5682 5.2168,3.66993 6.37619,-2.89827 15.26367,-5.79493 15.26367,-5.79493 0,0 5.60405,1.93164 6.37695,1.93164 0.7729,0 -8.69547,-7.92135 -8.88867,-12.55859 -0.1933,-4.63725 -0.9661,-7.15068 0,-7.53711 0.966,-0.38644 4.83115,2.89984 6.37695,4.83203 1.5457,1.93218 4.44422,4.63575 5.60352,5.98828 1.1593,1.35253 3.86328,1.16016 3.86328,1.16016 v -4.81445 l -1.93164,-3.6875 z" /><path
         style="fill:#bbbba6;fill-opacity:1;stroke:none;stroke-width:2.7;stroke-linejoin:round;stroke-dashoffset:318.954;stroke-opacity:1;paint-order:markers stroke fill"
         d="m 523.45409,276.66066 c 0,0 7.9219,14.10495 9.6609,17.38966 1.7389,3.28471 4.6372,10.4338 8.5016,15.65069 3.8644,5.2169 3.0915,8.88805 6.9559,6.18299 3.8643,-2.70506 7.9219,-1.15931 6.1829,-5.60333 -1.7389,-4.44403 -1.9321,-4.83046 -3.4779,-9.66092 -1.5457,-4.83046 -3.4779,-11.20667 -4.6372,-13.52529 -1.1593,-2.31862 -2.3187,-8.11518 -4.0576,-8.88805 -1.739,-0.77288 -6.7627,-1.35253 -6.7627,-1.35253 l 0.7729,-7.3423 c 0,0 -2.8983,-0.77287 -4.6372,-0.19322 -1.739,0.57966 -8.5016,7.3423 -8.5016,7.3423 z"
         id="path51-7" /><path
         style="fill:#373735;fill-opacity:1;stroke:none;stroke-width:2.7;stroke-linejoin:round;stroke-dashoffset:318.954;stroke-opacity:1;paint-order:markers stroke fill"
         d="m 518.81679,281.87756 c 0,0 -8.3084,11.20667 -9.2745,13.33207 -0.9661,2.1254 -4.444,10.62701 -5.6033,13.91173 -1.1593,3.28471 -2.3186,13.13885 -2.3186,15.65069 0,2.51184 0.7728,10.4338 3.2847,14.6846 2.5118,4.25081 6.9558,8.50161 7.7287,9.4677 0.7729,0.9661 5.4101,6.37621 8.3084,8.3084 2.8983,1.93218 5.7966,3.67115 7.5355,3.28471 1.739,-0.38644 4.0576,-0.19322 4.6373,-2.89828 0.5796,-2.70505 1.9322,-4.05758 1.1593,-7.72873 -0.7729,-3.67115 -7.3423,-9.66093 -8.6948,-9.66093 -1.3526,0 -3.2848,3.67115 -6.5695,-1.54574 -3.2847,-5.2169 -7.7287,-6.76265 -7.1491,-11.78633 0.5797,-5.02368 4.4441,-17.77609 5.6034,-21.44724 1.1593,-3.67115 3.6711,-14.87782 3.6711,-16.42357 0,-1.54575 -1.1593,-7.53552 -1.1593,-7.53552 z"
         id="path52-8" /><path
         style="fill:#47453f;fill-opacity:1;stroke:none;stroke-width:2.7;stroke-linejoin:round;stroke-dashoffset:318.954;stroke-opacity:1;paint-order:markers stroke fill"
         d="m 521.90829,285.93515 c 0,0 -4.0576,11.97954 -4.0576,13.91172 0,1.93219 1.3525,9.46771 3.478,11.39989 2.1254,1.93218 7.5355,5.2169 9.8541,5.2169 2.3186,0 3.8644,-1.15931 4.2508,-4.05759 0.3864,-2.89828 5.0237,3.67115 0.5797,-6.76264 -4.4441,-10.4338 -5.2169,-12.75242 -6.3763,-14.10495 -1.1593,-1.35253 -4.444,-4.83046 -4.444,-4.83046 z"
         id="path53-0" /><path
         style="fill:#47453f;fill-opacity:1;stroke:none;stroke-width:2.7;stroke-linejoin:round;stroke-dashoffset:318.954;stroke-opacity:1;paint-order:markers stroke fill"
         d="m 542.58269,343.70746 -0.1932,16.23034 c 0,0 -0.9661,4.63725 -7.3423,5.98978 -6.3762,1.35252 -16.4236,4.2508 -19.9015,-0.57966 -3.478,-4.83046 -17.5829,-24.1523 -17.5829,-24.1523 0,0 -0.1932,-34.00645 1.3525,-35.74541 1.5458,-1.73897 12.366,-22.22012 13.9117,-23.18621 1.5458,-0.9661 2.8983,-3.0915 2.8983,-3.0915 l -16.2303,9.08127 c 0,0 -6.9559,16.42356 -7.5355,18.9354 -0.5797,2.51184 -3.0915,18.35575 -3.0915,18.35575 l -24.3456,3.86437 -4.6372,21.83368 -0.1932,57.57912 c 0,0 8.3084,-17.19646 11.2066,-19.12865 2.8983,-1.93218 12.9457,-9.08126 12.9457,-9.08126 0,0 4.0576,21.44724 4.8304,20.09471 0.7729,-1.35253 2.7051,-26.85736 3.8644,-27.2438 1.1593,-0.38643 8.6948,-5.60333 8.6948,-5.60333 0,0 10.4338,13.71851 9.8542,17.00322 -0.5797,3.28471 -5.6034,23.18621 -6.5695,25.89131 -0.966,2.705 -3.2847,11.3998 -0.966,12.3659 2.3186,0.9661 8.888,3.478 10.2405,4.4441 1.3526,0.9661 -3.8643,21.0608 -3.8643,21.0608 l 1.1593,10.0473 14.6846,-5.9897 13.9117,-39.6098 4.8305,-20.67439 2.1254,-4.25081 1.1593,-11.01345 c 0,0 -3.2847,-2.70505 -1.9322,-4.63724 1.3525,-1.93218 6.9559,-4.44402 7.5355,-5.2169 0.5797,-0.77287 -3.4779,-15.65069 -3.4779,-15.65069 0,0 -2.1254,-4.83046 -0.9661,-5.2169 1.1593,-0.38643 22.2201,-7.14908 22.2201,-7.14908 0,0 10.8202,11.39989 10.8202,12.36598 0,0.96609 10.6271,25.50483 10.6271,25.50483 l 11.3998,3.47794 -0.5796,15.45747 c 0,0 -6.9559,4.83046 -11.9796,5.60334 -5.0236,0.77287 -24.7319,4.8305 -26.4709,5.0237 -1.7389,0.1932 -15.071,1.5457 -15.071,2.8983 0,1.3525 2.1254,7.7287 2.1254,7.7287 0,0 12.1727,-0.7729 17.3896,-3.0915 5.2169,-2.3186 37.2912,-12.94564 37.2912,-12.94564 l 5.4101,-3.28472 2.8983,6.76266 c 0,0 2.705,-1.73898 2.705,-3.67116 0,-1.93218 -4.6372,-19.70828 -5.4101,-21.83368 -0.7728,-2.12541 -12.1727,-34.77932 -12.1727,-34.77932 l -3.6712,-17.19644 c 0,0 -17.5829,-0.77287 -19.3218,-0.57966 -1.739,0.19322 -24.3455,5.79656 -24.3455,5.79656 z"
         id="path54-1" /><path
         style="fill:#3c3c39;fill-opacity:1;stroke:none;stroke-width:2.7;stroke-linejoin:round;stroke-dashoffset:318.954;stroke-opacity:1;paint-order:markers stroke fill"
         d="m 555.52829,465.43509 5.0237,2.1254 c 0,0 2.3186,-16.81 3.2847,-18.9354 0.9661,-2.1254 0.7729,-10.0474 4.8305,-11.2067 4.0576,-1.1593 11.9795,-4.2508 15.4574,-4.2508 3.478,0 20.0948,6.3762 20.0948,6.3762 0,0 6.7626,9.8541 6.7626,10.627 0,0.7729 0.9661,12.1728 0.9661,12.1728 l 4.444,2.705 c 0,0 3.8644,-0.1932 5.0237,-2.3186 1.1593,-2.1254 4.2508,-0.7729 2.3186,-7.5355 -1.9322,-6.7626 -5.9898,-17.9693 -7.7287,-17.9693 -1.739,0 -18.1625,-10.2406 -19.9015,-10.2406 -1.739,0 -16.6168,0 -16.6168,0 0,0 -13.7185,5.9898 -14.1049,6.7627 -0.3865,0.7728 -5.7966,10.4337 -5.7966,11.2066 0,0.7729 -4.0576,20.4812 -4.0576,20.4812 z"
         id="path55-3" /><path
         style="fill:#3c3c39;fill-opacity:1;stroke:none;stroke-width:2.7;stroke-linejoin:round;stroke-dashoffset:318.954;stroke-opacity:1;paint-order:markers stroke fill"
         d="m 617.55139,430.65579 c 0,0 8.6949,12.1727 10.0474,15.4574 1.3525,3.2847 5.6033,16.4236 6.3762,16.4236 0.7729,0 4.444,-0.7729 5.2169,-6.183 0.7729,-5.4101 6.7626,-15.2642 6.7626,-15.2642 0,0 -5.0236,-14.2982 -6.5694,-15.4575 -1.5457,-1.1593 -14.8778,-14.6846 -14.8778,-16.81 0,-2.1254 -2.5118,-15.07106 -2.5118,-15.07106 l -2.1254,0.96609 1.5457,13.71847 -6.7626,2.7051 c 0,0 -8.8881,-1.1593 -6.9559,2.7051 1.9322,3.8643 1.739,6.9558 5.2169,7.7287 3.4779,0.7729 12.366,3.2847 13.9117,4.0576 1.5458,0.7729 8.5016,5.0237 8.6948,5.9898 0.1933,0.966 -0.1932,5.9897 -0.1932,5.9897 0,0 -0.3864,1.5458 -1.1593,1.5458 -0.7729,0 -7.5355,-5.4101 -7.5355,-5.4101 l -7.922,-7.1491 z"
         id="path56-4" /><path
         style="fill:#3c3c39;fill-opacity:1;stroke:none;stroke-width:2.7;stroke-linejoin:round;stroke-dashoffset:318.954;stroke-opacity:1;paint-order:markers stroke fill"
         d="m 615.81249,470.65199 c 0,0 -5.0237,8.3084 -5.0237,9.0812 0,0.7729 3.6711,3.8644 7.1491,0.9661 3.4779,-2.8982 8.6948,-9.2745 8.6948,-10.2405 0,-0.9661 0,-7.5356 -0.7729,-7.5356 -0.7729,0 -4.6372,3.2848 -4.6372,3.2848 z"
         id="path57-0" /><path
         style="fill:#5c5d5a;fill-opacity:1;stroke:none;stroke-width:2.7;stroke-linejoin:round;stroke-dashoffset:318.954;stroke-opacity:1;paint-order:markers stroke fill"
         d="m 433.22099,259.271 -28.7895,59.51128 -4.0576,11.39989 1.739,2.1254 9.6609,-14.29816 c 0,0 14.8778,-34.97254 15.6507,-35.93863 0.7729,-0.96609 9.8541,-20.48116 9.8541,-20.48116 z"
         id="path60-3" /><path
         style="fill:#5c5d5a;fill-opacity:1;stroke:none;stroke-width:2.7;stroke-linejoin:round;stroke-dashoffset:318.954;stroke-opacity:1;paint-order:markers stroke fill"
         d="m 333.94469,378.94634 2.3226,15.57537 c 0,0 2.4593,-0.54651 2.8692,-1.36626 0.4098,-0.81976 1.9127,-20.35729 1.9127,-20.35729 0,0 -6.9679,-3.55227 -8.6074,-3.55227 -1.6395,0 -37.4356,-2.73253 -37.4356,-2.73253 h -16.5317 l -3.5523,2.45927 c 0,0 8.7441,2.45927 11.34,2.73252 2.5959,0.27326 12.9795,2.5959 12.9795,2.5959 l 2.0493,3.55228 c 0,0 -0.4098,3.27902 0.9564,3.1424 1.3663,-0.13663 4.7819,-1.77614 7.3778,-2.32265 2.5959,-0.5465 12.0231,-0.5465 13.9359,0 1.9128,0.54651 8.3342,1.22964 8.3342,1.22964 z"
         id="path61-7" /></g></g></svg>
