<?xml version="1.0" encoding="UTF-8" standalone="no"?>
<!-- Created with Inkscape (http://www.inkscape.org/) -->

<svg
   width="825"
   height="1125"
   viewBox="0 0 825 1125"
   version="1.1"
   id="svg5"
   xml:space="preserve"
   inkscape:version="1.2.2 (b0a8486, 2022-12-01)"
   sodipodi:docname="infantry.svg"
   xmlns:inkscape="http://www.inkscape.org/namespaces/inkscape"
   xmlns:sodipodi="http://sodipodi.sourceforge.net/DTD/sodipodi-0.dtd"
   xmlns="http://www.w3.org/2000/svg"
   xmlns:svg="http://www.w3.org/2000/svg"><sodipodi:namedview
     id="namedview7"
     pagecolor="#ffffff"
     bordercolor="#999999"
     borderopacity="1"
     inkscape:showpageshadow="0"
     inkscape:pageopacity="0"
     inkscape:pagecheckerboard="0"
     inkscape:deskcolor="#d1d1d1"
     inkscape:document-units="mm"
     showgrid="false"
     inkscape:zoom="0.08086703"
     inkscape:cx="476.0902"
     inkscape:cy="1638.4922"
     inkscape:window-width="1390"
     inkscape:window-height="1027"
     inkscape:window-x="403"
     inkscape:window-y="297"
     inkscape:window-maximized="0"
     inkscape:current-layer="layer1" /><defs
     id="defs2" /><g
     inkscape:label="Layer 1"
     inkscape:groupmode="layer"
     id="layer1"><rect
       style="fill:#d6c9a7;fill-opacity:1;stroke:none;stroke-width:2.72107;stroke-linejoin:round;stroke-dashoffset:318.954;stroke-opacity:1;paint-order:markers stroke fill"
       id="rect61"
       width="831.61212"
       height="1133.5178"
       x="-3.3060608"
       y="-4.2589111" /><g
       id="g33"
       transform="matrix(0.52942183,0,0,0.52942183,173.38333,22.751398)"><path
         style="fill:#c65d45;fill-opacity:1;stroke:none;stroke-width:1.18677;stroke-linejoin:round;stroke-dasharray:none;stroke-dashoffset:318.954;stroke-opacity:1;paint-order:markers stroke fill"
         d="m 244.22809,535.60147 c 0,1.93219 -29.3692,87.72117 -30.14208,93.90416 -0.77287,6.18299 6.18299,135.25289 7.72874,137.95795 1.54575,2.70506 22.41334,38.64369 23.57265,45.21311 1.15931,6.56943 0.38644,20.09472 3.47793,23.18621 3.0915,3.0915 -5.41012,4.25081 14.6846,12.36598 20.09472,8.11518 32.07426,15.84391 41.34874,20.09472 9.27449,4.2508 10.04736,10.04736 23.57265,10.82023 13.52529,0.77287 20.09472,5.02368 23.57265,1.54575 3.47793,-3.47793 13.13885,-0.38644 16.23035,-3.86437 3.09149,-3.47793 15.45747,1.15931 17.77609,-16.61679 2.31862,-17.77609 3.47793,-30.14207 10.4338,-35.16575 6.95586,-5.02368 12.75241,-8.88805 13.91172,-18.54897 1.15931,-9.66092 1.93219,-27.43701 1.93219,-27.43701 0,0 15.45747,21.25402 23.57264,29.75563 8.11518,8.50161 21.25403,23.18621 32.4607,28.59633 11.20667,5.41012 15.84391,9.66092 35.16575,8.88805 19.32185,-0.77288 30.91495,5.02368 45.21311,-4.25081 14.29817,-9.27448 12.75242,3.0915 23.95909,-13.91172 11.20667,-17.00323 14.6846,-16.23035 16.61678,-28.20989 1.93219,-11.97955 8.50161,-11.59311 0.77288,-28.20989 -7.72874,-16.61679 -5.79656,-12.75242 -8.88805,-19.32185 -3.0915,-6.56942 -10.82023,-17.00322 -13.52529,-19.70828 -2.70506,-2.70505 -5.79655,13.13886 -5.79655,-9.66092 0,-22.79977 0,-17.00322 0,-34.77931 0,-17.7761 1.93218,-24.73196 -6.18299,-37.48438 -8.11518,-12.75241 -18.16253,-10.43379 -21.25403,-28.98276 -3.09149,-18.54897 -3.47793,-24.73196 -5.41011,-42.12162 -1.93219,-17.38966 -17.38966,-54.48759 -21.25403,-62.9892 -3.86437,-8.50161 -10.04736,-15.07104 -11.59311,-15.07104 -1.54574,0 13.91173,-11.20667 -10.82023,11.97954 -24.73196,23.18621 -12.36598,25.50483 -34.39288,26.27771 -22.0269,0.77287 -57.19265,2.70505 -66.0807,2.70505 -8.88805,0 4.25081,0.38644 -19.70828,0.38644 -23.95908,0 -15.84391,0 -35.93863,0.77288 -20.09471,0.77287 -4.2508,8.50161 -27.05057,0.77287 -22.79978,-7.72874 -37.09794,-14.6846 -41.73518,-15.07104 -4.63725,-0.38643 9.27448,-22.79977 5.02367,-18.9354 -4.2508,3.86436 -21.25402,25.11839 -21.25402,25.11839 z"
         id="path9" /><path
         id="path15"
         style="fill:#879483;fill-opacity:1;stroke:none;stroke-width:1.18677;stroke-linejoin:round;stroke-dasharray:none;stroke-dashoffset:318.954;stroke-opacity:1;paint-order:markers stroke fill"
         d="m 439.76562,286.73633 c 0,0 -66.64118,-27.75825 -73.59705,-27.75825 -6.95585,0 -34.99206,29.30459 -47.35802,31.23676 -12.36597,1.93219 -46.75977,7.72852 -46.75977,7.72852 l -22.41211,13.52539 c 0,0 -7.34321,11.97879 -9.27539,12.36523 -1.93218,0.38644 -14.68477,8.11611 -21.64062,11.98047 -6.95587,3.86437 -13.52539,20.09375 -13.52539,20.09375 l -7.3418,27.82422 -5.02344,22.02539 -8.50195,10.82031 c 0,0 -8.11442,22.41464 -9.66016,23.1875 -1.54575,0.77288 -15.84375,15.45704 -15.84375,15.45704 l -6.18359,13.52539 v 25.5039 l -0.77344,21.25391 c 0,0 9.27542,-1.54463 11.98047,-1.1582 2.70506,0.38644 10.04664,10.81949 15.07031,12.36523 5.02368,1.54575 5.79633,-1.1582 7.72852,-1.1582 1.93218,0 4.63786,2.31783 8.88867,6.95508 4.2508,4.63723 8.11523,3.09179 8.11523,3.09179 0,0 8.11441,-5.79577 9.66016,-6.95508 1.54575,-1.1593 2.70484,6.56836 7.72852,6.56836 h 13.52539 c 3.86436,0 6.57061,5.02457 9.66211,6.57032 3.09148,1.54574 17.00364,-4.25139 19.32226,-3.47852 2.31862,0.77287 11.97887,7.34156 20.48047,12.36524 8.5016,5.02367 21.64048,1.54633 37.48437,3.47851 15.8439,1.93218 27.82368,2.31838 61.83008,5.02344 34.00642,2.70506 40.19002,-6.18286 73.03711,-18.54883 32.8471,-12.36597 40.57564,-41.73468 42.50781,-44.82617 l 4.63672,-2.31836 23.95899,-21.25391 -3.86524,-30.91601 c 0,0 -17.00143,-17.77626 -21.63867,-21.64063 -4.63724,-3.86436 -17.7768,-21.25449 -19.70898,-24.73242 -1.93219,-3.47793 -10.82032,-37.8706 -10.82032,-45.21289 10e-6,-7.34229 -15.45677,-44.0536 -17.77539,-47.91797 -2.31861,-3.86437 -0.77343,-5.79687 -0.77343,-5.79687 z M 255.13672,429.4082 c 1.75142,0.11468 4.77855,1.83055 4.93555,2.14453 0.19322,0.38644 4.54101,11.97999 4.54101,12.65625 0,0.67626 14.00781,31.01172 14.00781,31.01172 l 3.86329,13.71875 c 0,0 -2.60741,2.99564 -9.27344,6.37696 -6.66603,3.38131 -6.18405,5.79604 -9.46875,7.34179 -3.28471,1.54575 -4.05737,-0.48437 -7.72852,-0.48437 -3.67114,0 -1.44743,-0.96557 -4.3457,-4.63672 -2.89828,-3.67115 -2.80177,-3.47804 -4.1543,-4.1543 -1.35253,-0.67627 -3.67114,1.83574 -6.66601,2.89844 -2.99489,1.0627 -2.70524,-3.76686 -5.60352,-9.4668 -2.89827,-5.69993 -3.28608,-3.38269 -5.89453,-5.89453 -2.60845,-2.51184 -7.82422,-1.15771 -7.82422,-1.83398 0,-0.67626 1.64119,-2.70677 2.41406,-5.02539 0.77288,-2.31862 2.80333,-5.50673 6.28125,-9.3711 3.47793,-3.86436 3.1875,-12.65429 3.1875,-12.65429 l 15.65039,-18.54883 c 0,0 3.96179,-2.89915 5.1211,-3.86524 0.21737,-0.18114 0.55286,-0.23935 0.95703,-0.21289 z"
         sodipodi:nodetypes="cssccssccccsccccsssscsssssssssccccssssccsssccsssssssssssccss" /><path
         style="fill:#c6a97e;fill-opacity:1;stroke:none;stroke-width:1.18677;stroke-linejoin:round;stroke-dasharray:none;stroke-dashoffset:318.954;stroke-opacity:1;paint-order:markers stroke fill"
         d="m 295.24891,197.42465 c -1.77614,3.55228 -7.10455,21.45029 -6.69468,22.40668 0.40988,0.95638 4.23541,5.19179 6.01155,9.56382 1.77614,4.37204 8.19756,15.30212 9.83708,18.44452 1.63951,3.1424 0,12.29634 8.47081,18.17127 8.47082,5.87492 23.08981,13.38935 31.56062,14.07248 8.47082,0.68313 20.49391,2.59589 21.45029,2.59589 0.95639,0 8.74407,-0.27325 11.20334,-0.68313 2.45927,-0.40987 9.9737,-1.093 15.84862,-3.41565 5.87492,-2.32264 10.65684,-3.41565 11.74984,-6.55805 1.09301,-3.1424 -1.77613,-18.85439 -1.77613,-21.17704 0,-2.32264 -4.91854,-11.88646 -4.91854,-13.38935 0,-1.50289 -1.22964,-4.64529 0.13662,-5.7383 1.36626,-1.093 4.64529,-3.82553 5.7383,-4.64528 1.09301,-0.81976 3.27902,0.40988 2.73252,-2.5959 -0.54651,-3.00577 -3.27903,-6.96793 -3.27903,-6.96793 0,0 -0.5465,-5.32841 0.81976,-7.65105 1.36626,-2.32265 2.45927,-10.52021 2.45927,-10.52021 l 1.09301,-5.46504 c 0,0 -9.97371,-35.38615 -11.61322,-35.38615 -1.63951,0 -50.96152,2.73252 -52.60103,3.27902 -1.63951,0.54651 -34.56639,14.20911 -36.88904,16.66838 -2.32264,2.45927 -11.33996,18.99102 -11.33996,18.99102 z"
         id="path30" /><path
         style="fill:#cd834e;fill-opacity:1;stroke:none;stroke-width:1.18677;stroke-linejoin:round;stroke-dasharray:none;stroke-dashoffset:318.954;stroke-opacity:1;paint-order:markers stroke fill"
         d="m 198.92754,632.8519 4.91854,7.10456 c 0,0 15.30212,2.73252 19.12765,4.37203 3.82553,1.63951 4.91853,3.27902 8.19756,6.55805 3.27903,3.27903 8.74407,14.20911 8.74407,14.20911 l 41.53432,14.20911 15.30212,-6.01155 -1.09301,-44.81334 17.48813,-36.06928 87.98719,-102.19629 7.65106,-4.91854 v -10.93009 l 7.10455,-12.56959 316.97245,-295.65879 -6.55805,-4.37204 25.1392,-21.31366 -4.91854,-15.84863 -10.38358,-3.27902 -442.66843,395.12256 -22.95318,43.17383 c 0,0 -2.18601,14.48237 -4.91853,19.67416 -2.73252,5.19179 -18.03464,33.0635 -18.03464,33.0635 0,0 -19.4009,12.84285 -21.58692,13.1161 -2.18602,0.27326 -21.04041,2.73252 -21.04041,2.73252 z"
         id="path1" /><path
         style="fill:#57666d;fill-opacity:1;stroke:none;stroke-width:1.18677;stroke-linejoin:round;stroke-dasharray:none;stroke-dashoffset:318.954;stroke-opacity:1;paint-order:markers stroke fill"
         d="m 496.18491,829.29348 c 0,0 -11.20667,27.05058 -11.5931,31.30138 -0.38644,4.25081 -6.95587,22.41334 6.56942,28.98276 13.52529,6.56943 27.43702,12.75242 37.09794,16.23035 9.66092,3.47793 13.13885,11.97954 15.45748,4.63724 2.31862,-7.3423 0.77287,-22.41333 2.31862,-33.23356 1.54574,-10.82024 15.07103,-45.21312 15.07103,-45.21312 0,0 -25.50483,7.72874 -33.23357,7.72874 -7.72873,0 -22.0269,-4.63724 -22.0269,-4.63724 z"
         id="path4" /><path
         style="fill:#7e8861;fill-opacity:1;stroke:none;stroke-width:1.18677;stroke-linejoin:round;stroke-dasharray:none;stroke-dashoffset:318.954;stroke-opacity:1;paint-order:markers stroke fill"
         d="m 500.82216,985.41396 c 0,0 -17.7761,42.89454 -15.45748,47.91814 2.31862,5.0237 3.86437,12.366 6.18299,12.7524 2.31862,0.3865 16.61679,5.0237 24.73196,-0.3864 8.11517,-5.4101 4.2508,-5.0237 14.29816,-6.9559 10.04736,-1.9321 17.38966,-2.3186 24.34552,-1.9321 6.95587,0.3864 16.61679,3.0915 28.20989,1.9321 11.59311,-1.1593 17.00323,9.2745 17.38966,-4.2508 0.38644,-13.5252 8.50161,-16.6167 0.38644,-17.7761 -8.11517,-1.1593 -18.54897,0.3865 -26.66414,-4.6372 -8.11518,-5.0237 -1.15931,-1.9322 -10.4338,-8.888 -9.27448,-6.95591 -15.84391,-12.36602 -22.41334,-15.84395 -6.56942,-3.47793 -6.18299,-6.56943 -9.66092,-6.18299 -3.47793,0.38643 -30.91494,4.2508 -30.91494,4.2508 z"
         id="path8" /><path
         style="fill:#b85a47;fill-opacity:1;stroke:none;stroke-width:1.18677;stroke-linejoin:round;stroke-dasharray:none;stroke-dashoffset:318.954;stroke-opacity:1;paint-order:markers stroke fill"
         d="m 475.31732,855.95762 c 0,3.47793 -0.38643,39.03012 3.47793,64.14852 3.86437,25.11839 8.11518,46.37242 11.20667,60.67058 3.0915,14.29816 3.0915,18.93541 3.0915,22.41338 0,3.4779 -3.86437,5.0236 4.2508,8.1151 8.11518,3.0915 8.50161,3.0915 16.61679,3.0915 8.11517,0 10.04736,14.6846 15.45747,0 5.41012,-14.68457 5.41012,-1.9322 6.56943,-21.64044 1.15931,-19.70828 0.77287,-17.77609 1.54575,-28.98276 0.77287,-11.20667 0.38643,-15.45747 3.47793,-26.66414 3.09149,-11.20667 -3.0915,-20.09472 4.63724,-22.0269 7.72874,-1.93219 16.61678,-4.63725 16.61678,-4.63725 0,0 1.93219,-9.66092 -2.70505,-9.27448 -4.63725,0.38644 -8.11518,24.73196 -34.00645,-1.54575 -25.89127,-26.2777 -26.2777,-25.89127 -31.30138,-29.75563 -5.02368,-3.86437 -18.93541,-13.91173 -18.93541,-13.91173 z"
         id="path3" /><path
         style="fill:#57666d;fill-opacity:1;stroke:none;stroke-width:1.18677;stroke-linejoin:round;stroke-dasharray:none;stroke-dashoffset:318.954;stroke-opacity:1;paint-order:markers stroke fill"
         d="m 274.77602,851.26545 c 0,0 6.18299,36.32507 7.3423,45.21311 1.15931,8.88805 5.02368,40.57587 11.20667,46.37243 6.18299,5.79655 18.16253,25.89126 37.48438,19.32184 19.32184,-6.56943 30.14207,-5.79655 31.30138,-14.29817 1.15931,-8.50161 -8.88805,-43.66736 -8.88805,-43.66736 l -7.72873,-36.7115 -43.28093,-5.79655 z"
         id="path6" /><path
         style="fill:#7e8861;fill-opacity:1;stroke:none;stroke-width:1.18677;stroke-linejoin:round;stroke-dasharray:none;stroke-dashoffset:318.954;stroke-opacity:1;paint-order:markers stroke fill"
         d="m 318.8104,1022.5119 c 0.77287,6.9559 5.02368,48.691 5.41012,50.6232 0.38643,1.9322 10.43379,12.7524 12.75241,14.2982 2.31862,1.5457 5.02368,0.7729 5.41012,5.7965 0.38643,5.0237 9.27448,16.6168 16.23035,20.0948 6.95586,3.4779 9.27448,5.0236 11.5931,4.2508 2.31862,-0.7729 3.0915,3.4779 6.56943,-3.0915 3.47793,-6.5695 2.31862,-3.478 3.47793,-7.7288 1.15931,-4.2508 8.11517,-10.8202 1.15931,-25.1184 -6.95586,-14.2981 -14.29816,-18.5489 -16.61679,-27.8234 -2.31862,-9.2745 -3.47793,-11.2067 -4.63724,-16.6168 -1.15931,-5.4101 -3.09149,-8.888 -5.41011,-9.2745 -2.31862,-0.3864 -35.93863,-5.4101 -35.93863,-5.4101 z"
         id="path7" /><path
         style="fill:#b85a47;fill-opacity:1;stroke:none;stroke-width:1.18677;stroke-linejoin:round;stroke-dasharray:none;stroke-dashoffset:318.954;stroke-opacity:1;paint-order:markers stroke fill"
         d="m 277.07522,904.26222 c 0,0 1.93218,37.09794 3.86437,38.64369 1.93218,1.54575 6.56943,8.50161 8.88805,13.91173 2.31862,5.41011 11.20666,21.25402 14.6846,30.52851 3.47793,9.27448 5.41011,23.18625 7.3423,32.84715 1.93218,9.6609 3.47793,14.2981 4.2508,17.3896 0.77288,3.0915 -3.86437,12.366 -0.77287,13.9118 3.09149,1.5457 1.15931,6.5694 8.50161,1.5457 7.3423,-5.0237 -0.38644,-10.4338 12.36598,-11.9795 12.75241,-1.5458 18.16253,1.1593 18.16253,1.1593 0,0 1.54575,4.6372 3.09149,0.3864 1.54575,-4.2508 1.54575,6.5694 1.54575,-13.5253 0,-20.0947 0,-28.2099 0,-37.09791 0,-8.88805 -1.54575,-13.52529 1.54575,-24.34552 3.09149,-10.82023 7.72874,-25.1184 7.3423,-29.75564 -0.38644,-4.63724 -4.63724,-23.95908 -5.41012,-28.98276 -0.77287,-5.02368 0.38644,-11.20667 -1.15931,-7.72874 -1.54574,3.47793 -5.41011,33.23357 -13.13885,34.77932 -7.72874,1.54574 -4.63724,6.56942 -21.25403,2.31862 -16.61678,-4.25081 -18.9354,5.02368 -31.68782,-11.59311 -12.75241,-16.61678 -18.16253,-22.41334 -18.16253,-22.41334 z"
         id="path2" /><path
         style="fill:#7e8861;fill-opacity:1;stroke:none;stroke-width:1.18677;stroke-linejoin:round;stroke-dasharray:none;stroke-dashoffset:318.954;stroke-opacity:1;paint-order:markers stroke fill"
         d="m 274.37016,869.09647 c 0,0 -17.00322,-23.57265 -18.16253,-16.23035 -1.15931,7.3423 -2.70506,15.07104 -4.2508,21.64047 -1.54575,6.56942 -8.50162,15.84391 -3.47794,18.16253 5.02368,2.31862 21.25403,6.56943 29.3692,10.82023 8.11518,4.25081 10.82024,19.70828 16.23035,4.25081 5.41012,-15.45748 11.59311,-18.16254 7.3423,-25.50484 -4.2508,-7.3423 2.31862,-2.31862 -8.11517,-11.97954 -10.4338,-9.66092 -18.93541,-1.15931 -18.93541,-1.15931 z"
         id="path5" /><path
         style="fill:#879483;fill-opacity:1;stroke:none;stroke-width:1.18677;stroke-linejoin:round;stroke-dasharray:none;stroke-dashoffset:318.954;stroke-opacity:1;paint-order:markers stroke fill"
         d="m 289.64724,192.64274 c 0,-2.45927 -6.01154,-32.517 -6.01154,-38.52855 0,-6.01154 2.73252,-21.31366 3.27902,-24.31943 0.54651,-3.00578 5.7383,-28.14497 7.37781,-29.51123 1.63951,-1.366264 2.73252,-1.912768 3.55228,-5.465046 0.81975,-3.552277 1.91276,-7.924311 -0.54651,-9.290572 -2.45927,-1.36626 -4.64528,-3.005773 -7.65106,-3.005773 -3.00577,0 -4.09878,0 -4.09878,0 0,0 -11.74984,-3.279025 1.91277,-5.738294 13.6626,-2.459269 28.41822,-5.465043 32.79025,-5.191791 4.37203,0.273252 19.12765,0 25.6857,3.552278 6.55805,3.552277 19.67415,7.924311 23.77293,11.476589 4.09878,3.552277 21.31367,16.395129 25.41245,21.040409 4.09878,4.64529 15.02887,14.75562 18.03464,21.58692 3.00577,6.8313 7.10455,23.77293 7.37781,26.50546 0.27325,2.73252 0.27325,8.74406 0.27325,8.74406 l -82.79539,15.30212 -38.8018,15.02887 z"
         id="path11" /><path
         style="fill:#875d44;fill-opacity:1;stroke:none;stroke-width:1.18677;stroke-linejoin:round;stroke-dasharray:none;stroke-dashoffset:318.954;stroke-opacity:1;paint-order:markers stroke fill"
         d="m 396.28388,190.66166 c -1.43457,2.04939 -2.04939,6.21649 -1.91276,7.17287 0.13662,0.95638 -3.27903,2.11771 1.84445,1.16132 5.12348,-0.95638 4.57697,-0.81975 6.48974,-1.093 1.91276,-0.27326 4.03047,-0.40988 4.50866,-0.34157 0.47819,0.0683 0.47819,0.0683 0.47819,0.0683 0,0 3.96215,-4.16709 5.32841,-6.01154 1.36626,-1.84446 5.05517,-8.74407 5.05517,-9.76877 0,-1.02469 -0.34157,-9.63213 -3.89384,-10.45189 -3.55228,-0.81976 -8.60745,-3.21071 -10.58852,-1.91276 -1.98108,1.29794 -4.78192,2.39095 -4.78192,4.57697 0,2.18601 -2.52758,16.60006 -2.52758,16.60006 z"
         id="path28" /><path
         style="fill:#554840;fill-opacity:1;stroke:none;stroke-width:1.18677;stroke-linejoin:round;stroke-dasharray:none;stroke-dashoffset:318.954;stroke-opacity:1;paint-order:markers stroke fill"
         d="m 286.09497,198.92754 c -5.46505,3.00577 -22.13343,14.48236 -22.13343,16.94163 0,2.45927 1.36626,7.10456 7.92432,7.65106 6.55805,0.54651 11.47658,-0.5465 13.6626,-0.81976 2.18602,-0.27325 -1.91276,9.01732 4.09878,-1.093 6.01155,-10.11033 10.11033,-13.66261 16.39513,-19.12765 6.2848,-5.46504 9.56382,-10.65683 18.03464,-13.66261 8.47082,-3.00577 10.93008,-4.64528 24.59269,-8.19756 13.66261,-3.55228 12.5696,-4.91854 22.40667,-4.91854 9.83708,0 35.24953,-1.36626 36.88904,-1.36626 1.63951,0 6.2848,2.18602 7.37781,5.19179 1.093,3.00577 1.91276,1.63951 1.093,4.64529 -0.81975,3.00577 -1.63951,7.92431 -0.5465,7.92431 1.09301,0 9.56382,-3.00578 11.74984,-5.7383 2.18602,-2.73252 4.64529,-6.8313 4.64529,-10.11033 0,-3.27902 1.36626,-4.37203 0,-6.01154 -1.36626,-1.63951 1.09301,-6.2848 -15.30212,-5.7383 -16.39513,0.54651 -37.70879,2.73252 -48.91213,4.37204 -11.20334,1.63951 -18.58114,3.00577 -32.79025,7.65106 -14.20911,4.64528 -21.86017,8.19756 -32.79026,12.02309 -10.93008,3.82553 -16.39512,10.38358 -16.39512,10.38358 z"
         id="path10" /><path
         style="fill:#e6d4b4;fill-opacity:1;stroke:none;stroke-width:1.18677;stroke-linejoin:round;stroke-dasharray:none;stroke-dashoffset:318.954;stroke-opacity:1;paint-order:markers stroke fill"
         d="m 297.84481,227.61901 c 0,0 3.55227,14.20911 5.19179,18.58115 1.63951,4.37203 2.73252,13.38935 11.74984,14.75561 9.01732,1.36626 24.59269,8.74407 29.23797,12.29635 4.64529,3.55227 3.00578,3.00577 6.83131,3.82553 3.82553,0.81975 7.65106,1.91276 7.65106,1.91276 0,0 0,2.18602 0,4.09878 0,1.91277 -9.56383,-4.91854 -18.58115,-0.5465 -9.01732,4.37203 -7.10455,-0.81976 -15.30212,10.38358 -8.19756,11.20334 -9.56382,11.74984 -12.29634,20.22065 -2.73252,8.47082 -1.09301,8.19757 -3.27903,12.5696 -2.18601,4.37204 -1.36626,6.2848 -3.00577,7.10456 -1.63951,0.81975 -15.84862,-25.1392 -20.49391,-28.41822 -4.64528,-3.27903 -21.86017,-9.83708 -23.22643,-12.84285 -1.36626,-3.00578 -7.92431,-16.66838 -7.92431,-16.66838 0,0 -5.19179,-4.09878 -0.81976,-5.7383 4.37204,-1.63951 13.11611,-9.01732 17.76139,-15.84862 4.64529,-6.8313 12.5696,-22.13342 12.5696,-22.13342 0,0 4.37203,-3.55228 6.01155,-3.82553 1.63951,-0.27325 7.92431,0.27325 7.92431,0.27325 z"
         id="path12" /><path
         style="fill:#d3bca5;fill-opacity:1;stroke:none;stroke-width:1.18677;stroke-linejoin:round;stroke-dasharray:none;stroke-dashoffset:318.954;stroke-opacity:1;paint-order:markers stroke fill"
         d="m 383.37272,275.43813 -5.7383,10.11033 c 0,0 3.82553,-1.63951 10.11033,-3.00577 6.2848,-1.36626 13.38936,-2.45927 16.12188,-1.36626 2.73252,1.09301 6.2848,0.5465 12.02309,2.73252 5.73829,2.18602 7.37781,4.09878 12.02309,5.73829 4.64529,1.63952 7.92431,3.82553 7.92431,3.82553 0,0 -1.91276,-10.93008 -3.00577,-11.74984 -1.09301,-0.81975 -9.29057,-11.20334 -12.5696,-14.75561 -3.27902,-3.55228 -15.57537,-19.4009 -15.57537,-19.4009 l -6.55805,-4.09878 c 0,0 1.09301,5.46504 1.36626,7.3778 0.27326,1.91277 -0.5465,3.00578 0.81976,4.09878 1.36626,1.09301 4.91854,5.46505 4.64529,7.37781 -0.27326,1.91277 -0.81976,7.10456 -0.81976,7.10456 0,0 -6.55805,5.73829 -7.92431,6.28479 -1.36626,0.54651 -12.84285,-0.27325 -12.84285,-0.27325 z"
         id="path13" /><path
         style="fill:#a84438;fill-opacity:1;stroke:none;stroke-width:1.18677;stroke-linejoin:round;stroke-dasharray:none;stroke-dashoffset:318.954;stroke-opacity:1;paint-order:markers stroke fill"
         d="m 346.21043,261.77553 c -1.36626,0.5465 -10.38358,6.2848 -5.73829,9.29057 4.64528,3.00577 14.48236,5.19179 14.48236,5.19179 0,0 4.09878,-1.36626 3.27902,1.63951 -0.81975,3.00578 -3.82553,18.03464 -7.10455,25.41245 -3.27903,7.37781 -4.09878,27.87171 -4.09878,30.60424 0,2.73252 5.46504,11.74984 5.46504,11.74984 0,0 0.5465,6.01154 3.27902,-1.09301 2.73253,-7.10456 5.1918,-3.00578 6.2848,-17.48814 1.09301,-14.48236 1.63952,-26.2322 1.63952,-26.2322 l 3.55227,-6.55805 1.63952,-9.01732 6.55805,12.02309 c 0,0 2.45927,4.91854 2.45927,7.37781 0,2.45927 0.27325,7.65106 2.45927,12.84285 2.18601,5.19179 6.55805,10.11033 6.55805,10.11033 0,0 1.91276,-2.18602 1.91276,-8.19757 0,-6.01154 -4.09878,-16.66838 -4.64528,-19.12764 -0.54651,-2.45927 -9.01732,-22.13343 -9.01732,-22.13343 0,0 -3.82553,-10.93008 -6.01155,-12.56959 -2.18602,-1.63952 -9.56383,-4.64529 -12.02309,-4.64529 -2.45927,0 -10.93009,0.81976 -10.93009,0.81976 z"
         id="path14" /><path
         style="fill:#000000;fill-opacity:1;stroke:none;stroke-width:1.18677;stroke-linejoin:round;stroke-dasharray:none;stroke-dashoffset:318.954;stroke-opacity:1;paint-order:markers stroke fill"
         d="m 362.33231,203.64114 c 2.73252,-0.61482 4.03046,-0.88807 5.8066,-1.63951 1.77614,-0.75145 3.41566,-1.22964 3.41566,-1.22964 0,0 -1.36627,1.50289 -0.81976,3.34734 0.5465,1.84445 0.0683,3.21071 1.77614,3.21071 1.70782,0 2.04939,1.70783 3.48396,-0.5465 1.43458,-2.25433 2.39096,-2.32264 2.04939,-3.6889 -0.34156,-1.36627 -0.34156,-1.43458 -0.34156,-1.43458 0,0 0.88807,-0.13662 1.5712,0 0.68313,0.13663 1.36626,-0.27325 1.36626,-0.27325 0,0 -0.61482,-0.40988 -2.73252,-0.88807 -2.11771,-0.47819 -4.98685,-2.1177 -5.87492,-1.98108 -0.88807,0.13663 -4.23541,1.43458 -5.32842,1.70783 -1.09301,0.27325 -4.37203,3.41565 -4.37203,3.41565 z"
         id="path16" /><path
         style="fill:#000000;fill-opacity:1;stroke:none;stroke-width:1.18677;stroke-linejoin:round;stroke-dasharray:none;stroke-dashoffset:318.954;stroke-opacity:1;paint-order:markers stroke fill"
         d="m 396.07894,201.25018 c 0,0 0.88807,0.95639 1.50289,1.09301 0.61482,0.13663 1.77614,-0.61482 1.77614,-0.61482 0,0 0.68313,2.39096 0.75144,3.21072 0.0683,0.81975 -1.63951,1.91276 0.27325,1.70782 1.91277,-0.20494 2.39096,0.75145 3.21072,-0.20494 0.81975,-0.95638 1.63951,-2.18601 1.63951,-3.07408 0,-0.88807 -0.0683,-1.77614 -0.0683,-1.77614 0,0 1.093,-0.34157 1.98107,0.13662 0.88807,0.4782 1.16132,1.77614 1.22964,0.75145 0.0683,-1.0247 1.50288,-2.18602 -0.75145,-2.5959 -2.25433,-0.40988 -2.59589,-1.09301 -4.91853,-1.02469 -2.32265,0.0683 -4.03047,0 -4.44035,0.47819 -0.40988,0.47819 -2.39096,1.5712 -2.39096,1.5712 z"
         id="path17" /><path
         style="fill:#5c4731;fill-opacity:1;stroke:none;stroke-width:1.18677;stroke-linejoin:round;stroke-dasharray:none;stroke-dashoffset:318.954;stroke-opacity:1;paint-order:markers stroke fill"
         d="m 355.70594,184.44518 c 0,0 6.2848,2.59589 9.90539,2.45927 3.62059,-0.13663 6.96793,0.61481 9.35889,0.40988 2.39095,-0.20494 2.86914,0.40987 5.46504,0.5465 2.59589,0.13663 6.14817,1.5712 6.35311,0.75144 0.20494,-0.81975 4.50866,-2.25433 -0.81976,-4.2354 -5.32841,-1.98108 -3.07408,-3.41566 -9.22225,-3.41566 -6.14818,0 -6.48974,0.75145 -10.31527,0.75145 -3.82553,0 -6.42143,-1.0247 -7.78769,0 -1.36626,1.02469 -2.93746,2.73252 -2.93746,2.73252 z"
         id="path18" /><path
         style="fill:#5c4731;fill-opacity:1;stroke:none;stroke-width:1.18677;stroke-linejoin:round;stroke-dasharray:none;stroke-dashoffset:318.954;stroke-opacity:1;paint-order:markers stroke fill"
         d="m 399.90447,186.28963 c -0.27325,0.20494 -2.1177,3.00577 -1.43457,3.62059 0.68313,0.61482 3.48396,1.29795 5.05516,-0.88807 1.5712,-2.18602 2.11771,-2.25433 3.96216,-2.25433 1.84445,0 3.00577,1.5712 4.03047,0.54651 1.02469,-1.0247 4.50866,-1.36626 0.95638,-2.86915 -3.55228,-1.50289 1.70783,-4.64529 -5.60167,-1.91277 -7.30949,2.73252 -6.89961,3.48397 -6.89961,3.48397 z"
         id="path19" /><path
         style="fill:#6c4837;fill-opacity:1;stroke:none;stroke-width:1.18677;stroke-linejoin:round;stroke-dasharray:none;stroke-dashoffset:318.954;stroke-opacity:1;paint-order:markers stroke fill"
         d="m 390.88715,230.00997 c -3.89384,0 -7.71937,1.02469 -9.70045,2.39095 -1.98108,1.36627 -1.5712,3.48397 -7.17287,5.80661 -5.60166,2.32265 -6.69467,3.00578 -9.15394,3.34734 -2.45927,0.34157 -3.27903,1.16132 -5.94324,1.43457 -2.6642,0.27326 -5.8066,-0.0683 -3.27902,0.4782 2.52758,0.5465 8.67575,2.39095 9.22226,2.45926 0.5465,0.0683 4.85022,1.09301 7.24118,0.0683 2.39096,-1.0247 6.55805,0.68313 8.74407,-1.5712 2.18601,-2.25433 4.16709,-2.80084 7.44612,-3.21071 3.27902,-0.40988 4.98685,-1.29795 6.62636,-0.4782 1.63951,0.81976 6.14817,3.62059 6.76299,3.75722 0.61482,0.13663 1.0247,-2.04939 2.18602,-1.16132 1.16132,0.88807 1.91276,3.48396 3.55228,3.75722 1.63951,0.27325 2.93746,1.70782 5.05516,0.5465 2.1177,-1.16132 1.91276,-0.47819 2.59589,-1.91276 0.68313,-1.43458 3.48397,-1.98108 0.95639,-2.0494 -2.52759,-0.0683 -4.85023,0 -5.39673,0 -0.54651,0 -1.22964,2.0494 -1.36626,-1.093 -0.13663,-3.1424 0.27325,-3.48397 -0.13663,-5.26011 -0.40988,-1.77614 1.5712,-1.02469 -1.09301,-2.59589 -2.66421,-1.5712 -4.16709,-2.18602 -5.53335,-2.80084 -1.36626,-0.61481 -3.62059,-1.16132 -5.19179,-1.50288 -1.5712,-0.34157 -6.42143,-0.40988 -6.42143,-0.40988 z"
         id="path20" /><path
         style="fill:none;stroke:none;stroke-width:1.18677;stroke-linejoin:round;stroke-dasharray:none;stroke-dashoffset:318.954;stroke-opacity:1;paint-order:markers stroke fill"
         d="m 381.52827,243.60426 c 0.34156,0.61482 2.45927,1.77614 6.69467,3.07409 4.23541,1.29795 7.24119,2.25433 8.06094,1.84445 0.81976,-0.40988 1.29795,-0.34157 0.88807,-1.77614 -0.40988,-1.43457 4.50866,-1.43457 -0.75144,-2.73252 -5.26011,-1.29795 -4.57698,-1.09301 -8.33419,-1.63951 -3.75722,-0.54651 -6.35311,-0.47819 -6.55805,0 -0.20494,0.47819 -0.40988,1.63951 -0.40988,1.63951 z"
         id="path21" /><path
         style="fill:#e2c79f;fill-opacity:1;stroke:none;stroke-width:1.18677;stroke-linejoin:round;stroke-dasharray:none;stroke-dashoffset:318.954;stroke-opacity:1;paint-order:markers stroke fill"
         d="m 377.63442,245.03884 c 0,0.5465 0.81976,6.21648 6.14818,8.53912 5.32841,2.32265 4.78191,4.7136 8.74406,3.34734 3.96216,-1.36626 8.47082,0.75145 7.10456,-2.86914 -1.36626,-3.6206 -1.77614,-4.09879 -1.77614,-4.09879 0,0 2.25433,-2.25433 -0.27325,-2.25433 -2.52758,0 -5.39673,0.0683 -10.9984,-1.50288 -5.60167,-1.5712 -7.17287,-2.32265 -7.44612,-2.32265 -0.27325,0 -1.50289,1.16133 -1.50289,1.16133 z"
         id="path22" /><path
         style="fill:#e2c79f;fill-opacity:1;stroke:none;stroke-width:1.18677;stroke-linejoin:round;stroke-dasharray:none;stroke-dashoffset:318.954;stroke-opacity:1;paint-order:markers stroke fill"
         d="m 387.4715,188.7489 c 0,0.95638 -1.63951,16.19019 -2.04939,17.62476 -0.40988,1.43457 -1.50289,4.85023 -0.95638,7.30949 0.5465,2.45927 1.70782,5.1918 1.22963,7.71938 -0.47819,2.52758 -0.81975,3.89384 0.0683,4.85022 0.88806,0.95638 -0.75145,1.43458 2.18601,1.77614 2.93746,0.34157 4.57697,-1.29795 7.51444,-2.1177 2.93746,-0.81976 2.45926,0.34156 4.2354,-0.81976 1.77614,-1.16132 3.07409,3.62059 2.11771,-1.43457 -0.95639,-5.05517 -1.43458,-8.06094 -2.52759,-10.38358 -1.093,-2.32265 -1.91276,0 -3.34733,-6.21649 -1.43458,-6.21648 -1.91277,-9.29057 -1.98108,-11.81815 -0.0683,-2.52759 -1.09301,-10.04202 -1.09301,-10.04202 0,0 -1.43457,-0.47819 -2.59589,0.88807 -1.16133,1.36626 -2.80084,2.66421 -2.80084,2.66421 z"
         id="path23" /><path
         style="fill:#e2c79f;fill-opacity:1;stroke:none;stroke-width:1.18677;stroke-linejoin:round;stroke-dasharray:none;stroke-dashoffset:318.954;stroke-opacity:1;paint-order:markers stroke fill"
         d="m 349.96765,200.90862 c 0,0 7.17287,7.92431 10.65683,11.13502 3.48396,3.21071 4.98685,4.98685 9.22226,4.85023 4.23541,-0.13663 7.24118,-0.0683 8.33419,-1.91277 1.09301,-1.84445 1.50289,-2.86914 2.04939,-2.93746 0.5465,-0.0683 3.75722,-2.32264 2.32264,3.00578 -1.43457,5.32841 -1.02469,7.03624 -2.32264,10.86177 -1.29795,3.82553 -3.00577,5.12347 -6.69468,7.51443 -3.6889,2.39096 -1.36626,2.18602 -6.48973,2.73252 -5.12348,0.54651 -3.55228,6.35311 -6.42143,0.13663 -2.86915,-6.21649 -2.52758,-8.33419 -4.85022,-9.49551 -2.32265,-1.16133 -1.22964,2.73252 -5.53336,-3.07409 -4.30372,-5.80661 -3.96216,-2.86915 -5.94323,-8.53913 -1.98108,-5.66998 -3.75722,-7.58274 -2.73252,-10.86177 1.02469,-3.27903 1.57119,-7.71937 2.59589,-7.856 1.0247,-0.13662 3.41565,-0.68313 3.96216,0.40988 0.5465,1.09301 1.84445,3.75722 1.84445,3.75722 l 0.13662,0.88807 z"
         id="path24" /><path
         style="fill:#e2c79f;fill-opacity:1;stroke:none;stroke-width:1.18677;stroke-linejoin:round;stroke-dasharray:none;stroke-dashoffset:318.954;stroke-opacity:1;paint-order:markers stroke fill"
         d="m 348.05488,187.79252 c -0.0683,0.5465 -1.91276,4.7136 0.61482,6.55805 2.52758,1.84445 4.37203,5.12347 5.46504,4.03047 1.09301,-1.09301 1.91277,-0.81976 5.26011,-3.62059 3.34733,-2.80084 4.2354,-3.41566 5.19179,-3.89385 0.95638,-0.47819 4.50866,-1.50288 0,-2.18601 -4.50866,-0.68313 -8.26588,-2.04939 -10.79346,-2.18602 -2.52758,-0.13663 -3.55228,-0.95638 -4.57698,0 -1.02469,0.95638 -1.16132,1.29795 -1.16132,1.29795 z"
         id="path25" /><path
         style="fill:#dec8a2;fill-opacity:1;stroke:none;stroke-width:1.18677;stroke-linejoin:round;stroke-dasharray:none;stroke-dashoffset:318.954;stroke-opacity:1;paint-order:markers stroke fill"
         d="m 367.31916,176.1793 c -0.47819,1.0247 -5.46505,2.04939 1.5712,3.75722 7.03624,1.70782 11.27165,3.6889 12.43297,4.50866 1.16132,0.81975 -0.27325,1.09301 4.7136,1.22963 4.98685,0.13663 7.58274,0.95639 8.53913,0.27326 0.95638,-0.68314 -0.61482,0.27325 1.84445,-0.81976 2.45927,-1.09301 4.85022,1.36626 4.23541,-2.66421 -0.61482,-4.03047 2.80083,-4.30372 -2.25433,-5.87492 -5.05517,-1.5712 -9.90539,-3.55228 -13.73092,-3.1424 -3.82553,0.40988 -7.58275,1.29795 -10.52021,1.63951 -2.93746,0.34157 -6.8313,1.09301 -6.8313,1.09301 z"
         id="path26" /><path
         style="fill:#5c4731;fill-opacity:1;stroke:none;stroke-width:1.18677;stroke-linejoin:round;stroke-dasharray:none;stroke-dashoffset:318.954;stroke-opacity:1;paint-order:markers stroke fill"
         d="m 357.0722,197.1514 c 0.95639,0.88807 1.29795,4.98685 2.93746,4.1671 1.63952,-0.81976 2.11771,-2.86915 7.65106,-3.62059 5.53336,-0.75145 7.17287,-1.16133 8.60744,-1.09301 1.43458,0.0683 2.04939,0.95638 3.62059,0.34156 1.5712,-0.61481 2.45927,-0.68313 2.45927,-2.80083 0,-2.11771 3.1424,-4.1671 -1.093,-4.91854 -4.23541,-0.75144 -7.65106,-2.25433 -11.40828,-0.47819 -3.75722,1.77614 -2.80083,2.45927 -6.14817,4.23541 -3.34734,1.77614 -6.62637,4.16709 -6.62637,4.16709 z"
         id="path27" /><path
         style="fill:#554840;fill-opacity:1;stroke:none;stroke-width:1.18677;stroke-linejoin:round;stroke-dasharray:none;stroke-dashoffset:318.954;stroke-opacity:1;paint-order:markers stroke fill"
         d="m 297.57155,202.8897 c 0,0.81975 9.83708,24.59269 11.33997,25.00256 1.50288,0.40988 4.91854,7.10456 14.07248,13.38936 9.15395,6.2848 10.93009,7.65106 16.2585,10.5202 5.32842,2.86915 7.92431,3.96216 7.92431,3.96216 l -5.19179,-12.15972 c 0,0 -16.805,-28.41822 -16.94163,-31.83387 -0.13662,-3.41565 -1.50288,-17.35151 -1.50288,-18.71777 0,-1.36626 -0.40988,-10.93008 -0.40988,-10.93008 z"
         id="path29" /><path
         style="fill:#e9d2a1;fill-opacity:1;stroke:none;stroke-width:1.18677;stroke-linejoin:round;stroke-dasharray:none;stroke-dashoffset:318.954;stroke-opacity:1;paint-order:markers stroke fill"
         d="m 426.23984,414.74335 c 0,0 -1.83557,6.47282 2.12541,8.69483 3.96097,2.22201 8.69483,4.83046 11.30327,5.69994 2.60845,0.86948 4.92707,1.44914 6.56943,2.31862 1.64236,0.86948 -10.43379,-0.28983 -13.52529,-1.35253 -3.09149,-1.0627 -7.92195,-3.38132 -10.33718,-4.73385 -2.41523,-1.35253 -4.05759,-2.51184 -5.79656,-2.89828 -1.73896,-0.38643 -4.44402,-2.1254 -7.14908,-2.1254 -2.70506,0 -3.09149,-3.67115 -4.44402,0.86949 -1.35253,4.54063 -0.19322,4.2508 -1.44914,5.02367 -1.25592,0.77288 -2.51184,0.9661 -3.47793,1.35253 -0.96609,0.38644 -3.76776,-2.80166 -2.0288,2.12541 1.73897,4.92707 4.54064,6.95586 5.69995,7.53551 1.15931,0.57966 1.83557,0.48305 1.93218,1.25592 0.0966,0.77288 1.44914,1.83558 -0.77287,2.12541 -2.22201,0.28982 -4.54063,0 -4.1542,1.83557 0.38644,1.83558 1.93219,3.57454 3.47793,5.02368 1.54575,1.44914 3.47794,5.12029 8.01857,8.59822 4.54063,3.47793 11.20667,6.2796 14.00833,7.05247 2.80167,0.77288 1.25592,2.89828 7.43891,1.54575 6.18299,-1.35253 8.59822,0.28983 13.71851,-2.02879 5.12029,-2.31862 2.60845,-0.77288 7.3423,-4.25081 4.73385,-3.47793 6.66604,-4.92707 8.88805,-7.53552 2.22201,-2.60845 4.63724,-5.12029 5.12029,-10.04735 0.48304,-4.92707 1.25592,-11.59311 0.86948,-13.33208 -0.38644,-1.73896 0.38644,-4.92707 -2.41523,-4.92707 -2.80167,0 -6.47282,1.64236 -10.5304,-0.48304 -4.05759,-2.1254 -23.47604,-7.72874 -23.47604,-7.72874 0,0 -3.67115,-1.83557 -4.34742,-1.35253 -0.67626,0.48305 -2.60845,1.73897 -2.60845,1.73897 z"
         id="path31" /><path
         style="fill:#e9d2a1;fill-opacity:1;stroke:none;stroke-width:1.18677;stroke-linejoin:round;stroke-dasharray:none;stroke-dashoffset:318.954;stroke-opacity:1;paint-order:markers stroke fill"
         d="m 289.10074,516.17325 c 0,0 -13.52598,10.5202 -13.79923,14.61899 -0.27326,4.09878 -1.50289,8.47081 0.5465,10.24695 2.04939,1.77614 7.65106,3.6889 11.47659,6.42142 3.82553,2.73253 3.00577,5.19179 10.93008,10.79346 7.92432,5.60167 1.22964,-0.95638 12.70623,13.1161 11.47659,14.07249 12.70622,15.30212 13.38935,18.03464 0.68313,2.73253 0.40988,5.60167 2.04939,7.92432 1.63952,2.32264 0.54651,-10.93009 0.54651,-12.29635 0,-1.36626 0,-9.4272 0,-9.4272 0,0 3.6889,10.79346 7.92431,14.61899 4.23541,3.82553 4.23541,5.60167 7.10455,7.10456 2.86915,1.50288 6.14818,4.64528 8.33419,3.96215 2.18602,-0.68313 5.46505,1.77614 3.96216,-2.18602 -1.50289,-3.96215 -1.22964,-3.00577 -4.09878,-10.93008 -2.86915,-7.92431 -5.05517,-17.35151 -6.42143,-20.90379 -1.36626,-3.55227 -4.23541,-10.24695 -5.46504,-11.33996 -1.22963,-1.09301 -5.60167,-5.46504 -3.96216,-4.78191 1.63952,0.68313 14.34574,7.78768 15.712,9.15394 1.36626,1.36626 6.42143,5.05517 7.10456,7.65106 0.68313,2.5959 0,8.06094 2.73252,8.19757 2.73252,0.13662 3.6889,6.2848 4.37203,-0.81976 0.68313,-7.10455 3.00577,-2.59589 0.68313,-7.92431 -2.32264,-5.32842 -11.06671,-17.48814 -12.70622,-18.99102 -1.63952,-1.50289 -16.2585,-13.25273 -20.90379,-15.02887 -4.64529,-1.77614 -31.69724,-13.1161 -33.06351,-13.93586 -1.36626,-0.81975 -9.15394,-3.27902 -9.15394,-3.27902 z"
         id="path32" /></g></g></svg>
