<?xml version="1.0" encoding="UTF-8" standalone="no"?>
<!-- Generator: Adobe Illustrator 22.1.0, SVG Export Plug-In . SVG Version: 6.00 Build 0)  -->

<svg
     version="1.1"
     id="Layer_1"
     x="0px"
     y="0px"
     viewBox="0 0 1422 1422"
     style="enable-background:new 0 0 1422 1422;"
     xml:space="preserve"
     sodipodi:docname="packagingBack.svg"
     inkscape:version="1.2.2 (732a01da63, 2022-12-09)"
     xmlns:inkscape="http://www.inkscape.org/namespaces/inkscape"
     xmlns:sodipodi="http://sodipodi.sourceforge.net/DTD/sodipodi-0.dtd"
     xmlns="http://www.w3.org/2000/svg"
     xmlns:svg="http://www.w3.org/2000/svg"><defs
     id="defs509" /><sodipodi:namedview
     id="namedview507"
     pagecolor="#ffffff"
     bordercolor="#999999"
     borderopacity="1"
     inkscape:showpageshadow="0"
     inkscape:pageopacity="0"
     inkscape:pagecheckerboard="0"
     inkscape:deskcolor="#d1d1d1"
     showgrid="false"
     inkscape:zoom="1.0213765"
     inkscape:cx="749.4788"
     inkscape:cy="670.17405"
     inkscape:window-width="2560"
     inkscape:window-height="1351"
     inkscape:window-x="1491"
     inkscape:window-y="585"
     inkscape:window-maximized="1"
     inkscape:current-layer="Layer_1" />
<style
     type="text/css"
     id="style2">
	.st0{fill-opacity:0.5;}
	.st1{fill:none;stroke:#00A54F;stroke-miterlimit:10;}
	.st2{fill:none;stroke:#27A8E0;stroke-miterlimit:10;}
	.st3{fill:none;stroke:#27A8E0;stroke-miterlimit:10;stroke-dasharray:11.847,11.847;}
	.st4{fill:none;stroke:#27A8E0;stroke-miterlimit:10;stroke-dasharray:11.8539,11.8539;}
	.st5{fill:none;stroke:#27A8E0;stroke-miterlimit:10;stroke-dasharray:12;}
	.st6{fill:none;stroke:#EB232A;stroke-width:0.9921;stroke-linecap:round;stroke-linejoin:round;stroke-miterlimit:10;}
	.st7{fill:none;stroke:#929497;stroke-width:1.5906;}
	.st8{fill:#231F20;}
	.st9{font-family:'Arial-Black';}
	.st10{font-size:14.3173px;}
	.st11{fill:#2BA6DE;}
	.st12{font-family:'Arial-BoldMT';}
	.st13{font-size:11.931px;}
	.st14{fill:#EC1E28;}
	.st15{fill:#929497;}
	.st16{fill:none;stroke:#00ADEE;stroke-width:1.5906;stroke-miterlimit:10;stroke-dasharray:19.0873;}
	.st17{fill:none;stroke:#EC1E28;stroke-width:1.5906;}
	.st18{fill:#D0D2D3;}
	.st19{font-size:9.83px;}
	.st20{fill-rule:evenodd;clip-rule:evenodd;}
	.st21{fill-rule:evenodd;clip-rule:evenodd;fill:#B7D333;}
	.st22{fill-rule:evenodd;clip-rule:evenodd;fill:#FFFFFF;}
	.st23{fill-rule:evenodd;clip-rule:evenodd;fill:#4C4849;}
	.st24{fill:#4C4849;}
	.st25{fill:none;}
	.st26{fill:#FFFFFF;}
</style>
<path
     class="st0"
     d="M 1422,1422 H 0 V 0 h 1422 z"
     id="path4"
     sodipodi:nodetypes="ccccc"
     style="fill:none" />










<path
     style="fill:gray;fill-opacity:1;stroke-width:5.76969;stroke-linecap:round;stroke-linejoin:round;paint-order:markers stroke fill"
     d="m 313.77182,1373.1923 c -2.2056,-32.4904 -2.6792,-35.9302 -5.3374,-38.7692 -2.8922,-3.0888 -3.2519,-3.1154 -42.1373,-3.1154 h -39.2202 v -68.1839 -68.184 l 41.8761,-41.893 41.8761,-41.893 h -110.0684 c -104.703695,0 -141.146795,-1.0087 -179.645295,-4.9901 l -7.2693,-0.7518 V 710.99998 316.58386 l 7.2693,-0.75178 c 38.4985,-3.98142 74.9416,-4.99367 179.645295,-4.98991 l 110.0684,0.004 -41.8761,-41.89299 -41.8761,-41.89299 V 158.87622 90.692275 h 39.2202 c 38.9086,0 39.2427,-0.0247 42.0589,-3.11538 2.5406,-2.78825 3.0763,-6.60487 5.1015,-36.34616 1.2445,-18.27692 2.2565,-34.32115 2.2488,-35.65384 -0.013,-2.30206 19.7147,-2.42308 395.0154,-2.42308 h 395.02948 l 2.3987,35.61087 c 2.2019,32.69016 2.642,35.86992 5.3658,38.76924 2.9535,3.14389 3.1467,3.15835 42.1873,3.15835 h 39.2202 v 67.508665 67.50866 l -41.5385,41.52115 c -22.8461,22.83663 -41.5384,41.99234 -41.5384,42.56826 0,0.57592 50.0019,1.04375 111.1153,1.03965 104.9893,-0.007 150.5768,1.25322 179.3077,4.95702 l 5.8846,0.7586 v 394.53054 c 0,216.99184 -0.4673,394.54008 -1.0384,394.55168 -0.5712,0.011 -18.1731,1.2482 -39.1154,2.7481 -33.0224,2.3651 -52.596,2.7299 -147.453,2.7482 l -109.3761,0.021 41.8761,41.893 41.8761,41.893 v 68.184 68.1839 h -39.2203 c -38.8854,0 -39.2451,0.027 -42.1372,3.1154 -2.6582,2.839 -3.1319,6.2788 -5.3374,38.7692 l -2.4204,35.6539 H 711.00002 316.19212 Z"
     id="path883" /><g
     id="g758"><rect
         x="310.60001"
         y="311"
         class="st1"
         width="800.5"
         height="800.09998"
         id="rect6" /><g
         id="g26">
	<g
     id="g24">
		<polyline
     class="st2"
     points="325.6,1102 319.6,1102 319.6,1096   "
     id="polyline8" />
		<line
     class="st3"
     x1="319.60001"
     y1="1084.2"
     x2="319.60001"
     y2="331.89999"
     id="line10" />
		<polyline
     class="st2"
     points="319.6,326 319.6,320 325.6,320   "
     id="polyline12" />
		<line
     class="st4"
     x1="337.5"
     y1="320"
     x2="1090.2"
     y2="320"
     id="line14" />
		<polyline
     class="st2"
     points="1096.1,320 1102.1,320 1102.1,326   "
     id="polyline16" />
		<line
     class="st3"
     x1="1102.1"
     y1="337.79999"
     x2="1102.1"
     y2="1090.1"
     id="line18" />
		<polyline
     class="st2"
     points="1102.1,1096 1102.1,1102 1096.1,1102   "
     id="polyline20" />
		<line
     class="st4"
     x1="1084.3"
     y1="1102"
     x2="331.60001"
     y2="1102"
     id="line22" />
	</g>
</g><rect
         x="310.60001"
         y="89.800003"
         class="st1"
         width="800.5"
         height="221.2"
         id="rect28" /><rect
         x="319.60001"
         y="98.800003"
         class="st5"
         width="782.5"
         height="203.2"
         id="rect30" /><rect
         x="310.60001"
         y="1111"
         class="st1"
         width="800.5"
         height="221.2"
         id="rect32" /><rect
         x="319.60001"
         y="1120"
         class="st5"
         width="782.5"
         height="203.2"
         id="rect34" /><line
         class="st1"
         x1="1332.1"
         y1="310.70001"
         x2="1332.1"
         y2="1111.3"
         id="line36" /><rect
         x="1119.9"
         y="319.70001"
         class="st5"
         width="203.2"
         height="782.5"
         id="rect38" /><line
         class="st1"
         x1="89.699997"
         y1="1111.3"
         x2="89.699997"
         y2="310.70001"
         id="line40" /><rect
         x="98.699997"
         y="319.70001"
         class="st5"
         width="203.2"
         height="782.5"
         id="rect42" /><polyline
         class="st6"
         points="1337.2,310.7 1111,310.7 1195.9,225.9 1195.9,89.8 1116,89.8 1110.9,84.8 1105.9,12.8 315.7,12.8   310.6,84.8 305.6,89.8 225.9,89.8 225.9,225.9 310.6,310.6 310.6,310.9 310.6,311 84.8,311 12.8,316 12.8,1106.2 84.8,1111.3   310.7,1111.3 225.9,1196.1 225.9,1332.2 305.8,1332.2 310.9,1337.2 315.9,1409.2 1106.1,1409.2 1111.1,1337.2 1116.2,1332.2   1195.9,1332.2 1195.9,1196.1 1111.1,1111.4 1111.1,1111 1337.2,1111 1409.2,1106 1409.2,315.8 1337.2,310.7 "
         id="polyline44" /></g>











</svg>
