<?xml version="1.0" encoding="UTF-8" standalone="no"?>
<!-- Generator: Adobe Illustrator 22.1.0, SVG Export Plug-In . SVG Version: 6.00 Build 0)  -->

<svg
     sodipodi:docname="packagingFront.svg"
     xml:space="preserve"
     style="enable-background:new 0 0 1422 1422;"
     viewBox="0 0 1422 1422"
     y="0px"
     x="0px"
     id="Layer_1"
     version="1.1"
     inkscape:version="1.2.2 (732a01da63, 2022-12-09)"
     xmlns:inkscape="http://www.inkscape.org/namespaces/inkscape"
     xmlns:sodipodi="http://sodipodi.sourceforge.net/DTD/sodipodi-0.dtd"
     xmlns="http://www.w3.org/2000/svg"
     xmlns:svg="http://www.w3.org/2000/svg"><defs
     id="defs509" /><sodipodi:namedview
     id="namedview507"
     pagecolor="#ffffff"
     bordercolor="#999999"
     borderopacity="1"
     inkscape:showpageshadow="0"
     inkscape:pageopacity="0"
     inkscape:pagecheckerboard="0"
     inkscape:deskcolor="#d1d1d1"
     showgrid="false"
     inkscape:zoom="0.62899486"
     inkscape:cx="875.20587"
     inkscape:cy="638.32"
     inkscape:window-width="2560"
     inkscape:window-height="1351"
     inkscape:window-x="1491"
     inkscape:window-y="585"
     inkscape:window-maximized="1"
     inkscape:current-layer="Layer_1" />
<style
     type="text/css"
     id="style2">
	.st0{fill-opacity:0.5;}
	.st1{fill:none;stroke:#00A54F;stroke-miterlimit:10;}
	.st2{fill:none;stroke:#27A8E0;stroke-miterlimit:10;}
	.st3{fill:none;stroke:#27A8E0;stroke-miterlimit:10;stroke-dasharray:11.847,11.847;}
	.st4{fill:none;stroke:#27A8E0;stroke-miterlimit:10;stroke-dasharray:11.8539,11.8539;}
	.st5{fill:none;stroke:#27A8E0;stroke-miterlimit:10;stroke-dasharray:12;}
	.st6{fill:none;stroke:#EB232A;stroke-width:0.9921;stroke-linecap:round;stroke-linejoin:round;stroke-miterlimit:10;}
	.st7{fill:none;stroke:#929497;stroke-width:1.5906;}
	.st8{fill:#231F20;}
	.st9{font-family:'Arial-Black';}
	.st10{font-size:14.3173px;}
	.st11{fill:#2BA6DE;}
	.st12{font-family:'Arial-BoldMT';}
	.st13{font-size:11.931px;}
	.st14{fill:#EC1E28;}
	.st15{fill:#929497;}
	.st16{fill:none;stroke:#00ADEE;stroke-width:1.5906;stroke-miterlimit:10;stroke-dasharray:19.0873;}
	.st17{fill:none;stroke:#EC1E28;stroke-width:1.5906;}
	.st18{fill:#D0D2D3;}
	.st19{font-size:9.83px;}
	.st20{fill-rule:evenodd;clip-rule:evenodd;}
	.st21{fill-rule:evenodd;clip-rule:evenodd;fill:#B7D333;}
	.st22{fill-rule:evenodd;clip-rule:evenodd;fill:#FFFFFF;}
	.st23{fill-rule:evenodd;clip-rule:evenodd;fill:#4C4849;}
	.st24{fill:#4C4849;}
	.st25{fill:none;}
	.st26{fill:#FFFFFF;}
</style>























<rect
     style="fill:none;fill-opacity:0;stroke-width:18.5089;stroke-linecap:round;stroke-linejoin:round;paint-order:markers stroke fill"
     id="rect10338"
     width="1422"
     height="1422"
     x="0"
     y="0" /><path
     style="fill:#f0f0f0;fill-opacity:1;stroke-width:8.15958;stroke-linecap:round;stroke-linejoin:round;paint-order:markers stroke fill"
     d="m 316.44006,1406.6345 c -0.39811,-1.3462 -1.6749,-17.3389 -2.83727,-35.5394 -1.66604,-26.0866 -2.8076,-33.8587 -5.3926,-36.7151 -2.981,-3.294 -6.81281,-3.6235 -42.13855,-3.6235 H 227.2123 v -68.0287 -68.0288 l 41.59343,-41.6272 41.59344,-41.6272 H 201.05061 c -95.98757,0 -138.699802,-1.2342 -176.995532,-5.1146 l -10.280249,-1.0416 V 711.06094 316.83342 l 9.301179,-1.26557 c 5.115641,-0.69608 71.64351,-1.74163 147.839712,-2.32345 76.19619,-0.58184 138.53853,-1.65097 138.53853,-2.37585 0,-0.72487 -18.50444,-19.80665 -41.12098,-42.40396 l -41.12097,-41.086 V 159.31567 91.252765 h 38.85934 c 34.9227,0 39.18226,-0.35681 42.04677,-3.52206 2.46185,-2.72031 3.75673,-11.52384 5.68838,-38.67331 l 2.50096,-35.15124 394.68488,-0.49428 394.68487,-0.49429 2.4051,35.67141 c 1.8622,27.61822 3.1194,36.4607 5.5691,39.16758 2.8348,3.13241 7.2073,3.49619 42.0234,3.49619 h 38.8593 v 68.028725 68.02874 l -41.5934,41.6272 -41.5934,41.62721 109.6388,0.0558 c 77.0148,0.0392 120.4182,0.89658 145.8645,2.88143 19.9241,1.55411 37.3271,2.85076 38.6733,2.88142 3.6013,0.082 3.6013,789.16061 0,789.24271 -1.3462,0.031 -18.7492,1.3273 -38.6733,2.8814 -25.4463,1.9849 -68.8497,2.8423 -145.8645,2.8814 l -109.6388,0.056 41.5934,41.6272 41.5934,41.6272 v 68.0288 68.0287 h -38.8593 c -34.5262,0 -39.204,0.3821 -41.9497,3.4267 -2.3536,2.6098 -3.6735,11.9471 -5.5362,39.1629 l -2.4458,35.7361 H 711.45363 c -313.7403,0 -394.4376,-0.5001 -395.01357,-2.4477 z"
     id="path10284" /><g
     id="g10213"><g
         id="g10186"><rect
             x="310.60001"
             y="311"
             class="st1"
             width="800.5"
             height="800.09998"
             id="rect6" /><g
             id="g26">
	<g
     id="g24">
		<polyline
     class="st2"
     points="325.6,1102 319.6,1102 319.6,1096   "
     id="polyline8" />
		<line
     class="st3"
     x1="319.60001"
     y1="1084.2"
     x2="319.60001"
     y2="331.89999"
     id="line10" />
		<polyline
     class="st2"
     points="319.6,326 319.6,320 325.6,320   "
     id="polyline12" />
		<line
     class="st4"
     x1="337.5"
     y1="320"
     x2="1090.2"
     y2="320"
     id="line14" />
		<polyline
     class="st2"
     points="1096.1,320 1102.1,320 1102.1,326   "
     id="polyline16" />
		<line
     class="st3"
     x1="1102.1"
     y1="337.79999"
     x2="1102.1"
     y2="1090.1"
     id="line18" />
		<polyline
     class="st2"
     points="1102.1,1096 1102.1,1102 1096.1,1102   "
     id="polyline20" />
		<line
     class="st4"
     x1="1084.3"
     y1="1102"
     x2="331.60001"
     y2="1102"
     id="line22" />
	</g>
</g><rect
             x="310.60001"
             y="89.800003"
             class="st1"
             width="800.5"
             height="221.2"
             id="rect28" /><rect
             x="319.60001"
             y="98.800003"
             class="st5"
             width="782.5"
             height="203.2"
             id="rect30" /><rect
             x="310.60001"
             y="1111"
             class="st1"
             width="800.5"
             height="221.2"
             id="rect32" /><rect
             x="319.60001"
             y="1120"
             class="st5"
             width="782.5"
             height="203.2"
             id="rect34" /><line
             class="st1"
             x1="1332.1"
             y1="310.70001"
             x2="1332.1"
             y2="1111.3"
             id="line36" /><rect
             x="1119.9"
             y="319.70001"
             class="st5"
             width="203.2"
             height="782.5"
             id="rect38" /><line
             class="st1"
             x1="89.699997"
             y1="1111.3"
             x2="89.699997"
             y2="310.70001"
             id="line40" /><rect
             x="98.699997"
             y="319.70001"
             class="st5"
             width="203.2"
             height="782.5"
             id="rect42" /><polyline
             class="st6"
             points="1337.2,310.7 1111,310.7 1195.9,225.9 1195.9,89.8 1116,89.8 1110.9,84.8 1105.9,12.8 315.7,12.8   310.6,84.8 305.6,89.8 225.9,89.8 225.9,225.9 310.6,310.6 310.6,310.9 310.6,311 84.8,311 12.8,316 12.8,1106.2 84.8,1111.3   310.7,1111.3 225.9,1196.1 225.9,1332.2 305.8,1332.2 310.9,1337.2 315.9,1409.2 1106.1,1409.2 1111.1,1337.2 1116.2,1332.2   1195.9,1332.2 1195.9,1196.1 1111.1,1111.4 1111.1,1111 1337.2,1111 1409.2,1106 1409.2,315.8 1337.2,310.7 "
             id="polyline44" /></g><text
         xml:space="preserve"
         style="font-style:normal;font-variant:normal;font-weight:normal;font-stretch:normal;font-size:46.511px;line-height:1;font-family:'Tenor Sans';-inkscape-font-specification:'Tenor Sans';text-align:center;text-anchor:middle;fill:#2d0f0f;fill-opacity:1;stroke-width:4.84529;stroke-linecap:round;stroke-linejoin:round;paint-order:markers stroke fill"
         x="696.19202"
         y="511.19498"
         id="text1502"><tspan
             sodipodi:role="line"
             id="tspan1500"
             x="696.19202"
             y="511.19498"
             style="stroke-width:4.84529">A Game of Duplicity and Faith</tspan></text><text
         xml:space="preserve"
         style="font-size:70.0098px;line-height:1;font-family:'IBM Plex Sans Condensed';-inkscape-font-specification:'IBM Plex Sans Condensed, ';text-align:center;text-anchor:middle;fill:white;stroke-width:7.29327;stroke-linecap:round;stroke-linejoin:round;paint-order:markers stroke fill"
         x="693.62903"
         y="457.19974"
         id="text792"><tspan
             sodipodi:role="line"
             id="tspan790"
             x="693.62903"
             y="457.19974"
             style="font-style:normal;font-variant:normal;font-weight:normal;font-stretch:normal;font-family:'Tenor Sans';-inkscape-font-specification:'Tenor Sans';fill:#2d0f0f;fill-opacity:1;stroke-width:7.29327">Peace of Westphalia</tspan></text></g></svg>
