<?xml version="1.0" encoding="UTF-8" standalone="no"?>
<!-- Generator: Adobe Illustrator 22.1.0, SVG Export Plug-In . SVG Version: 6.00 Build 0)  -->

<svg
     sodipodi:docname="packagingFront.svg"
     xml:space="preserve"
     style="enable-background:new 0 0 1422 1422;"
     viewBox="0 0 1422 1422"
     y="0px"
     x="0px"
     id="Layer_1"
     version="1.1"
     inkscape:version="1.2.2 (732a01da63, 2022-12-09)"
     xmlns:inkscape="http://www.inkscape.org/namespaces/inkscape"
     xmlns:sodipodi="http://sodipodi.sourceforge.net/DTD/sodipodi-0.dtd"
     xmlns="http://www.w3.org/2000/svg"
     xmlns:svg="http://www.w3.org/2000/svg"><defs
     id="defs509">
	
</defs><sodipodi:namedview
     id="namedview507"
     pagecolor="#ffffff"
     bordercolor="#999999"
     borderopacity="1"
     inkscape:showpageshadow="0"
     inkscape:pageopacity="0"
     inkscape:pagecheckerboard="0"
     inkscape:deskcolor="#d1d1d1"
     showgrid="false"
     inkscape:zoom="0.62899486"
     inkscape:cx="595.39437"
     inkscape:cy="811.61236"
     inkscape:window-width="2560"
     inkscape:window-height="1351"
     inkscape:window-x="1491"
     inkscape:window-y="585"
     inkscape:window-maximized="1"
     inkscape:current-layer="Layer_1" />
<style
     type="text/css"
     id="style2">
	.st0{fill-opacity:0.5;}
	.st1{fill:none;stroke:#00A54F;stroke-miterlimit:10;}
	.st2{fill:none;stroke:#27A8E0;stroke-miterlimit:10;}
	.st3{fill:none;stroke:#27A8E0;stroke-miterlimit:10;stroke-dasharray:11.847,11.847;}
	.st4{fill:none;stroke:#27A8E0;stroke-miterlimit:10;stroke-dasharray:11.8539,11.8539;}
	.st5{fill:none;stroke:#27A8E0;stroke-miterlimit:10;stroke-dasharray:12;}
	.st6{fill:none;stroke:#EB232A;stroke-width:0.9921;stroke-linecap:round;stroke-linejoin:round;stroke-miterlimit:10;}
	.st7{fill:none;stroke:#929497;stroke-width:1.5906;}
	.st8{fill:#231F20;}
	.st9{font-family:'Arial-Black';}
	.st10{font-size:14.3173px;}
	.st11{fill:#2BA6DE;}
	.st12{font-family:'Arial-BoldMT';}
	.st13{font-size:11.931px;}
	.st14{fill:#EC1E28;}
	.st15{fill:#929497;}
	.st16{fill:none;stroke:#00ADEE;stroke-width:1.5906;stroke-miterlimit:10;stroke-dasharray:19.0873;}
	.st17{fill:none;stroke:#EC1E28;stroke-width:1.5906;}
	.st18{fill:#D0D2D3;}
	.st19{font-size:9.83px;}
	.st20{fill-rule:evenodd;clip-rule:evenodd;}
	.st21{fill-rule:evenodd;clip-rule:evenodd;fill:#B7D333;}
	.st22{fill-rule:evenodd;clip-rule:evenodd;fill:#FFFFFF;}
	.st23{fill-rule:evenodd;clip-rule:evenodd;fill:#4C4849;}
	.st24{fill:#4C4849;}
	.st25{fill:none;}
	.st26{fill:#FFFFFF;}
</style>























<rect
     style="fill:none;fill-opacity:0;stroke-width:18.5089;stroke-linecap:round;stroke-linejoin:round;paint-order:markers stroke fill"
     id="rect10338"
     width="1422"
     height="1422"
     x="0"
     y="0" /><path
     style="fill:#848484;fill-opacity:1;stroke-width:8.15958;stroke-linecap:round;stroke-linejoin:round;paint-order:markers stroke fill"
     d="m 316.44006,1406.6345 c -0.39811,-1.3462 -1.6749,-17.3389 -2.83727,-35.5394 -1.66604,-26.0866 -2.8076,-33.8587 -5.3926,-36.7151 -2.981,-3.294 -6.81281,-3.6235 -42.13855,-3.6235 H 227.2123 v -68.0287 -68.0288 l 41.59343,-41.6272 41.59344,-41.6272 H 201.05061 c -95.98757,0 -138.699802,-1.2342 -176.995532,-5.1146 l -10.280249,-1.0416 V 711.06094 316.83342 l 9.301179,-1.26557 c 5.115641,-0.69608 71.64351,-1.74163 147.839712,-2.32345 76.19619,-0.58184 138.53853,-1.65097 138.53853,-2.37585 0,-0.72487 -18.50444,-19.80665 -41.12098,-42.40396 l -41.12097,-41.086 V 159.31567 91.252765 h 38.85934 c 34.9227,0 39.18226,-0.35681 42.04677,-3.52206 2.46185,-2.72031 3.75673,-11.52384 5.68838,-38.67331 l 2.50096,-35.15124 394.68488,-0.49428 394.68487,-0.49429 2.4051,35.67141 c 1.8622,27.61822 3.1194,36.4607 5.5691,39.16758 2.8348,3.13241 7.2073,3.49619 42.0234,3.49619 h 38.8593 v 68.028725 68.02874 l -41.5934,41.6272 -41.5934,41.62721 109.6388,0.0558 c 77.0148,0.0392 120.4182,0.89658 145.8645,2.88143 19.9241,1.55411 37.3271,2.85076 38.6733,2.88142 3.6013,0.082 3.6013,789.16061 0,789.24271 -1.3462,0.031 -18.7492,1.3273 -38.6733,2.8814 -25.4463,1.9849 -68.8497,2.8423 -145.8645,2.8814 l -109.6388,0.056 41.5934,41.6272 41.5934,41.6272 v 68.0288 68.0287 h -38.8593 c -34.5262,0 -39.204,0.3821 -41.9497,3.4267 -2.3536,2.6098 -3.6735,11.9471 -5.5362,39.1629 l -2.4458,35.7361 H 711.45363 c -313.7403,0 -394.4376,-0.5001 -395.01357,-2.4477 z"
     id="path10284" /><rect
     x="310.60001"
     y="311"
     class="st1"
     width="800.5"
     height="800.09998"
     id="rect6" /><g
     id="g24">
		<polyline
     class="st2"
     points="325.6,1102 319.6,1102 319.6,1096   "
     id="polyline8" />
		<line
     class="st3"
     x1="319.60001"
     y1="1084.2"
     x2="319.60001"
     y2="331.89999"
     id="line10" />
		<polyline
     class="st2"
     points="319.6,326 319.6,320 325.6,320   "
     id="polyline12" />
		<line
     class="st4"
     x1="337.5"
     y1="320"
     x2="1090.2"
     y2="320"
     id="line14" />
		<polyline
     class="st2"
     points="1096.1,320 1102.1,320 1102.1,326   "
     id="polyline16" />
		<line
     class="st3"
     x1="1102.1"
     y1="337.79999"
     x2="1102.1"
     y2="1090.1"
     id="line18" />
		<polyline
     class="st2"
     points="1102.1,1096 1102.1,1102 1096.1,1102   "
     id="polyline20" />
		<line
     class="st4"
     x1="1084.3"
     y1="1102"
     x2="331.60001"
     y2="1102"
     id="line22" />
	</g><rect
     x="310.60001"
     y="89.800003"
     class="st1"
     width="800.5"
     height="221.2"
     id="rect28" /><rect
     x="319.60001"
     y="98.800003"
     class="st5"
     width="782.5"
     height="203.2"
     id="rect30" /><rect
     x="310.60001"
     y="1111"
     class="st1"
     width="800.5"
     height="221.2"
     id="rect32" /><rect
     x="319.60001"
     y="1120"
     class="st5"
     width="782.5"
     height="203.2"
     id="rect34" /><line
     class="st1"
     x1="1332.1"
     y1="310.70001"
     x2="1332.1"
     y2="1111.3"
     id="line36" /><rect
     x="1119.9"
     y="319.70001"
     class="st5"
     width="203.2"
     height="782.5"
     id="rect38" /><line
     class="st1"
     x1="89.699997"
     y1="1111.3"
     x2="89.699997"
     y2="310.70001"
     id="line40" /><rect
     x="98.699997"
     y="319.70001"
     class="st5"
     width="203.2"
     height="782.5"
     id="rect42" /><polyline
     class="st6"
     points="1337.2,310.7 1111,310.7 1195.9,225.9 1195.9,89.8 1116,89.8 1110.9,84.8 1105.9,12.8 315.7,12.8   310.6,84.8 305.6,89.8 225.9,89.8 225.9,225.9 310.6,310.6 310.6,310.9 310.6,311 84.8,311 12.8,316 12.8,1106.2 84.8,1111.3   310.7,1111.3 225.9,1196.1 225.9,1332.2 305.8,1332.2 310.9,1337.2 315.9,1409.2 1106.1,1409.2 1111.1,1337.2 1116.2,1332.2   1195.9,1332.2 1195.9,1196.1 1111.1,1111.4 1111.1,1111 1337.2,1111 1409.2,1106 1409.2,315.8 1337.2,310.7 "
     id="polyline44" /><text
     xml:space="preserve"
     style="font-style:normal;font-variant:normal;font-weight:normal;font-stretch:normal;font-size:46.511px;line-height:1;font-family:'Tenor Sans';-inkscape-font-specification:'Tenor Sans';text-align:center;text-anchor:middle;fill:#eae7e7;fill-opacity:1;stroke-width:4.84529;stroke-linecap:round;stroke-linejoin:round;paint-order:markers stroke fill"
     x="696.19202"
     y="511.19498"
     id="text1502"><tspan
         sodipodi:role="line"
         id="tspan1500"
         x="696.19202"
         y="511.19498"
         style="stroke-width:4.84529;fill:#eae7e7;fill-opacity:1">A Game of Duplicity and Faith</tspan></text><text
     xml:space="preserve"
     style="font-size:70.0098px;line-height:1;font-family:'IBM Plex Sans Condensed';-inkscape-font-specification:'IBM Plex Sans Condensed, ';text-align:center;text-anchor:middle;fill:#eae7e7;stroke-width:7.29327;stroke-linecap:round;stroke-linejoin:round;paint-order:markers stroke fill;fill-opacity:1"
     x="693.62903"
     y="457.19974"
     id="text792"><tspan
         sodipodi:role="line"
         id="tspan790"
         x="693.62903"
         y="457.19974"
         style="font-style:normal;font-variant:normal;font-weight:normal;font-stretch:normal;font-family:'Tenor Sans';-inkscape-font-specification:'Tenor Sans';fill:#eae7e7;fill-opacity:1;stroke-width:7.29327">Peace of Westphalia</tspan></text><text
     xml:space="preserve"
     style="font-weight:bold;font-size:28.9921px;line-height:1;font-family:Corbel;-inkscape-font-specification:'Corbel Bold';fill:#e8e8e8;stroke-width:42.799;stroke-linecap:round;stroke-linejoin:round;paint-order:markers stroke fill;fill-opacity:1"
     x="699.33893"
     y="559.89532"
     id="text315"><tspan
         sodipodi:role="line"
         id="tspan313"
         x="699.33893"
         y="559.89532"
         style="text-align:center;text-anchor:middle;stroke-width:42.799;fill:#e8e8e8;fill-opacity:1">Designed By Garret McMillan</tspan></text><rect
     style="fill:black;fill-opacity:1;stroke-width:1.37953;stroke-linecap:round;stroke-linejoin:round;paint-order:markers stroke fill"
     id="rect1161"
     width="80.710808"
     height="19.980526"
     x="971.54565"
     y="1006.4517" /><rect
     style="fill:black;fill-opacity:1;stroke-width:1.37953;stroke-linecap:round;stroke-linejoin:round;paint-order:markers stroke fill"
     id="rect1163"
     width="79.396301"
     height="28.393379"
     x="973.38593"
     y="1021.1743" /><path
     id="path3904-3"
     style="fill:#eaeaea;fill-opacity:1;stroke:none;stroke-width:0.431168;stroke-dasharray:none;stroke-opacity:1;paint-order:markers stroke fill"
     d="m 1042.4953,971.15568 c -0.019,-0.031 -0.1486,0.083 -0.2889,0.2536 -0.1819,0.221 -0.577,0.3714 -1.377,0.5228 -0.6167,0.1168 -1.2423,0.2771 -1.391,0.3566 -0.1486,0.08 -0.7137,0.2387 -1.2543,0.3524 -0.5406,0.1137 -1.1754,0.28 -1.4107,0.3706 -0.2353,0.091 -0.9063,0.2576 -1.4925,0.3707 -0.5862,0.1131 -1.1416,0.2695 -1.2346,0.3467 -0.093,0.077 -0.7136,0.2432 -1.3783,0.3692 -0.6647,0.1261 -1.2725,0.2818 -1.3516,0.3467 -0.079,0.065 -0.6537,0.2239 -1.2768,0.3524 -0.6232,0.1285 -1.256,0.2999 -1.4065,0.3805 -0.1506,0.081 -0.767,0.2412 -1.3699,0.3565 -0.603,0.1154 -1.1672,0.2662 -1.253,0.3355 -0.086,0.069 -0.5432,0.2003 -1.0175,0.2917 -0.4743,0.091 -1.2831,0.292 -1.7969,0.4454 -0.5138,0.1533 -1.3226,0.3806 -1.7969,0.5045 -0.4743,0.1239 -1.4449,0.3816 -2.1563,0.5722 -0.7114,0.1906 -1.713,0.4471 -2.2268,0.5708 -0.5138,0.1237 -1.2579,0.3292 -1.6531,0.4566 -0.3953,0.1274 -1.2041,0.3471 -1.7969,0.4877 -1.4059,0.3333 -2.597,0.6577 -3.6643,0.9963 -0.4743,0.1505 -1.235,0.3382 -1.6898,0.4186 -0.4548,0.08 -0.9582,0.2169 -1.119,0.303 -0.1608,0.086 -0.7786,0.2499 -1.3727,0.3636 -0.5941,0.1136 -1.2074,0.2747 -1.3628,0.358 -0.1556,0.083 -0.8152,0.2726 -1.4657,0.4214 -1.4492,0.3313 -2.6345,0.6494 -3.77002,1.0105 -0.47429,0.1507 -1.28096,0.346 -1.79267,0.4355 -0.51176,0.089 -1.05908,0.2315 -1.21633,0.3157 -0.1572,0.084 -0.77265,0.2699 -1.36849,0.4129 -0.5957,0.143 -1.69846,0.4308 -2.44938,0.6399 -0.75097,0.2089 -1.75244,0.4773 -2.22673,0.5947 -0.47429,0.1173 -1.28312,0.3349 -1.79698,0.4848 -1.0778,0.3145 -2.85219,0.7786 -4.09408,1.0697 -0.4733,0.1109 -1.12035,0.2963 -1.43756,0.4129 -0.31713,0.1166 -0.96461,0.2864 -1.4389,0.3763 -0.47429,0.09 -1.05662,0.248 -1.29381,0.3523 -0.2371,0.1043 -0.8785,0.2653 -1.42622,0.358 -0.54767,0.093 -1.13005,0.2419 -1.29376,0.3312 -0.16376,0.089 -0.78271,0.2768 -1.37556,0.4158 -0.59286,0.1389 -1.78991,0.4521 -2.65941,0.6961 -0.86949,0.2441 -2.09751,0.5622 -2.7299,0.7076 -0.6324,0.1452 -1.34413,0.3372 -1.58127,0.4256 -0.23719,0.088 -0.94887,0.2942 -1.58127,0.4567 -1.12871,0.2899 -2.16447,0.5566 -4.45497,1.1471 -0.63231,0.1631 -1.57062,0.4197 -2.08435,0.5708 -0.51387,0.151 -1.21913,0.3173 -1.56722,0.3692 -0.3934,0.059 -0.7523,0.2253 -0.94991,0.4384 -0.17483,0.1886 -0.39223,0.3425 -0.482,0.3425 -0.0897,0 -0.16346,0.065 -0.16346,0.1437 0,0.079 0.0897,0.1437 0.19873,0.1437 0.2274,0 0.45851,0.534 0.59049,1.3657 0.0505,0.3162 0.21071,0.9618 0.358,1.4361 0.25499,0.8213 0.44453,1.536 0.94279,3.55722 0.12181,0.4941 0.34584,1.3197 0.49753,1.8335 0.15159,0.5138 0.37153,1.3212 0.48765,1.7955 0.33036,1.3495 0.63903,2.5066 0.94146,3.522 0.15297,0.5138 0.34433,1.3055 0.42556,1.7602 0.0813,0.4549 0.21261,0.9486 0.29177,1.0965 0.0792,0.1479 0.27203,0.8108 0.42845,1.4728 0.42531,1.8001 0.72471,2.9673 1.02877,4.0067 0.30536,1.0436 0.56285,2.0113 1.06831,4.0237 0.47377,1.8864 0.77684,3.0375 1.15286,4.383 0.44182,1.5813 0.63089,2.2998 0.87376,3.3063 0.11444,0.4743 0.33274,1.2507 0.48485,1.725 0.15203,0.4743 0.35024,1.281 0.43971,1.7927 0.0894,0.5118 0.23149,1.0591 0.3157,1.2163 0.0841,0.1573 0.26935,0.7728 0.41151,1.3685 0.46609,1.9538 0.72303,2.9385 0.99501,3.8137 0.14733,0.4743 0.34092,1.2823 0.43121,1.794 0.0903,0.5118 0.23292,1.0591 0.31712,1.2163 0.0842,0.1573 0.26854,0.7727 0.40871,1.3685 0.26331,1.1191 0.55931,2.2293 0.95836,3.598 0.12676,0.4348 0.34463,1.2758 0.4848,1.8688 0.37176,1.5719 0.70307,2.8294 1.00208,3.8081 0.14488,0.4742 0.35805,1.283 0.47351,1.7969 0.24474,1.089 0.56298,2.2824 0.96112,3.5938 0.15604,0.5138 0.34752,1.2889 0.42423,1.7237 0.0767,0.4348 0.22968,1.017 0.3411,1.2937 0.19519,0.4847 0.57509,1.9225 1.02601,3.8813 0.11827,0.5138 0.30703,1.1653 0.41853,1.4488 0.11155,0.2834 0.27354,0.9305 0.36081,1.4375 0.0873,0.507 0.24805,1.1482 0.35657,1.4248 0.10853,0.2768 0.33446,1.0532 0.50309,1.7252 0.84901,3.3822 1.23664,4.8638 1.67013,6.3955 0.17894,0.6324 0.39987,1.5214 0.49179,1.9759 l 0.16777,0.8259 h 0.70746 c 0.52517,0 0.70897,-0.053 0.70897,-0.2086 0,-0.2376 -0.0138,-0.2341 3.95171,-1.2304 0.6324,-0.1588 1.25087,-0.345 1.37414,-0.4143 0.12331,-0.069 0.60859,-0.2032 1.07818,-0.296 0.46954,-0.093 1.24228,-0.2918 1.71657,-0.4425 0.47424,-0.1507 1.24927,-0.3683 1.72355,-0.4834 1.43114,-0.3477 2.53773,-0.6454 3.52201,-0.9485 1.14147,-0.3516 2.27183,-0.6481 3.87987,-1.0176 0.67193,-0.1543 1.35364,-0.3475 1.51504,-0.4298 0.1615,-0.082 0.8085,-0.272 1.4375,-0.4214 2.058,-0.4886 2.9997,-0.74 3.8025,-1.0133 0.4348,-0.148 1.1611,-0.334 1.6137,-0.4129 0.4525,-0.079 1.0025,-0.2345 1.2219,-0.3467 0.2193,-0.1123 0.6899,-0.2483 1.0457,-0.3016 0.3557,-0.053 1.0337,-0.2224 1.508,-0.3749 0.9062,-0.2913 2.0105,-0.5932 3.4501,-0.9428 0.4742,-0.1153 1.2507,-0.3331 1.725,-0.4848 0.4743,-0.1518 1.2335,-0.3424 1.6883,-0.4229 0.4548,-0.08 0.9698,-0.2222 1.1445,-0.3157 0.1746,-0.093 0.805,-0.284 1.4008,-0.4241 1.3959,-0.3285 2.5905,-0.6535 3.67,-0.9965 0.4742,-0.1507 1.1213,-0.3159 1.4375,-0.3664 0.3162,-0.05 1.0386,-0.2468 1.6052,-0.4369 0.5667,-0.1902 1.1632,-0.3467 1.3248,-0.3467 0.1616,0 0.6348,-0.1215 1.0528,-0.2706 0.718,-0.2561 1.1842,-0.3848 3.419,-0.9414 0.5139,-0.128 1.355,-0.3602 1.8689,-0.5159 0.5137,-0.1556 1.3225,-0.378 1.7968,-0.4946 0.4743,-0.1167 1.4435,-0.373 2.1549,-0.5694 0.7115,-0.1963 1.682,-0.4594 2.1563,-0.5849 0.4743,-0.1254 1.2508,-0.3488 1.725,-0.4975 0.4743,-0.1487 1.2795,-0.3452 1.7899,-0.4369 0.5104,-0.092 1.0951,-0.2537 1.2994,-0.3594 0.2044,-0.1056 0.7882,-0.2672 1.2967,-0.3593 0.5083,-0.092 1.0546,-0.2396 1.2148,-0.327 0.1601,-0.087 0.777,-0.2729 1.3698,-0.4116 1.4763,-0.345 2.8204,-0.6973 3.5925,-0.9414 0.3557,-0.1124 1.1321,-0.3273 1.725,-0.4778 0.5928,-0.1505 1.6604,-0.4367 2.3719,-0.6355 0.7114,-0.1989 1.7129,-0.4679 2.2268,-0.599 0.5137,-0.1311 1.2255,-0.3325 1.5813,-0.4468 0.3557,-0.1144 1.0498,-0.2909 1.5418,-0.3932 0.4919,-0.1023 1.3795,-0.3406 1.973,-0.5285 l 1.0796,-0.3411 v -0.5764 c 0,-0.4096 -0.076,-0.6246 -0.2678,-0.7441 -0.1822,-0.1138 -0.328,-0.4853 -0.4509,-1.1486 -0.1001,-0.5392 -0.2938,-1.2721 -0.4313,-1.6278 -0.1376,-0.3557 -0.2978,-0.9366 -0.3566,-1.2924 -0.059,-0.3557 -0.22,-0.938 -0.358,-1.2938 -0.1379,-0.3556 -0.298,-0.9665 -0.3551,-1.3571 -0.057,-0.3906 -0.2173,-1.0054 -0.3566,-1.3657 -0.1393,-0.3604 -0.3345,-1.0759 -0.4326,-1.5897 -0.098,-0.5139 -0.2347,-1.0031 -0.3045,-1.088 -0.07,-0.085 -0.2262,-0.6228 -0.3467,-1.1952 -0.1204,-0.5724 -0.2751,-1.1493 -0.3452,-1.2824 -0.07,-0.1332 -0.2316,-0.7458 -0.358,-1.3615 -0.1265,-0.6158 -0.2931,-1.2389 -0.3707,-1.384 -0.078,-0.1451 -0.2697,-0.805 -0.427,-1.4671 -0.1573,-0.6619 -0.4576,-1.8183 -0.6666,-2.5692 -0.2091,-0.751 -0.4758,-1.7539 -0.5934,-2.2282 -0.1175,-0.4743 -0.3351,-1.2169 -0.4834,-1.6517 -0.1482,-0.4348 -0.3095,-1.0495 -0.3593,-1.3657 -0.05,-0.3162 -0.2468,-1.0386 -0.4369,-1.6052 -0.1902,-0.5666 -0.3453,-1.1588 -0.3453,-1.3163 0,-0.1575 -0.1247,-0.6322 -0.2763,-1.0542 -0.2612,-0.7277 -0.4441,-1.3961 -0.9498,-3.4628 -0.121,-0.494 -0.344,-1.286 -0.4947,-1.7603 -0.1508,-0.4743 -0.3497,-1.2507 -0.4426,-1.725 -0.093,-0.4743 -0.2364,-0.9891 -0.3185,-1.1444 -0.082,-0.1551 -0.2629,-0.7698 -0.4031,-1.3656 -0.3157,-1.342 -0.6513,-2.5862 -0.9512,-3.5261 -0.1262,-0.3953 -0.3467,-1.2042 -0.4891,-1.797 -0.1424,-0.5928 -0.4577,-1.7885 -0.7018,-2.658 -0.2442,-0.8695 -0.5359,-1.9695 -0.647,-2.4438 -0.111,-0.4743 -0.2955,-1.089 -0.4101,-1.3656 -0.1145,-0.2767 -0.2525,-0.7929 -0.3072,-1.1486 -0.055,-0.3558 -0.2555,-1.1106 -0.4468,-1.6772 -0.1912,-0.5666 -0.3515,-1.1813 -0.3551,-1.3656 0,-0.18432 -0.1038,-0.59432 -0.2241,-0.91052 -0.1203,-0.3162 -0.3394,-1.0603 -0.4862,-1.6531 -0.3777,-1.5255 -0.6862,-2.6327 -1.0894,-3.9123 -0.1924,-0.6105 -0.3496,-1.2411 -0.3496,-1.4009 0,-0.1598 -0.1369,-0.6859 -0.3044,-1.1698 -0.1674,-0.4837 -0.389,-1.2444 -0.4918,-1.6897 -0.2526,-1.0934 -0.5887,-2.3103 -1.0091,-3.6446 -0.1924,-0.6106 -0.351,-1.2748 -0.351,-1.477 0,-0.2023 -0.1008,-0.6081 -0.2255,-0.902 -0.1246,-0.2939 -0.3477,-1.0518 -0.4946,-1.6842 -0.147,-0.6324 -0.3647,-1.4089 -0.4848,-1.725 -0.1202,-0.3162 -0.2219,-0.7173 -0.2255,-0.8921 0,-0.1749 -0.1311,-0.6602 -0.2833,-1.0782 -0.1522,-0.4179 -0.3519,-1.139 -0.4439,-1.601 -0.092,-0.462 -0.2522,-1.0438 -0.3566,-1.2938 -0.1045,-0.25 -0.2655,-0.865 -0.3566,-1.367 -0.1285,-0.709 -0.6161,-2.0145 -0.9682,-2.5917 z m -31.4649,36.77952 c 0.1723,-0.01 0.3258,0.01 0.4397,0.049 0.2545,0.098 0.437,1.2073 0.31,1.8843 -0.058,0.3094 -0.024,0.6092 0.09,0.792 0.1659,0.2659 0.3294,0.296 1.6941,0.296 0.8308,0 1.5878,0.051 1.6827,0.1114 0.4559,0.2898 0.5034,1.6398 0.065,1.8476 -0.1303,0.062 -0.9486,0.1463 -1.8181,0.1888 l -1.5813,0.078 -0.04,2.6594 c -0.027,1.7856 0.014,2.7602 0.1241,2.9667 0.252,0.4736 0.7935,0.6426 1.9858,0.6187 1.3462,-0.027 1.5464,0.051 1.6348,0.6286 0.098,0.6415 -0.2739,1.219 -0.8978,1.3923 -0.8707,0.242 -2.7243,0.1588 -3.5247,-0.1578 -0.856,-0.3386 -1.5655,-1.0462 -1.8111,-1.8067 -0.1059,-0.3283 -0.2018,-1.6746 -0.2367,-3.3176 -0.067,-3.1764 -0.086,-3.2232 -1.2614,-3.0907 -0.8991,0.1013 -1.3628,-0.2183 -1.3628,-0.9415 0,-0.8971 0.3057,-1.1782 1.2797,-1.1782 1.0669,0 1.3078,-0.2367 1.3078,-1.2811 0,-0.6368 0.063,-0.8169 0.4074,-1.1612 0.3068,-0.3069 0.995,-0.5496 1.5122,-0.5779 z m -36.13273,0.1452 h 1.27549 l 0.42565,0.6905 c 0.23365,0.3798 0.47204,0.8482 0.52986,1.0415 0.0577,0.1932 0.27022,0.7082 0.47213,1.143 0.20196,0.4347 0.55858,1.2099 0.7921,1.7236 0.23348,0.5139 0.50494,1.0962 0.60459,1.2938 0.0996,0.1976 0.26073,0.6028 0.35653,0.9005 0.11172,0.3471 0.32053,0.6181 0.5835,0.754 l 0.41013,0.2115 0.0448,-3.6418 c 0.0345,-2.824 0.0895,-3.6959 0.24236,-3.8799 0.22093,-0.2658 1.51452,-0.3312 1.88709,-0.096 0.31855,0.2012 0.40293,12.2925 0.0888,12.7221 -0.15992,0.2186 -0.43332,0.3003 -1.21344,0.3579 -1.30458,0.097 -1.83747,-0.1102 -2.1295,-0.8286 -0.26029,-0.6402 -0.68918,-1.6163 -1.05705,-2.4043 -0.79727,-1.7084 -1.15131,-2.5083 -1.15562,-2.6129 0,-0.064 -0.19661,-0.503 -0.4313,-0.9753 -0.23464,-0.4723 -0.42556,-0.9421 -0.42556,-1.0429 0,-0.3207 -0.29001,-0.1967 -0.43548,0.186 -0.0771,0.2027 -0.13957,1.856 -0.13957,3.6742 0,1.8813 -0.0606,3.4187 -0.14091,3.5684 -0.28823,0.5385 -1.71376,0.6286 -2.03089,0.1282 -0.18169,-0.2868 -0.16164,-12.2945 0.0207,-12.6361 0.12995,-0.2427 0.31027,-0.2776 1.42484,-0.2776 z m 45.75993,0.032 c 2.2713,-0.037 2.4795,-0.018 3.5417,0.334 0.8654,0.2871 1.2949,0.5309 1.8448,1.0457 1.3402,1.255 1.8389,2.9414 1.6982,5.7445 -0.067,1.3365 -0.1511,1.7822 -0.4721,2.5156 -0.83,1.8964 -2.1709,3.0002 -4.0603,3.3402 -0.6008,0.1081 -1.901,0.2164 -2.8891,0.241 -1.741,0.044 -1.8063,0.034 -2.1197,-0.3016 l -0.3227,-0.3467 v -5.9065 c 0,-4.4712 0.045,-5.9955 0.1833,-6.2674 0.1815,-0.359 0.1823,-0.3591 2.5945,-0.3988 z m 0.9217,2.1126 c -0.473,-0.01 -0.8609,0.091 -0.9654,0.2861 -0.2009,0.3753 -0.2003,7.956 0,8.3517 0.2002,0.3766 1.2476,0.3754 2.2747,0 1.5384,-0.5623 2.0944,-1.7114 2.0886,-4.3182 -0.01,-2.3571 -0.4868,-3.3614 -1.9252,-4.0124 -0.4416,-0.1999 -0.9997,-0.3031 -1.4727,-0.3072 z m -32.83481,0.5947 c 0.19692,0 0.43626,0.01 0.74834,0.021 1.10849,0.047 1.39302,0.1145 1.99282,0.4679 0.92637,0.5457 1.30661,0.943 1.81945,1.904 0.37481,0.7022 0.42703,0.945 0.42703,1.9928 0,1.6819 0.087,1.6418 -3.47117,1.6418 -2.7459,0 -2.8364,0.01 -2.92859,0.2988 -0.19002,0.5987 0.0577,1.2186 0.6891,1.7265 0.57768,0.4646 0.67568,0.4915 1.92943,0.5384 0.72622,0.028 1.6309,-0.016 2.0111,-0.097 0.86678,-0.1849 1.19512,0.046 1.19512,0.8386 0,0.6799 -0.28462,0.934 -1.3628,1.2148 -1.29631,0.3377 -3.25295,0.2794 -4.31406,-0.1297 -1.31213,-0.5059 -2.22789,-1.4746 -2.66781,-2.8214 -0.93805,-2.8718 0.0948,-5.8773 2.45223,-7.1327 0.6762,-0.3601 0.88907,-0.4592 1.47981,-0.4637 z m 44.94251,0.065 c 2.0747,0 2.0877,0 2.8032,0.4396 0.866,0.5312 1.2916,1.1234 1.498,2.0859 0.085,0.3962 0.1551,2.2072 0.1551,4.025 v 3.3063 l -0.3538,0.3524 c -0.4502,0.4495 -0.948,0.4475 -1.4883,-0.01 -0.5491,-0.4618 -0.8122,-0.4524 -1.9448,0.072 -0.7369,0.3411 -1.1214,0.4314 -1.842,0.4241 -1.6991,-0.015 -2.8873,-1.0594 -3.226,-2.8341 -0.1101,-0.5771 0.4003,-2.0341 0.8541,-2.4382 0.9142,-0.8142 1.6965,-1.0971 3.4698,-1.2529 1.6759,-0.1472 1.7255,-0.1614 1.856,-0.5327 0.1923,-0.5468 -0.1167,-1.2 -0.6793,-1.4375 -0.5411,-0.2287 -2.7468,-0.217 -3.4599,0.018 -0.7497,0.2474 -1.2346,-0.033 -1.2346,-0.7145 0,-0.5734 0.1862,-0.8017 1.0063,-1.2375 0.4233,-0.2247 0.8327,-0.2691 2.5862,-0.2691 z m 14.3851,0.071 h 0.9105 c 1.0694,0 1.3099,0.1851 1.1908,0.9189 -0.043,0.2675 -0.2456,0.8386 -0.4496,1.2698 -0.204,0.4312 -0.3707,0.8758 -0.3707,0.9879 0,0.1121 -0.1237,0.4356 -0.2748,0.7174 -0.1509,0.2818 -0.3709,0.8369 -0.489,1.2346 -0.1181,0.3977 -0.2842,0.8457 -0.3692,0.995 -0.085,0.1493 -0.3832,0.8852 -0.6624,1.6362 -1.6028,4.3103 -3.0621,6.2516 -4.9736,6.614 -2.0008,0.3794 -2.8303,0.051 -2.6538,-1.0527 0.1284,-0.8026 0.2992,-0.9612 1.0373,-0.9612 0.8496,0 1.4679,-0.2809 2.028,-0.9189 0.5979,-0.6809 0.633,-1.5095 0.1058,-2.5001 -0.1977,-0.3712 -0.3615,-0.773 -0.3636,-0.8922 0,-0.1192 -0.1636,-0.5406 -0.358,-0.9357 -0.1945,-0.3953 -0.3545,-0.7969 -0.3552,-0.8936 0,-0.097 -0.1293,-0.4526 -0.2861,-0.7906 -0.1567,-0.3381 -0.5145,-1.2292 -0.7949,-1.9802 -0.2804,-0.7509 -0.6345,-1.6264 -0.7878,-1.9462 -0.2015,-0.4205 -0.248,-0.6993 -0.1663,-1.0064 0.1082,-0.4064 0.1516,-0.4267 1.0162,-0.4678 1.0588,-0.051 1.4621,0.15 1.7265,0.8582 0.098,0.263 0.3008,0.769 0.4495,1.1247 0.1486,0.3556 0.3419,0.9325 0.4298,1.2811 0.088,0.3485 0.2431,0.7692 0.3453,0.9344 0.1022,0.1652 0.2645,0.6237 0.3594,1.019 0.1648,0.6867 0.7513,1.6531 1.0034,1.6531 0.066,0 0.195,-0.3018 0.2875,-0.6695 0.093,-0.3676 0.2665,-0.8595 0.3876,-1.0936 0.1211,-0.2341 0.3149,-0.7865 0.4299,-1.2276 0.1148,-0.441 0.2646,-0.8704 0.3326,-0.9541 0.068,-0.084 0.2266,-0.5011 0.3524,-0.9273 0.1256,-0.4263 0.3928,-1.0565 0.5947,-1.4009 z m -51.00691,0 c 0.98225,0 1.24099,0.186 2.23807,1.6348 0.37473,0.5446 0.82024,1.0813 0.99074,1.1937 0.291,0.1917 0.34,0.1655 0.7907,-0.444 0.2641,-0.3573 0.6423,-0.8868 0.8399,-1.1767 0.7951,-1.1667 0.8985,-1.2259 2.0478,-1.1797 1.0283,0.042 1.0423,0.047 1.0176,0.4228 -0.014,0.2095 -0.1918,0.6301 -0.3947,0.9344 -0.2028,0.3043 -0.6232,0.9407 -0.9344,1.415 -0.3112,0.4743 -0.7015,1.0367 -0.8682,1.2501 -0.7348,0.9416 -0.694,1.3149 0.2918,2.6312 0.4296,0.5736 0.9186,1.259 1.3812,1.9392 0.1343,0.1977 0.3644,0.4964 0.5116,0.6639 0.1882,0.2143 0.24,0.4176 0.1733,0.6835 -0.093,0.3702 -0.1201,0.3777 -1.2839,0.3777 h -1.1895 l -0.4904,-0.6102 c -0.27,-0.336 -0.7332,-0.983 -1.0303,-1.4375 -0.6844,-1.0472 -1.16298,-1.0866 -1.66723,-0.1381 -0.42509,0.7995 -0.9954,1.5754 -1.38255,1.8799 -0.3141,0.247 -0.58626,0.3059 -1.42346,0.3059 -0.56897,0 -1.07762,-0.043 -1.13026,-0.096 -0.21641,-0.2165 -0.0664,-0.6703 0.4425,-1.3361 0.88562,-1.1582 2.28507,-3.0744 2.4847,-3.4021 0.16225,-0.2663 0.13612,-0.3909 -0.19734,-0.9598 -0.21067,-0.3596 -0.47097,-0.7415 -0.57919,-0.8499 -0.10827,-0.1082 -0.3051,-0.3882 -0.43695,-0.6214 -0.13181,-0.2334 -0.43285,-0.6832 -0.66939,-0.9993 -0.69453,-0.9284 -0.81379,-1.128 -0.90623,-1.5277 -0.10516,-0.4548 0.13168,-0.5538 1.37409,-0.5538 z m -7.98387,1.9787 c -0.60859,-0.01 -0.86281,0.1093 -1.19373,0.4594 -0.38525,0.4076 -0.68147,1.227 -0.53129,1.4699 0.0808,0.1312 3.08454,0.1518 3.41762,0.024 0.28729,-0.1102 0.29298,-0.6644 0.0116,-1.2092 -0.26021,-0.5032 -0.54948,-0.6739 -1.22047,-0.7215 -0.1835,-0.013 -0.34299,-0.021 -0.48338,-0.022 z m 45.10308,3.9376 c -1.0827,0.012 -1.9655,0.4548 -2.0858,1.0697 -0.1095,0.56 0.124,1.1982 0.4933,1.3473 0.6393,0.2582 1.2892,0.1522 1.9871,-0.3241 0.7887,-0.5381 1.0885,-1.1003 0.8893,-1.6686 -0.1239,-0.3536 -0.2025,-0.3846 -1.0654,-0.4214 -0.074,0 -0.1463,-0.01 -0.2185,0 z m -52.64866,6.6338 c 1.22792,-0.067 2.59201,0.034 4.07579,0.3031 1.54467,0.2801 1.65315,0.421 1.65315,2.1591 0,0.8964 -0.0585,1.3814 -0.1804,1.4826 -0.20472,0.1698 -1.53302,-0.087 -2.12808,-0.4116 -0.21377,-0.1166 -1.02894,-0.2147 -2.09716,-0.2523 -1.70661,-0.059 -1.76836,-0.05 -2.65937,0.375 -1.86157,0.888 -2.88534,2.5847 -3.05405,5.0595 -0.12823,1.8801 0.0888,3.7446 0.56233,4.8157 0.46406,1.0496 0.90575,1.5322 1.93927,2.1239 0.73441,0.4205 0.88799,0.4508 2.18589,0.458 1.93742,0.01 1.91103,0.041 1.91103,-2.4946 0,-1.4711 -0.0512,-2.045 -0.1973,-2.221 -0.15406,-0.1857 -0.4551,-0.2383 -1.37272,-0.2383 -0.72246,0 -1.24271,-0.066 -1.34869,-0.1719 -0.10409,-0.104 -0.172,-0.6082 -0.172,-1.2712 0,-1.6192 -0.096,-1.5757 3.40783,-1.5757 2.26312,0 2.91591,0.043 3.04414,0.1973 0.11646,0.1404 0.15242,1.5913 0.12543,5.0638 l -0.0384,4.8679 -0.71876,0.3439 c -0.39689,0.1898 -1.29679,0.4263 -2.01115,0.5285 -2.28993,0.3272 -2.82139,0.3332 -4.87772,0.053 -2.12148,-0.2886 -4.16837,-1.7519 -5.08487,-3.6361 -0.78679,-1.6174 -0.89217,-1.9291 -1.05425,-3.1316 -0.20911,-1.5513 -0.078,-5.2793 0.21563,-6.1546 0.6997,-2.0858 1.03511,-2.6626 2.24932,-3.8602 1.25975,-1.2424 1.22763,-1.2189 2.37053,-1.7095 0.93447,-0.401 2.02627,-0.6362 3.2542,-0.7032 z m 14.96432,4.0462 c 0.83453,-0.01 1.5579,0.1221 2.60874,0.3834 2.0456,0.5085 3.1586,1.6644 3.3993,3.5318 0.2012,1.5606 0.1693,10.725 -0.038,10.9323 -0.1074,0.1075 -0.6383,0.1733 -1.4079,0.1733 -1.34537,0 -1.58131,-0.109 -1.58131,-0.7301 0,-0.572 -0.32277,-0.7785 -0.65111,-0.4157 -0.45596,0.5038 -1.68552,1.1147 -2.57209,1.2768 -2.6977,0.4933 -4.58897,-0.166 -5.62184,-1.9589 -0.33204,-0.5764 -0.40784,-0.9021 -0.46368,-2.0055 -0.062,-1.2328 -0.0397,-1.3718 0.34528,-2.138 0.49119,-0.9769 1.24647,-1.666 2.4424,-2.2282 0.97565,-0.4586 1.98747,-0.6511 4.18152,-0.7977 1.86895,-0.1249 2.03801,-0.2598 1.77862,-1.4192 -0.14561,-0.6504 -0.27746,-0.8662 -0.77093,-1.2571 -0.592,-0.4718 -0.60644,-0.4721 -2.1831,-0.4721 -1.34934,0 -1.77387,0.061 -2.83558,0.4059 -1.67565,0.5437 -1.84062,0.4626 -1.84062,-0.9049 0,-1.3864 0.23162,-1.6198 1.93927,-1.9434 1.49111,-0.2824 2.43662,-0.4257 3.27106,-0.4327 z m 48.97324,0.035 c 1.4777,0.019 3.3403,0.3403 3.6994,0.6385 0.117,0.097 0.1804,0.5451 0.1804,1.2656 0,1.4162 -0.1381,1.5685 -1.1105,1.2233 -0.7207,-0.256 -3.7498,-0.4712 -4.3859,-0.3114 -0.5629,0.1412 -1.1148,0.7876 -1.1148,1.3063 0,0.7361 0.6908,1.2625 2.3719,1.8068 0.7905,0.256 1.8006,0.6196 2.2452,0.8076 0.4446,0.1879 0.8565,0.3411 0.9146,0.3411 0.059,0 0.4316,0.2723 0.8301,0.6059 0.9137,0.7651 1.3995,1.7886 1.3995,2.9498 0,2.3332 -1.7563,4.1261 -4.3845,4.4761 -1.9773,0.2633 -3.0354,0.2543 -5.9135,-0.052 -1.2389,-0.132 -1.3874,-0.2764 -1.4601,-1.4192 -0.076,-1.1874 0.03,-1.6173 0.4199,-1.7194 0.1689,-0.044 1.0261,0.08 1.9055,0.2762 3.0543,0.6815 5.1379,0.3767 5.3555,-0.7835 0.214,-1.141 -0.3048,-1.5614 -2.9653,-2.4058 -2.9439,-0.9343 -4.0036,-1.7034 -4.4592,-3.233 -0.3553,-1.1932 -0.3544,-1.4519 0.01,-2.5115 0.7318,-2.1362 3.0493,-3.3052 6.4633,-3.2612 z m -16.7979,0.03 c 0.7552,-0.025 1.5124,0.07 2.2267,0.2904 1.6976,0.5243 2.6668,1.2921 3.4698,2.7496 0.5347,0.9705 0.7526,2.059 0.7526,3.7503 0,1.9637 0.3271,1.8419 -4.9468,1.8419 h -4.3718 l -0.089,0.4018 c -0.1163,0.5296 0.5249,1.941 1.1275,2.4818 0.5536,0.4969 1.9138,0.9011 2.9567,0.878 0.4318,-0.01 1.5227,-0.1191 2.4241,-0.2438 1.5314,-0.2115 1.6565,-0.2107 1.9096,0.018 0.3339,0.3021 0.3684,1.4135 0.067,2.1365 -0.2281,0.5459 -0.2587,0.5559 -2.4537,0.7949 -2.2652,0.2466 -4.9128,0.1166 -5.8375,-0.2861 -1.7314,-0.7541 -2.9241,-2.115 -3.529,-4.0265 -1.1494,-3.6321 0.072,-7.9487 2.7426,-9.692 1.0392,-0.6784 2.2926,-1.0531 3.5515,-1.0951 z m -17.5901,0.013 c 0.793,0.01 1.7785,0.5584 2.1211,1.1895 0.1581,0.2913 0.3298,0.5312 0.3805,0.5314 0.05,2e-4 0.4066,-0.2759 0.7906,-0.6131 1.3607,-1.1945 2.4504,-1.4038 3.7165,-0.7131 0.5555,0.3031 0.8153,0.5715 1.1486,1.1824 l 0.4313,0.7907 v 6.2518 6.2518 l -1.2712,0.043 c -0.8142,0.027 -1.3439,-0.019 -1.4728,-0.1254 -0.1662,-0.138 -0.2016,-1.1208 -0.2016,-5.6232 v -5.4542 l -0.4397,-0.4398 -0.4397,-0.4397 -0.4326,0.4144 c -0.2381,0.2279 -0.6223,0.8124 -0.8541,1.298 l -0.4214,0.8822 v 4.5973 c 0,3.7666 -0.037,4.628 -0.2015,4.765 -0.1288,0.1066 -0.6577,0.1521 -1.4671,0.1254 -1.2122,-0.04 -1.2689,-0.058 -1.3643,-0.4016 -0.055,-0.1977 -0.1063,-2.7399 -0.1141,-5.65 -0.01,-3.3446 -0.069,-5.3941 -0.1635,-5.5698 -0.2465,-0.4607 -0.8669,-0.3555 -1.3304,0.2255 -0.8398,1.0524 -0.8776,1.3064 -0.9598,6.4364 -0.064,3.9755 -0.1099,4.7334 -0.2918,4.8482 -0.3184,0.2012 -2.4944,0.1749 -2.7017,-0.032 -0.1294,-0.1294 -0.1733,-1.9022 -0.1733,-7.096 0,-7.9486 -0.1198,-7.3187 1.4009,-7.3187 0.9597,0 1.0787,0.067 1.5615,0.8808 0.1487,0.2507 0.1841,0.2392 0.5384,-0.1819 0.4781,-0.5681 1.5079,-1.0613 2.2112,-1.0541 z m 17.6803,2.744 c -0.1187,0 -0.2344,0 -0.3411,0.012 -1.0156,0.084 -1.7093,0.624 -2.2648,1.763 l -0.4144,0.847 0.3862,0.3327 c 0.3667,0.3158 0.4939,0.3312 2.6016,0.3312 2.1977,0 2.219,0 2.4495,-0.3538 0.5318,-0.8116 -0.3169,-2.4343 -1.4728,-2.8159 -0.2103,-0.069 -0.5885,-0.1129 -0.9442,-0.1156 z m -30.68,5.7459 c -0.22421,0 -0.54285,0.019 -1.02739,0.055 -1.58326,0.1183 -2.22406,0.3765 -2.79894,1.1303 -0.69405,0.9099 -0.41306,1.9904 0.65249,2.51 1.00786,0.4914 2.43636,0.016 3.49514,-1.1613 0.55492,-0.6171 0.64266,-0.7994 0.64266,-1.3444 0,-0.4507 -0.0865,-0.7193 -0.30298,-0.9359 -0.17683,-0.1769 -0.28738,-0.2484 -0.66098,-0.2537 z" /></svg>
