<?xml version="1.0" encoding="UTF-8" standalone="no"?>
<!-- Generator: Adobe Illustrator 16.0.0, SVG Export Plug-In . SVG Version: 6.00 Build 0)  -->

<svg
     version="1.1"
     id="Layer_1"
     x="0px"
     y="0px"
     width="180"
     height="180"
     viewBox="0 0 180 180"
     enable-background="new 0 0 43.2 43.2"
     xml:space="preserve"
     sodipodi:docname="blankD6.svg"
     inkscape:version="1.2.2 (732a01da63, 2022-12-09)"
     xmlns:inkscape="http://www.inkscape.org/namespaces/inkscape"
     xmlns:sodipodi="http://sodipodi.sourceforge.net/DTD/sodipodi-0.dtd"
     xmlns="http://www.w3.org/2000/svg"
     xmlns:svg="http://www.w3.org/2000/svg"><defs
     id="defs1293" /><sodipodi:namedview
     id="namedview1291"
     pagecolor="#ffffff"
     bordercolor="#999999"
     borderopacity="1"
     inkscape:showpageshadow="0"
     inkscape:pageopacity="0"
     inkscape:pagecheckerboard="0"
     inkscape:deskcolor="#d1d1d1"
     showgrid="false"
     inkscape:zoom="2.8284271"
     inkscape:cx="72.831999"
     inkscape:cy="31.643029"
     inkscape:window-width="2560"
     inkscape:window-height="1351"
     inkscape:window-x="1491"
     inkscape:window-y="585"
     inkscape:window-maximized="1"
     inkscape:current-layer="Layer_1" />

<rect
     style="fill:none;fill-opacity:1;stroke-width:30.5721;paint-order:markers fill stroke"
     id="rect1466"
     width="180"
     height="180"
     x="0"
     y="0" /><rect
     style="fill:none;stroke-width:25.117;paint-order:markers fill stroke"
     id="rect1464"
     width="147.875"
     height="147.89062"
     x="16.0625"
     y="16.054688" />





















































































































































<path
     style="fill:none;stroke-width:1.87383;stroke-linecap:round;stroke-linejoin:round;paint-order:markers stroke fill"
     d="m 48.967145,-95.317938 c -15.804579,-2.25466 -30.349528,-9.993482 -40.3188595,-21.452152 -10.4981935,-12.06655 -16.0729068,-26.88946 -16.0729068,-42.73714 0,-11.0172 2.0617196,-19.80686 6.92428279,-29.52007 17.28905051,-34.5357 61.71496551,-46.17389 93.83843451,-24.58272 2.808352,1.88758 7.516184,5.57014 7.342704,5.74361 -0.0567,0.0567 -1.541483,-0.27056 -3.299584,-0.7272 -11.754671,-3.05307 -24.450766,-1.58321 -35.529472,4.11333 -22.037329,11.33134 -32.585959,37.05488 -24.844112,60.58405 4.126325,12.5408 13.233695,23.1567 25.009667,29.1522 10.780833,5.48886 23.059778,6.92131 34.852456,4.06587 1.971449,-0.47737 3.666865,-0.86794 3.767575,-0.86794 0.47934,0 -3.979672,3.50449 -7.265459,5.71017 -8.223122,5.52001 -17.244182,8.993349 -26.935087,10.370705 -3.995907,0.567934 -13.933706,0.651719 -17.469639,0.147287 z"
     id="path1654" /><g
     id="g2034"
     style="fill:none;fill-opacity:1"
     transform="matrix(0.84571245,0,0,0.84571245,206.91076,26.013039)"><path
         style="fill:none;fill-opacity:1;stroke-width:1.87383;stroke-linecap:round;stroke-linejoin:round;paint-order:markers stroke fill"
         d="m -90.60004,109.34945 c -0.0123,-0.29383 -3.13839,-20.83428 -3.37461,-22.17342 -0.19769,-1.12069 -0.52887,-1.3191 -10.66562,-6.38972 l -10.46159,-5.23313 2.61247,-1.2539 c 1.43685,-0.68965 6.19219,-2.96403 10.56742,-5.05418 4.37522,-2.09015 8.06622,-3.90078 8.20221,-4.02363 0.21569,-0.19483 3.1115,-21.60883 3.1115,-23.00894 0,-0.29129 3.7786,3.3305 8.39689,8.04842 l 8.39689,8.57804 11.21628,-2.02654 c 6.16895,-1.1146 11.30484,-1.93798 11.41308,-1.82974 0.10824,0.10824 -2.19463,4.75958 -5.11748,10.33632 -2.92286,5.57673 -5.31186,10.3315 -5.30889,10.56615 0.003,0.23465 2.4486,4.96097 5.43473,10.50291 2.98613,5.54195 5.3996,10.11316 5.36327,10.15823 -0.0363,0.0451 -5.24301,-0.7989 -11.57037,-1.8755 l -11.5043,-1.95745 -8.35183,8.41624 c -4.5935,4.62893 -8.35553,8.32785 -8.36005,8.21984 z"
         id="path1656" /><path
         style="fill:none;fill-opacity:1;stroke-width:1.87383;stroke-linecap:round;stroke-linejoin:round;paint-order:markers stroke fill"
         d="m -169.27389,140.09291 c -15.80458,-2.25466 -30.34953,-9.99348 -40.31886,-21.45215 -10.4982,-12.06655 -16.07291,-26.88946 -16.07291,-42.73714 0,-11.0172 2.06172,-19.80686 6.92428,-29.52007 17.28905,-34.5357 61.71497,-46.17389 93.83844,-24.58272 2.80835,1.88758 7.51618,5.57014 7.3427,5.74361 -0.0567,0.0567 -1.54148,-0.27056 -3.29958,-0.7272 -11.75467,-3.05307 -24.45077,-1.58321 -35.52948,4.11333 -22.03732,11.33134 -32.58595,37.05488 -24.84411,60.58405 4.12633,12.5408 13.2337,23.1567 25.00967,29.1522 10.78083,5.48886 23.05978,6.92131 34.85246,4.06587 1.97144,-0.47737 3.66686,-0.86794 3.76757,-0.86794 0.47934,0 -3.97967,3.50449 -7.26546,5.71017 -8.22312,5.52001 -17.24418,8.99335 -26.93509,10.3707 -3.9959,0.56794 -13.9337,0.65172 -17.46963,0.14729 z"
         id="path1727" /></g></svg>
