<?xml version="1.0" encoding="UTF-8" standalone="no"?>
<!-- Generator: Adobe Illustrator 15.0.0, SVG Export Plug-In . SVG Version: 6.00 Build 0)  -->

<svg
     version="1.1"
     x="0px"
     y="0px"
     width="825"
     height="750"
     viewBox="0 0 825 750"
     enable-background="new 0 0 198 180"
     xml:space="preserve"
     id="svg2576"
     sodipodi:docname="chitHexMediumBoundaries.svg"
     inkscape:version="1.2.2 (732a01da63, 2022-12-09)"
     xmlns:inkscape="http://www.inkscape.org/namespaces/inkscape"
     xmlns:sodipodi="http://sodipodi.sourceforge.net/DTD/sodipodi-0.dtd"
     xmlns="http://www.w3.org/2000/svg"
     xmlns:svg="http://www.w3.org/2000/svg"><defs
     id="defs2580">
	
	
	

	
	
	
</defs><sodipodi:namedview
     id="namedview2578"
     pagecolor="#ffffff"
     bordercolor="#999999"
     borderopacity="1"
     inkscape:showpageshadow="0"
     inkscape:pageopacity="0"
     inkscape:pagecheckerboard="0"
     inkscape:deskcolor="#d1d1d1"
     showgrid="false"
     inkscape:zoom="0.71319446"
     inkscape:cx="170.36027"
     inkscape:cy="240.46738"
     inkscape:window-width="1500"
     inkscape:window-height="2311"
     inkscape:window-x="-9"
     inkscape:window-y="-9"
     inkscape:window-maximized="1"
     inkscape:current-layer="svg2576" />



<path
     fill="white"
     stroke="#eb242b"
     d="M 212.7,688.10834 41.4375,391.47917 c -5.254166,-9.10417 -5.254166,-23.85833 0,-32.95833 L 212.7,61.895834 c 5.25417,-9.104167 18.03334,-16.479167 28.54167,-16.479167 H 583.7625 c 10.50417,0 23.2875,7.379167 28.54167,16.479167 l 171.2625,296.625006 c 5.25417,9.10416 5.25417,23.85833 0,32.95833 l -171.2625,296.625 c -5.25417,9.10834 -18.03333,16.47917 -28.54167,16.47917 h -342.525 c -10.50416,0.004 -23.28333,-7.37083 -28.5375,-16.475 z"
     id="path2093"
     style="fill:none;fill-opacity:1;stroke:none;stroke-width:4.16667" /><polygon
     fill="none"
     stroke="#2da6de"
     stroke-dasharray="1.3324"
     points="18.054,90 58.527,19.899 139.473,19.899 179.946,90 139.473,160.101 58.527,160.101 "
     id="polygon2095"
     style="fill:none;fill-opacity:1;stroke:none"
     transform="scale(4.1666667)" /><g
     id="Your_Artwork_Here"
     transform="scale(4.1666667)"
     style="fill:#4b4b4b;fill-opacity:1">
</g><polygon
     fill="#929497"
     points="0,0 0,180 198,180 198,0 "
     id="polygon2682"
     transform="matrix(4.1666667,0,0,4.1666667,1.0529601e-5,-4.4180461e-5)"
     style="fill:none" /><path
     fill="white"
     stroke="#eb242b"
     d="M 212.70001,688.10829 41.437511,391.47913 c -5.254167,-9.10417 -5.254167,-23.85834 0,-32.95834 L 212.70001,61.89579 c 5.25417,-9.104167 18.03334,-16.479167 28.54167,-16.479167 h 342.52084 c 10.50416,0 23.2875,7.379167 28.54166,16.479167 l 171.2625,296.625 c 5.25417,9.10417 5.25417,23.85834 0,32.95834 l -171.2625,296.625 c -5.25416,9.10833 -18.03333,16.47916 -28.54166,16.47916 H 241.23751 c -10.50416,0.004 -23.28333,-7.37083 -28.5375,-16.475 z"
     id="path2684"
     style="fill:none;stroke-width:4.16667;stroke:black;stroke-opacity:1" /><g
     id="Your_Artwork_Here-5"
     transform="translate(-560.30476,519.93183)">
</g></svg>
