<?xml version="1.0" encoding="UTF-8" standalone="no"?>
<!-- Generator: Adobe Illustrator 15.0.0, SVG Export Plug-In . SVG Version: 6.00 Build 0)  -->

<svg
   version="1.1"
   x="0px"
   y="0px"
   width="825"
   height="750"
   viewBox="0 0 825 750"
   enable-background="new 0 0 198 180"
   xml:space="preserve"
   id="svg2576"
   sodipodi:docname="overlayReligionMediumHex.svg"
   inkscape:version="1.3.2 (091e20e, 2023-11-25, custom)"
   inkscape:export-filename="..\..\..\..\..\..\Videos\gonextgames\structure\overlayReligionMediumHex.png"
   inkscape:export-xdpi="96"
   inkscape:export-ydpi="96"
   xmlns:inkscape="http://www.inkscape.org/namespaces/inkscape"
   xmlns:sodipodi="http://sodipodi.sourceforge.net/DTD/sodipodi-0.dtd"
   xmlns="http://www.w3.org/2000/svg"
   xmlns:svg="http://www.w3.org/2000/svg"><defs
   id="defs2580">
	
	
	
</defs><sodipodi:namedview
   id="namedview2578"
   pagecolor="#ffffff"
   bordercolor="#999999"
   borderopacity="1"
   inkscape:showpageshadow="0"
   inkscape:pageopacity="0"
   inkscape:pagecheckerboard="0"
   inkscape:deskcolor="#d1d1d1"
   showgrid="false"
   inkscape:zoom="0.71319448"
   inkscape:cx="509.67865"
   inkscape:cy="569.97076"
   inkscape:window-width="2560"
   inkscape:window-height="1351"
   inkscape:window-x="-9"
   inkscape:window-y="-9"
   inkscape:window-maximized="1"
   inkscape:current-layer="svg2576" />



<path
   id="religionColor"
   style="fill:#eb7feb;fill-opacity:1;stroke-width:5;stroke-linecap:round;stroke-linejoin:round;paint-order:markers stroke fill"
   d="M 0 0 L 0 750 L 825 750 L 825 0 L 0 0 z M 278.91211 150.0293 L 546.08789 150.0293 L 684.88672 390.43555 L 686.2793 389.63086 L 553.61328 619.41406 L 271.38672 619.41406 L 138.7207 389.63086 L 140.11328 390.43555 L 278.91211 150.0293 z " /><path
   fill="white"
   stroke="#eb242b"
   d="M 212.7,688.10834 41.4375,391.47917 c -5.254166,-9.10417 -5.254166,-23.85833 0,-32.95833 L 212.7,61.895834 c 5.25417,-9.104167 18.03334,-16.479167 28.54167,-16.479167 H 583.7625 c 10.50417,0 23.2875,7.379167 28.54167,16.479167 l 171.2625,296.625006 c 5.25417,9.10416 5.25417,23.85833 0,32.95833 l -171.2625,296.625 c -5.25417,9.10834 -18.03333,16.47917 -28.54167,16.47917 h -342.525 c -10.50416,0.004 -23.28333,-7.37083 -28.5375,-16.475 z"
   id="path2093"
   style="fill:none;fill-opacity:1;stroke:none;stroke-width:4.16667" /><polygon
   fill="none"
   stroke="#2da6de"
   stroke-dasharray="1.3324"
   points="18.054,90 58.527,19.899 139.473,19.899 179.946,90 139.473,160.101 58.527,160.101 "
   id="polygon2095"
   style="fill:none;fill-opacity:1;stroke:none"
   transform="scale(4.1666667)" /><g
   id="Your_Artwork_Here"
   transform="scale(4.1666667)"
   style="fill:#4b4b4b;fill-opacity:1">
</g><path
   id="path2"
   style="fill:#0b0b0b;fill-opacity:0.660156;stroke-width:5;stroke-linecap:round;stroke-linejoin:round;paint-order:markers stroke fill"
   d="M 271.38672 130.58594 L 130.27344 375 L 138.7207 389.63086 L 140.11328 390.43555 L 278.91211 150.0293 L 546.08789 150.0293 L 684.88672 390.43555 L 686.2793 389.63086 L 694.72656 375 L 553.61328 130.58594 L 271.38672 130.58594 z " /></svg>
