<?xml version="1.0" encoding="UTF-8" standalone="no"?>
<!-- Generator: Adobe Illustrator 15.0.0, SVG Export Plug-In . SVG Version: 6.00 Build 0)  -->

<svg
     version="1.1"
     x="0px"
     y="0px"
     width="825"
     height="750"
     viewBox="0 0 825 750"
     enable-background="new 0 0 198 180"
     xml:space="preserve"
     id="svg2576"
     sodipodi:docname="mediumHexTileBoundaries.svg"
     inkscape:version="1.2.2 (732a01da63, 2022-12-09)"
     xmlns:inkscape="http://www.inkscape.org/namespaces/inkscape"
     xmlns:sodipodi="http://sodipodi.sourceforge.net/DTD/sodipodi-0.dtd"
     xmlns="http://www.w3.org/2000/svg"
     xmlns:svg="http://www.w3.org/2000/svg"><defs
     id="defs2580">
	
	
	

	
	
	
</defs><sodipodi:namedview
     id="namedview2578"
     pagecolor="#ffffff"
     bordercolor="#999999"
     borderopacity="1"
     inkscape:showpageshadow="0"
     inkscape:pageopacity="0"
     inkscape:pagecheckerboard="0"
     inkscape:deskcolor="#d1d1d1"
     showgrid="false"
     inkscape:zoom="0.71319446"
     inkscape:cx="354.04089"
     inkscape:cy="239.06523"
     inkscape:window-width="2560"
     inkscape:window-height="1351"
     inkscape:window-x="1491"
     inkscape:window-y="585"
     inkscape:window-maximized="1"
     inkscape:current-layer="svg2576" />



<path
     fill="white"
     stroke="#eb242b"
     d="M 212.7,688.10834 41.4375,391.47917 c -5.254166,-9.10417 -5.254166,-23.85833 0,-32.95833 L 212.7,61.895834 c 5.25417,-9.104167 18.03334,-16.479167 28.54167,-16.479167 H 583.7625 c 10.50417,0 23.2875,7.379167 28.54167,16.479167 l 171.2625,296.625006 c 5.25417,9.10416 5.25417,23.85833 0,32.95833 l -171.2625,296.625 c -5.25417,9.10834 -18.03333,16.47917 -28.54167,16.47917 h -342.525 c -10.50416,0.004 -23.28333,-7.37083 -28.5375,-16.475 z"
     id="path2093"
     style="fill:none;fill-opacity:1;stroke:none;stroke-width:4.16667" /><polygon
     fill="none"
     stroke="#2da6de"
     stroke-dasharray="1.3324"
     points="18.054,90 58.527,19.899 139.473,19.899 179.946,90 139.473,160.101 58.527,160.101 "
     id="polygon2095"
     style="fill:none;fill-opacity:1;stroke:none"
     transform="scale(4.1666667)" /><g
     id="Your_Artwork_Here"
     transform="scale(4.1666667)"
     style="fill:#4b4b4b;fill-opacity:1">
</g><g
     id="g4032"
     transform="matrix(4.1666667,0,0,4.1666667,1808.7999,-1769.1091)"><polygon
         fill="#929497"
         points="198,180 198,0 0,0 0,180 "
         id="polygon2682"
         transform="translate(-434.11197,424.58617)"
         style="fill:none" /><path
         fill="white"
         stroke="#eb242b"
         d="m -383.06397,589.73217 -41.103,-71.191 c -1.261,-2.185 -1.261,-5.726 0,-7.91 l 41.103,-71.19 c 1.261,-2.185 4.328,-3.955 6.85,-3.955 h 82.205 c 2.521,0 5.589,1.771 6.85,3.955 l 41.103,71.19 c 1.261,2.185 1.261,5.726 0,7.91 l -41.103,71.19 c -1.261,2.186 -4.328,3.955 -6.85,3.955 h -82.206 c -2.521,0.001 -5.588,-1.769 -6.849,-3.954 z"
         id="path2684"
         style="fill:none" /><polygon
         fill="none"
         stroke="#2da6de"
         stroke-dasharray="1.3324"
         points="179.946,90 139.473,160.101 58.527,160.101 18.054,90 58.527,19.899 139.473,19.899 "
         id="polygon2686"
         transform="translate(-434.11197,424.58617)"
         style="fill:none" /></g><g
     id="Your_Artwork_Here-5"
     transform="translate(-560.30476,519.93183)">
</g></svg>
