<?xml version="1.0" encoding="UTF-8" standalone="no"?>
<!-- Generator: Adobe Illustrator 16.0.0, SVG Export Plug-In . SVG Version: 6.00 Build 0)  -->

<svg
     version="1.1"
     id="Layer_1"
     x="0px"
     y="0px"
     width="180"
     height="180"
     viewBox="0 0 180 180"
     enable-background="new 0 0 43.2 43.2"
     xml:space="preserve"
     sodipodi:docname="ottomanOverlay.svg"
     inkscape:version="1.2.2 (732a01da63, 2022-12-09)"
     xmlns:inkscape="http://www.inkscape.org/namespaces/inkscape"
     xmlns:sodipodi="http://sodipodi.sourceforge.net/DTD/sodipodi-0.dtd"
     xmlns="http://www.w3.org/2000/svg"
     xmlns:svg="http://www.w3.org/2000/svg"><defs
     id="defs1293" /><sodipodi:namedview
     id="namedview1291"
     pagecolor="#ffffff"
     bordercolor="#999999"
     borderopacity="1"
     inkscape:showpageshadow="0"
     inkscape:pageopacity="0"
     inkscape:pagecheckerboard="0"
     inkscape:deskcolor="#d1d1d1"
     showgrid="false"
     inkscape:zoom="2"
     inkscape:cx="41.25"
     inkscape:cy="36.25"
     inkscape:window-width="2560"
     inkscape:window-height="1351"
     inkscape:window-x="1491"
     inkscape:window-y="585"
     inkscape:window-maximized="1"
     inkscape:current-layer="Layer_1" />























































































































































<path
     style="fill:#cb2027;fill-opacity:1;stroke-width:1.58472;stroke-linecap:round;stroke-linejoin:round;paint-order:markers stroke fill"
     d="m 130.28918,118.49123 c -0.0104,-0.2485 -2.65418,-17.61981 -2.85395,-18.752337 -0.16719,-0.947782 -0.44727,-1.115579 -9.02005,-5.403866 l -8.8475,-4.425723 2.2094,-1.060439 c 1.21516,-0.583245 5.23681,-2.506717 8.937,-4.274383 3.70018,-1.767666 6.8217,-3.298938 6.93671,-3.402834 0.18241,-0.16477 2.63144,-18.274856 2.63144,-19.458947 0,-0.246347 3.19561,2.816645 7.10135,6.806649 l 7.10136,7.254555 9.48574,-1.71387 c 5.21716,-0.942631 9.56065,-1.638974 9.65219,-1.547434 0.0915,0.09154 -1.85603,4.025236 -4.32792,8.741555 -2.4719,4.71631 -4.49231,8.737478 -4.48979,8.935924 0.003,0.198447 2.07081,4.195555 4.59621,8.882442 2.52541,4.686898 4.56651,8.552828 4.53579,8.590938 -0.0307,0.0382 -4.43408,-0.67564 -9.78521,-1.58613 l -9.72933,-1.65544 -7.06324,7.11772 c -3.88478,3.91474 -7.06638,7.04297 -7.0702,6.95162 z"
     id="path1656" /><path
     style="fill:#cb2027;fill-opacity:1;stroke-width:1.58472;stroke-linecap:round;stroke-linejoin:round;paint-order:markers stroke fill"
     d="m 63.753724,144.49136 c -13.36613,-1.9068 -25.666976,-8.45161 -34.098162,-18.14235 -8.878459,-10.20483 -13.59306,-22.74075 -13.59306,-36.143335 0,-9.317383 1.743622,-16.750908 5.85595,-24.96549 14.621564,-29.207272 52.193118,-39.049834 79.360338,-20.789913 2.37506,1.59635 6.35653,4.710737 6.20981,4.857443 -0.048,0.04795 -1.30365,-0.228816 -2.79049,-0.615002 -9.941075,-2.58202 -20.678325,-1.338941 -30.047728,3.478694 -18.637236,9.583055 -27.558344,31.337773 -21.010973,51.236683 3.489688,10.60591 11.191905,19.58391 21.150989,24.65438 9.117482,4.642 19.501943,5.85344 29.475162,3.43856 1.66727,-0.40372 3.10111,-0.73403 3.18628,-0.73403 0.40538,0 -3.36566,2.96379 -6.14449,4.82916 -6.954397,4.66834 -14.583619,7.60579 -22.779343,8.77063 -3.379382,0.48032 -11.783903,0.55117 -14.774283,0.12457 z"
     id="path1727" /></svg>
